<?xml version="1.0" encoding="utf-8"?>
<!-- Generator: Adobe Illustrator 21.0.0, SVG Export Plug-In . SVG Version: 6.00 Build 0)  -->
<svg version="1.1" id="Layer_1" xmlns="http://www.w3.org/2000/svg" xmlns:xlink="http://www.w3.org/1999/xlink" x="0px" y="0px"
	 viewBox="0 0 512 512" style="enable-background:new 0 0 512 512;" xml:space="preserve">

<polygon style="fill:#CCCCCC;" points="30.7,207.6 30.7,189.4 40.6,177.4 39.2,206.5 "/>
<polygon style="fill:#CCCCCC;" points="493.5,265 493.5,283.2 483.7,295.3 485,266.2 "/>
<path style="fill:#E6E6E6;" d="M297.6,385.3c15.7,9.1,41.2,9.1,56.9,0l124.9-72.1c15.7-9.1,15.7-23.8,0-32.9L222,131.7
	c-15.7-9.1-41.2-9.1-56.9,0L40.1,203.8c-15.7,9.1-15.7,23.8,0,32.9L297.6,385.3z"/>
<polygon style="fill:#E6E6E6;" points="251.8,170.7 251.8,188.8 242,200.9 243.3,171.8 "/>
<path style="fill:#CCCCCC;" d="M299.9,372.4c15.7,9.1,41.2,9.1,56.9,0l124.9-72.1c15.7-9.1,15.7-23.8,0-32.9L224.3,118.8
	c-15.7-9.1-41.2-9.1-56.9,0L42.5,191c-15.7,9.1-15.7,23.8,0,32.9L299.9,372.4z"/>
<path style="fill:#FFFFFF;" d="M299.9,353.9c15.7,9.1,41.2,9.1,56.9,0l124.9-72.1c15.7-9.1,15.7-23.8,0-32.9L224.3,100.3
	c-15.7-9.1-41.2-9.1-56.9,0L42.5,172.4c-15.7,9.1-15.7,23.8,0,32.9L299.9,353.9z"/>
<path style="fill:#E6E6E6;" d="M94,162.3c1.2,0.7,3.3,0.7,4.5,0l47.5-27.4c1.2-0.7,1.2-1.9,0-2.6l-2-1.2c-1.2-0.7-3.3-0.7-4.5,0L92,158.5
	c-1.2,0.7-1.2,1.9,0,2.6L94,162.3z"/>
<path style="fill:#E6E6E6;" d="M159.7,122.9c2.2,1.3,2.2,3.4,0,4.6c-2.2,1.3-5.8,1.3-8,0c-2.2-1.3-2.2-3.4,0-4.6
	C153.9,121.7,157.5,121.7,159.7,122.9z"/>
<path style="fill:#CCCCCC;" d="M157.7,124.1c1.1,0.6,1.1,1.7,0,2.3c-1.1,0.6-2.9,0.6-4,0c-1.1-0.6-1.1-1.7,0-2.3
	C154.8,123.5,156.6,123.5,157.7,124.1z"/>
<polygon style="fill:#4D4D4D;" points="476.8,246.1 295,351 42.7,205.4 224.3,100.3 "/>
<path style="fill:#E6E6E6;" d="M416.4,310.5l-7.2,4.1c-3.2,1.9-8.9,1.6-12.7-0.5l-5.3-3.1c-3.7-2.2-4.2-5.4-0.9-7.3l7.2-4.1
	c3.2-1.9,8.9-1.6,12.7,0.5l5.3,3.1C419.3,305.4,419.7,308.6,416.4,310.5z"/>
<path style="fill:#CCCCCC;" d="M80.6,240.8l-15.8-9.1c-1.5-0.8-2.6-3.1-2.6-5v-1.2c0-1.9,1.2-2.8,2.6-2l15.8,9.1c1.5,0.8,2.6,3.1,2.6,5v1.2
	C83.2,240.8,82.1,241.6,80.6,240.8z"/>
<path style="fill:#CCCCCC;" d="M106.5,255.9l-15.8-9.1c-1.5-0.8-2.6-3.1-2.6-5v-1.2c0-1.9,1.2-2.8,2.6-2l15.8,9.1c1.5,0.8,2.6,3.1,2.6,5v1.2
	C109.2,255.8,108,256.7,106.5,255.9z"/>
<g>
	<path style="fill:#FFFFFF;" d="M412.3,335.3c-0.7,0-1.3-0.5-1.5-1.2l-1-3.5c-0.2-0.6-0.1-1.2,0.2-1.9c0.3-0.6,0.7-1.1,1.2-1.4l14.1-8.1
		c0.3-0.2,0.6-0.3,1-0.3c0.4,0,0.8,0.1,1.1,0.4c0.5,0.4,0.6,1.1,0.5,1.9l-1,4.7c-0.2,0.9-0.8,1.7-1.5,2.1l-12.1,7
		C413,335.2,412.7,335.3,412.3,335.3z"/>
	<path style="fill:#B3B3B3;" d="M426,325.7c-0.1,0.6-0.5,1.2-1,1.5l-12.1,7c-0.5,0.3-0.9,0.1-1-0.3l-1-3.5c-0.1-0.3,0-0.8,0.2-1.2
		c0.2-0.4,0.5-0.8,0.8-1l14.1-8.1c0.3-0.2,0.6-0.2,0.8,0c0.2,0.2,0.3,0.5,0.2,1L426,325.7z"/>
	<g style="opacity:0.43;">
		<path style="fill:#FFB300;" d="M410.8,329.7l4.9,2.8l1.4-0.8l-5.6-3.2c-0.2,0.2-0.3,0.4-0.4,0.6C410.9,329.4,410.8,329.6,410.8,329.7z"/>
		<path style="fill:#FFB300;" d="M420,323.5l-1.4,0.8l5.7,3.3l0.6-0.4c0.2-0.1,0.4-0.3,0.6-0.5L420,323.5z"/>
		<polygon style="fill:#FFB300;" points="420,330 421.4,329.2 415.7,325.9 414.3,326.7 		"/>
	</g>
	<path style="fill:#B3B3B3;" d="M426.9,321c0.1-0.4,0-0.8-0.2-1c-0.2-0.2-0.5-0.2-0.8,0l-14.1,8.1c-0.3,0.2-0.6,0.6-0.8,1
		c-0.2,0.4-0.3,0.9-0.2,1.2l0.7,2.6l14.7-8.5L426.9,321z"/>
</g>
<polygon style="opacity:0.61;fill:#4D4D4D;" points="46.8,203 224.3,100.3 476.8,246.1 "/>
<polygon style="fill:#E5E5E5;" points="476.8,246.1 295,351 42.7,205.4 224.3,100.3 "/>
<polygon style="fill:#FFFFFF;" points="90.5,232.9 272.3,128 261.4,121.7 79.6,226.6 "/>
<path style="fill:#FFFFFF;" d="M63.7,193.2l208-0.1l64.5,37.2l0,96.9l15.4-8.9l0-79l68.8,39.5l10.9-6.3l-79.7-45.8l12.6-45.7l0,0l-285.1,3.3
	L63.7,193.2z M336.2,217.8l-42.7-24.6l50.7,0L336.2,217.8z"/>
<polygon style="fill:#FFFFFF;" points="133.1,258.1 315.6,153 304.7,146.7 122.2,251.8 "/>
<polygon style="fill:#FFFFFF;" points="214.3,304.4 396.4,199.5 385.5,193.2 203.4,298.1 "/>
<polygon style="fill:#FFFFFF;" points="337.8,326.3 133.3,208.2 122.4,214.5 326.9,332.6 "/>
<polygon style="fill:#CA1E3C;" points="379.4,302.3 395.8,292.9 143.4,147.3 127,156.7 "/>
<polygon style="fill:#E6E6E6;0" points="253.3,259.2 269.7,249.8 217.9,219.9 201.5,229.3 "/>
<polygon style="fill:#E6E6E6;0" points="306.8,304 323.2,294.5 280.6,269.9 264.3,279.4 "/>
<polygon style="fill:#E6E6E6;1" points="226.1,140.2 242.4,130.7 213.8,114.2 197.4,123.6 "/>
<g>
	<polygon style="fill:#FFFFFF;" points="154.4,188.3 163.8,193.7 173.1,188.3 163.8,182.9 	"/>
	<g>
		<polygon style="fill:#E6E6E6;" points="163.8,219.7 173.1,214.3 173.1,188.3 163.8,193.7 		"/>
		<g>
			<polygon style="fill:#E6E6E6;2" points="170.8,193.8 172.1,193.1 172.1,191.6 170.8,192.4 			"/>
			<g>
				<polygon style="fill:#E6E6E6;3" points="170.8,193.1 170.8,192.4 171.3,193.5 171.1,193.7 				"/>
				<polygon style="fill:#E6E6E6;3" points="172,193.2 171.8,193.3 171.2,192.1 171.5,192 				"/>
			</g>
			<polygon style="fill:#B3B3B3;" points="170.8,192.4 172.1,191.6 172.1,191.3 170.8,192.1 			"/>
			<polygon style="fill:#CCCCCC;" points="170.4,192.3 172.5,191.1 172.5,190.8 170.4,192 			"/>
			<polygon style="fill:#B3B3B3;" points="170.8,194.1 172.1,193.4 172.1,193.1 170.8,193.8 			"/>
			<polygon style="fill:#B3B3B3;" points="172.3,193.2 172.3,191.2 172.1,191.3 172.1,193.4 			"/>
			<polygon style="fill:#B3B3B3;" points="170.8,194.1 170.8,192.1 170.6,192.2 170.6,194.3 			"/>
		</g>
		<g>
			<polygon style="fill:#E6E6E6;2" points="167.8,195.6 169.1,194.8 169.1,193.4 167.8,194.1 			"/>
			<g>
				<polygon style="fill:#E6E6E6;3" points="167.8,194.8 167.8,194.1 168.3,195.3 168.1,195.4 				"/>
				<polygon style="fill:#E6E6E6;3" points="169,194.9 168.8,195 168.2,193.9 168.5,193.7 				"/>
			</g>
			<polygon style="fill:#B3B3B3;" points="167.8,194.1 169.1,193.4 169.1,193.1 167.8,193.8 			"/>
			<polygon style="fill:#CCCCCC;" points="167.4,194 169.5,192.9 169.5,192.6 167.4,193.8 			"/>
			<polygon style="fill:#B3B3B3;" points="167.8,195.9 169.1,195.1 169.1,194.8 167.8,195.6 			"/>
			<polygon style="fill:#B3B3B3;" points="169.3,195 169.3,192.9 169.1,193.1 169.1,195.1 			"/>
			<polygon style="fill:#B3B3B3;" points="167.8,195.9 167.8,193.8 167.6,194 167.6,196 			"/>
		</g>
		<g>
			<polygon style="fill:#E6E6E6;2" points="164.8,197.3 166.1,196.6 166.1,195.1 164.8,195.8 			"/>
			<g>
				<polygon style="fill:#E6E6E6;3" points="164.8,196.6 164.8,195.9 165.3,197 165.1,197.2 				"/>
				<polygon style="fill:#E6E6E6;3" points="166,196.6 165.8,196.8 165.2,195.6 165.5,195.5 				"/>
			</g>
			<polygon style="fill:#B3B3B3;" points="164.8,195.8 166.1,195.1 166.1,194.8 164.8,195.6 			"/>
			<polygon style="fill:#CCCCCC;" points="164.4,195.8 166.5,194.6 166.5,194.3 164.4,195.5 			"/>
			<polygon style="fill:#B3B3B3;" points="164.8,197.6 166.1,196.9 166.1,196.6 164.8,197.3 			"/>
			<polygon style="fill:#B3B3B3;" points="166.3,196.7 166.3,194.7 166.1,194.8 166.1,196.9 			"/>
			<polygon style="fill:#B3B3B3;" points="164.8,197.6 164.8,195.6 164.6,195.7 164.6,197.7 			"/>
		</g>
		<g>
			<polygon style="fill:#E6E6E6;2" points="170.8,197.5 172.1,196.8 172.1,195.3 170.8,196 			"/>
			<g>
				<polygon style="fill:#E6E6E6;3" points="170.8,196.8 170.8,196.1 171.3,197.2 171.1,197.3 				"/>
				<polygon style="fill:#E6E6E6;3" points="172,196.8 171.8,197 171.2,195.8 171.5,195.7 				"/>
			</g>
			<polygon style="fill:#B3B3B3;" points="170.8,196 172.1,195.3 172.1,195 170.8,195.7 			"/>
			<polygon style="fill:#CCCCCC;" points="170.4,196 172.5,194.8 172.5,194.5 170.4,195.7 			"/>
			<polygon style="fill:#B3B3B3;" points="170.8,197.8 172.1,197.1 172.1,196.8 170.8,197.5 			"/>
			<polygon style="fill:#B3B3B3;" points="172.3,196.9 172.3,194.9 172.1,195 172.1,197.1 			"/>
			<polygon style="fill:#B3B3B3;" points="170.8,197.8 170.8,195.7 170.6,195.9 170.6,197.9 			"/>
		</g>
		<g>
			<polygon style="fill:#E6E6E6;2" points="167.8,199.2 169.1,198.5 169.1,197 167.8,197.8 			"/>
			<g>
				<polygon style="fill:#E6E6E6;3" points="167.8,198.5 167.8,197.8 168.3,198.9 168.1,199.1 				"/>
				<polygon style="fill:#E6E6E6;3" points="169,198.6 168.8,198.7 168.2,197.5 168.5,197.4 				"/>
			</g>
			<polygon style="fill:#B3B3B3;" points="167.8,197.8 169.1,197 169.1,196.7 167.8,197.5 			"/>
			<polygon style="fill:#CCCCCC;" points="167.4,197.7 169.5,196.5 169.5,196.2 167.4,197.4 			"/>
			<polygon style="fill:#B3B3B3;" points="167.8,199.5 169.1,198.8 169.1,198.5 167.8,199.2 			"/>
			<polygon style="fill:#B3B3B3;" points="169.3,198.6 169.3,196.6 169.1,196.7 169.1,198.8 			"/>
			<polygon style="fill:#B3B3B3;" points="167.8,199.5 167.8,197.5 167.6,197.6 167.6,199.7 			"/>
		</g>
		<g>
			<polygon style="fill:#E6E6E6;2" points="164.8,201 166.1,200.2 166.1,198.8 164.8,199.5 			"/>
			<g>
				<polygon style="fill:#E6E6E6;3" points="164.8,200.2 164.8,199.5 165.3,200.7 165.1,200.8 				"/>
				<polygon style="fill:#E6E6E6;3" points="166,200.3 165.8,200.4 165.2,199.3 165.5,199.1 				"/>
			</g>
			<polygon style="fill:#B3B3B3;" points="164.8,199.5 166.1,198.8 166.1,198.5 164.8,199.2 			"/>
			<polygon style="fill:#CCCCCC;" points="164.4,199.4 166.5,198.3 166.5,198 164.4,199.2 			"/>
			<polygon style="fill:#B3B3B3;" points="164.8,201.3 166.1,200.5 166.1,200.2 164.8,201 			"/>
			<polygon style="fill:#B3B3B3;" points="166.3,200.4 166.3,198.3 166.1,198.5 166.1,200.5 			"/>
			<polygon style="fill:#B3B3B3;" points="164.8,201.3 164.8,199.2 164.6,199.4 164.6,201.4 			"/>
		</g>
		<g>
			<polygon style="fill:#E6E6E6;2" points="170.8,201.2 172.1,200.4 172.1,199 170.8,199.7 			"/>
			<g>
				<polygon style="fill:#E6E6E6;3" points="170.8,200.4 170.8,199.7 171.3,200.9 171.1,201 				"/>
				<polygon style="fill:#E6E6E6;3" points="172,200.5 171.8,200.6 171.2,199.5 171.5,199.3 				"/>
			</g>
			<polygon style="fill:#B3B3B3;" points="170.8,199.7 172.1,199 172.1,198.7 170.8,199.4 			"/>
			<polygon style="fill:#CCCCCC;" points="170.4,199.6 172.5,198.5 172.5,198.2 170.4,199.4 			"/>
			<polygon style="fill:#B3B3B3;" points="170.8,201.5 172.1,200.7 172.1,200.4 170.8,201.2 			"/>
			<polygon style="fill:#B3B3B3;" points="172.3,200.6 172.3,198.5 172.1,198.7 172.1,200.7 			"/>
			<polygon style="fill:#B3B3B3;" points="170.8,201.5 170.8,199.4 170.6,199.6 170.6,201.6 			"/>
		</g>
		<g>
			<polygon style="fill:#E6E6E6;2" points="167.8,202.9 169.1,202.2 169.1,200.7 167.8,201.4 			"/>
			<g>
				<polygon style="fill:#E6E6E6;3" points="167.8,202.2 167.8,201.5 168.3,202.6 168.1,202.7 				"/>
				<polygon style="fill:#E6E6E6;3" points="169,202.2 168.8,202.4 168.2,201.2 168.5,201.1 				"/>
			</g>
			<polygon style="fill:#B3B3B3;" points="167.8,201.4 169.1,200.7 169.1,200.4 167.8,201.1 			"/>
			<polygon style="fill:#CCCCCC;" points="167.4,201.4 169.5,200.2 169.5,199.9 167.4,201.1 			"/>
			<polygon style="fill:#B3B3B3;" points="167.8,203.2 169.1,202.5 169.1,202.2 167.8,202.9 			"/>
			<polygon style="fill:#B3B3B3;" points="169.3,202.3 169.3,200.3 169.1,200.4 169.1,202.5 			"/>
			<polygon style="fill:#B3B3B3;" points="167.8,203.2 167.8,201.1 167.6,201.3 167.6,203.3 			"/>
		</g>
		<g>
			<polygon style="fill:#E6E6E6;2" points="164.8,204.6 166.1,203.9 166.1,202.4 164.8,203.2 			"/>
			<g>
				<polygon style="fill:#E6E6E6;3" points="164.8,203.9 164.8,203.2 165.3,204.3 165.1,204.5 				"/>
				<polygon style="fill:#E6E6E6;3" points="166,203.9 165.8,204.1 165.2,202.9 165.5,202.8 				"/>
			</g>
			<polygon style="fill:#B3B3B3;" points="164.8,203.2 166.1,202.4 166.1,202.1 164.8,202.9 			"/>
			<polygon style="fill:#CCCCCC;" points="164.4,203.1 166.5,201.9 166.5,201.6 164.4,202.8 			"/>
			<polygon style="fill:#B3B3B3;" points="164.8,204.9 166.1,204.2 166.1,203.9 164.8,204.6 			"/>
			<polygon style="fill:#B3B3B3;" points="166.3,204 166.3,202 166.1,202.1 166.1,204.2 			"/>
			<polygon style="fill:#B3B3B3;" points="164.8,204.9 164.8,202.9 164.6,203 164.6,205.1 			"/>
		</g>
		<g>
			<polygon style="fill:#E6E6E6;2" points="170.8,204.8 172.1,204.1 172.1,202.6 170.8,203.4 			"/>
			<g>
				<polygon style="fill:#E6E6E6;3" points="170.8,204.1 170.8,203.4 171.3,204.5 171.1,204.7 				"/>
				<polygon style="fill:#E6E6E6;3" points="172,204.1 171.8,204.3 171.2,203.1 171.5,203 				"/>
			</g>
			<polygon style="fill:#B3B3B3;" points="170.8,203.4 172.1,202.6 172.1,202.3 170.8,203.1 			"/>
			<polygon style="fill:#CCCCCC;" points="170.4,203.3 172.5,202.1 172.5,201.8 170.4,203 			"/>
			<polygon style="fill:#B3B3B3;" points="170.8,205.1 172.1,204.4 172.1,204.1 170.8,204.8 			"/>
			<polygon style="fill:#B3B3B3;" points="172.3,204.2 172.3,202.2 172.1,202.3 172.1,204.4 			"/>
			<polygon style="fill:#B3B3B3;" points="170.8,205.1 170.8,203.1 170.6,203.2 170.6,205.3 			"/>
		</g>
		<g>
			<polygon style="fill:#E6E6E6;2" points="167.8,206.6 169.1,205.8 169.1,204.4 167.8,205.1 			"/>
			<g>
				<polygon style="fill:#E6E6E6;3" points="167.8,205.8 167.8,205.1 168.3,206.3 168.1,206.4 				"/>
				<polygon style="fill:#E6E6E6;3" points="169,205.9 168.8,206 168.2,204.9 168.5,204.7 				"/>
			</g>
			<polygon style="fill:#B3B3B3;" points="167.8,205.1 169.1,204.4 169.1,204.1 167.8,204.8 			"/>
			<polygon style="fill:#CCCCCC;" points="167.4,205 169.5,203.9 169.5,203.6 167.4,204.7 			"/>
			<polygon style="fill:#B3B3B3;" points="167.8,206.9 169.1,206.1 169.1,205.8 167.8,206.6 			"/>
			<polygon style="fill:#B3B3B3;" points="169.3,206 169.3,203.9 169.1,204.1 169.1,206.1 			"/>
			<polygon style="fill:#B3B3B3;" points="167.8,206.9 167.8,204.8 167.6,205 167.6,207 			"/>
		</g>
		<g>
			<polygon style="fill:#E6E6E6;2" points="164.8,208.3 166.1,207.6 166.1,206.1 164.8,206.8 			"/>
			<g>
				<polygon style="fill:#E6E6E6;3" points="164.8,207.6 164.8,206.9 165.3,208 165.1,208.1 				"/>
				<polygon style="fill:#E6E6E6;3" points="166,207.6 165.8,207.8 165.2,206.6 165.5,206.5 				"/>
			</g>
			<polygon style="fill:#B3B3B3;" points="164.8,206.8 166.1,206.1 166.1,205.8 164.8,206.5 			"/>
			<polygon style="fill:#CCCCCC;" points="164.4,206.8 166.5,205.6 166.5,205.3 164.4,206.5 			"/>
			<polygon style="fill:#B3B3B3;" points="164.8,208.6 166.1,207.8 166.1,207.6 164.8,208.3 			"/>
			<polygon style="fill:#B3B3B3;" points="166.3,207.7 166.3,205.7 166.1,205.8 166.1,207.8 			"/>
			<polygon style="fill:#B3B3B3;" points="164.8,208.6 164.8,206.5 164.6,206.7 164.6,208.7 			"/>
		</g>
		<g>
			<polygon style="fill:#E6E6E6;2" points="170.8,208.5 172.1,207.8 172.1,206.3 170.8,207 			"/>
			<g>
				<polygon style="fill:#E6E6E6;3" points="170.8,207.8 170.8,207.1 171.3,208.2 171.1,208.3 				"/>
				<polygon style="fill:#E6E6E6;3" points="172,207.8 171.8,208 171.2,206.8 171.5,206.6 				"/>
			</g>
			<polygon style="fill:#B3B3B3;" points="170.8,207 172.1,206.3 172.1,206 170.8,206.7 			"/>
			<polygon style="fill:#CCCCCC;" points="170.4,207 172.5,205.8 172.5,205.5 170.4,206.7 			"/>
			<polygon style="fill:#B3B3B3;" points="170.8,208.8 172.1,208 172.1,207.8 170.8,208.5 			"/>
			<polygon style="fill:#B3B3B3;" points="172.3,207.9 172.3,205.9 172.1,206 172.1,208 			"/>
			<polygon style="fill:#B3B3B3;" points="170.8,208.8 170.8,206.7 170.6,206.9 170.6,208.9 			"/>
		</g>
		<g>
			<polygon style="fill:#E6E6E6;2" points="167.8,210.2 169.1,209.5 169.1,208 167.8,208.8 			"/>
			<g>
				<polygon style="fill:#E6E6E6;3" points="167.8,209.5 167.8,208.8 168.3,209.9 168.1,210.1 				"/>
				<polygon style="fill:#E6E6E6;3" points="169,209.5 168.8,209.7 168.2,208.5 168.5,208.4 				"/>
			</g>
			<polygon style="fill:#B3B3B3;" points="167.8,208.8 169.1,208 169.1,207.7 167.8,208.5 			"/>
			<polygon style="fill:#CCCCCC;" points="167.4,208.7 169.5,207.5 169.5,207.2 167.4,208.4 			"/>
			<polygon style="fill:#B3B3B3;" points="167.8,210.5 169.1,209.8 169.1,209.5 167.8,210.2 			"/>
			<polygon style="fill:#B3B3B3;" points="169.3,209.6 169.3,207.6 169.1,207.7 169.1,209.8 			"/>
			<polygon style="fill:#B3B3B3;" points="167.8,210.5 167.8,208.5 167.6,208.6 167.6,210.7 			"/>
		</g>
		<g>
			<polygon style="fill:#E6E6E6;2" points="164.8,212 166.1,211.2 166.1,209.8 164.8,210.5 			"/>
			<g>
				<polygon style="fill:#E6E6E6;3" points="164.8,211.2 164.8,210.5 165.3,211.7 165.1,211.8 				"/>
				<polygon style="fill:#E6E6E6;3" points="166,211.3 165.8,211.4 165.2,210.3 165.5,210.1 				"/>
			</g>
			<polygon style="fill:#B3B3B3;" points="164.8,210.5 166.1,209.8 166.1,209.5 164.8,210.2 			"/>
			<polygon style="fill:#CCCCCC;" points="164.4,210.4 166.5,209.3 166.5,209 164.4,210.1 			"/>
			<polygon style="fill:#B3B3B3;" points="164.8,212.3 166.1,211.5 166.1,211.2 164.8,212 			"/>
			<polygon style="fill:#B3B3B3;" points="166.3,211.4 166.3,209.3 166.1,209.5 166.1,211.5 			"/>
			<polygon style="fill:#B3B3B3;" points="164.8,212.3 164.8,210.2 164.6,210.4 164.6,212.4 			"/>
		</g>
		<g>
			<polygon style="fill:#E6E6E6;2" points="170.8,212.2 172.1,211.4 172.1,209.9 170.8,210.7 			"/>
			<g>
				<polygon style="fill:#E6E6E6;3" points="170.8,211.4 170.8,210.7 171.3,211.9 171.1,212 				"/>
				<polygon style="fill:#E6E6E6;3" points="172,211.5 171.8,211.6 171.2,210.5 171.5,210.3 				"/>
			</g>
			<polygon style="fill:#B3B3B3;" points="170.8,210.7 172.1,209.9 172.1,209.7 170.8,210.4 			"/>
			<polygon style="fill:#CCCCCC;" points="170.4,210.6 172.5,209.5 172.5,209.2 170.4,210.3 			"/>
			<polygon style="fill:#B3B3B3;" points="170.8,212.5 172.1,211.7 172.1,211.4 170.8,212.2 			"/>
			<polygon style="fill:#B3B3B3;" points="172.3,211.6 172.3,209.5 172.1,209.7 172.1,211.7 			"/>
			<polygon style="fill:#B3B3B3;" points="170.8,212.5 170.8,210.4 170.6,210.6 170.6,212.6 			"/>
		</g>
		<g>
			<polygon style="fill:#E6E6E6;2" points="167.8,213.9 169.1,213.2 169.1,211.7 167.8,212.4 			"/>
			<g>
				<polygon style="fill:#E6E6E6;3" points="167.8,213.2 167.8,212.5 168.3,213.6 168.1,213.7 				"/>
				<polygon style="fill:#E6E6E6;3" points="169,213.2 168.8,213.4 168.2,212.2 168.5,212 				"/>
			</g>
			<polygon style="fill:#B3B3B3;" points="167.8,212.4 169.1,211.7 169.1,211.4 167.8,212.1 			"/>
			<polygon style="fill:#CCCCCC;" points="167.4,212.4 169.5,211.2 169.5,210.9 167.4,212.1 			"/>
			<polygon style="fill:#B3B3B3;" points="167.8,214.2 169.1,213.4 169.1,213.2 167.8,213.9 			"/>
			<polygon style="fill:#B3B3B3;" points="169.3,213.3 169.3,211.3 169.1,211.4 169.1,213.4 			"/>
			<polygon style="fill:#B3B3B3;" points="167.8,214.2 167.8,212.1 167.6,212.3 167.6,214.3 			"/>
		</g>
		<g>
			<polygon style="fill:#E6E6E6;2" points="164.8,215.6 166.1,214.9 166.1,213.4 164.8,214.2 			"/>
			<g>
				<polygon style="fill:#E6E6E6;3" points="164.8,214.9 164.8,214.2 165.3,215.3 165.1,215.5 				"/>
				<polygon style="fill:#E6E6E6;3" points="166,214.9 165.8,215.1 165.2,213.9 165.5,213.8 				"/>
			</g>
			<polygon style="fill:#B3B3B3;" points="164.8,214.2 166.1,213.4 166.1,213.1 164.8,213.9 			"/>
			<polygon style="fill:#CCCCCC;" points="164.4,214.1 166.5,212.9 166.5,212.6 164.4,213.8 			"/>
			<polygon style="fill:#B3B3B3;" points="164.8,215.9 166.1,215.2 166.1,214.9 164.8,215.6 			"/>
			<polygon style="fill:#B3B3B3;" points="166.3,215 166.3,213 166.1,213.1 166.1,215.2 			"/>
			<polygon style="fill:#B3B3B3;" points="164.8,215.9 164.8,213.9 164.6,214 164.6,216.1 			"/>
		</g>
	</g>
	<g>
		<polygon style="fill:#CCCCCC;" points="154.4,214.3 163.8,219.7 163.8,193.7 154.4,188.3 		"/>
		<g>
			<polygon style="fill:#E6E6E6;2" points="161.5,196.6 162.8,197.3 162.8,195.8 161.5,195.1 			"/>
			<g>
				<polygon style="fill:#E6E6E6;3" points="161.5,195.8 161.5,195.1 162,196.9 161.7,196.7 				"/>
				<polygon style="fill:#E6E6E6;3" points="162.7,197.3 162.4,197.1 161.9,195.3 162.1,195.5 				"/>
			</g>
			<polygon style="fill:#B3B3B3;" points="161.5,195.1 162.8,195.8 162.8,195.6 161.5,194.8 			"/>
			<polygon style="fill:#CCCCCC;" points="161.1,194.6 163.1,195.8 163.1,195.5 161.1,194.3 			"/>
			<polygon style="fill:#B3B3B3;" points="161.5,196.9 162.8,197.6 162.8,197.3 161.5,196.6 			"/>
			<polygon style="fill:#B3B3B3;" points="163,197.7 163,195.7 162.8,195.6 162.8,197.6 			"/>
			<polygon style="fill:#B3B3B3;" points="161.5,196.9 161.5,194.8 161.2,194.7 161.2,196.7 			"/>
		</g>
		<g>
			<polygon style="fill:#E6E6E6;2" points="158.5,194.8 159.7,195.6 159.7,194.1 158.5,193.4 			"/>
			<g>
				<polygon style="fill:#E6E6E6;3" points="158.5,194.1 158.5,193.4 159,195.1 158.7,195 				"/>
				<polygon style="fill:#E6E6E6;3" points="159.7,195.5 159.4,195.4 158.9,193.6 159.1,193.7 				"/>
			</g>
			<polygon style="fill:#B3B3B3;" points="158.5,193.4 159.7,194.1 159.7,193.8 158.5,193.1 			"/>
			<polygon style="fill:#CCCCCC;" points="158.1,192.9 160.1,194 160.1,193.8 158.1,192.6 			"/>
			<polygon style="fill:#B3B3B3;" points="158.5,195.1 159.7,195.9 159.7,195.6 158.5,194.8 			"/>
			<polygon style="fill:#B3B3B3;" points="160,196 160,194 159.7,193.8 159.7,195.9 			"/>
			<polygon style="fill:#B3B3B3;" points="158.5,195.1 158.5,193.1 158.2,192.9 158.2,195 			"/>
		</g>
		<g>
			<polygon style="fill:#E6E6E6;2" points="155.5,193.1 156.7,193.8 156.7,192.4 155.5,191.6 			"/>
			<g>
				<polygon style="fill:#E6E6E6;3" points="155.5,192.3 155.5,191.7 156,193.4 155.7,193.3 				"/>
				<polygon style="fill:#E6E6E6;3" points="156.7,193.8 156.4,193.7 155.9,191.9 156.1,192 				"/>
			</g>
			<polygon style="fill:#B3B3B3;" points="155.5,191.6 156.7,192.4 156.7,192.1 155.5,191.3 			"/>
			<polygon style="fill:#CCCCCC;" points="155.1,191.1 157.1,192.3 157.1,192 155.1,190.8 			"/>
			<polygon style="fill:#B3B3B3;" points="155.5,193.4 156.7,194.1 156.7,193.8 155.5,193.1 			"/>
			<polygon style="fill:#B3B3B3;" points="157,194.3 157,192.2 156.7,192.1 156.7,194.1 			"/>
			<polygon style="fill:#B3B3B3;" points="155.5,193.4 155.5,191.3 155.2,191.2 155.2,193.2 			"/>
		</g>
		<g>
			<polygon style="fill:#E6E6E6;2" points="161.5,200.2 162.8,201 162.8,199.5 161.5,198.8 			"/>
			<g>
				<polygon style="fill:#E6E6E6;3" points="161.5,199.5 161.5,198.8 162,200.5 161.7,200.4 				"/>
				<polygon style="fill:#E6E6E6;3" points="162.7,200.9 162.4,200.8 161.9,199 162.1,199.1 				"/>
			</g>
			<polygon style="fill:#B3B3B3;" points="161.5,198.8 162.8,199.5 162.8,199.2 161.5,198.5 			"/>
			<polygon style="fill:#CCCCCC;" points="161.1,198.3 163.1,199.4 163.1,199.2 161.1,198 			"/>
			<polygon style="fill:#B3B3B3;" points="161.5,200.5 162.8,201.3 162.8,201 161.5,200.2 			"/>
			<polygon style="fill:#B3B3B3;" points="163,201.4 163,199.4 162.8,199.2 162.8,201.3 			"/>
			<polygon style="fill:#B3B3B3;" points="161.5,200.5 161.5,198.5 161.2,198.3 161.2,200.4 			"/>
		</g>
		<g>
			<polygon style="fill:#E6E6E6;2" points="158.5,198.5 159.7,199.2 159.7,197.8 158.5,197 			"/>
			<g>
				<polygon style="fill:#E6E6E6;3" points="158.5,197.7 158.5,197.1 159,198.8 158.7,198.7 				"/>
				<polygon style="fill:#E6E6E6;3" points="159.7,199.2 159.4,199.1 158.9,197.3 159.1,197.4 				"/>
			</g>
			<polygon style="fill:#B3B3B3;" points="158.5,197 159.7,197.8 159.7,197.5 158.5,196.7 			"/>
			<polygon style="fill:#CCCCCC;" points="158.1,196.5 160.1,197.7 160.1,197.4 158.1,196.2 			"/>
			<polygon style="fill:#B3B3B3;" points="158.5,198.8 159.7,199.5 159.7,199.2 158.5,198.5 			"/>
			<polygon style="fill:#B3B3B3;" points="160,199.7 160,197.6 159.7,197.5 159.7,199.5 			"/>
			<polygon style="fill:#B3B3B3;" points="158.5,198.8 158.5,196.7 158.2,196.6 158.2,198.6 			"/>
		</g>
		<g>
			<polygon style="fill:#E6E6E6;2" points="155.5,196.8 156.7,197.5 156.7,196 155.5,195.3 			"/>
			<g>
				<polygon style="fill:#E6E6E6;3" points="155.5,196 155.5,195.3 156,197.1 155.7,196.9 				"/>
				<polygon style="fill:#E6E6E6;3" points="156.7,197.5 156.4,197.3 155.9,195.5 156.1,195.7 				"/>
			</g>
			<polygon style="fill:#B3B3B3;" points="155.5,195.3 156.7,196 156.7,195.7 155.5,195 			"/>
			<polygon style="fill:#CCCCCC;" points="155.1,194.8 157.1,196 157.1,195.7 155.1,194.5 			"/>
			<polygon style="fill:#B3B3B3;" points="155.5,197.1 156.7,197.8 156.7,197.5 155.5,196.8 			"/>
			<polygon style="fill:#B3B3B3;" points="157,197.9 157,195.9 156.7,195.7 156.7,197.8 			"/>
			<polygon style="fill:#B3B3B3;" points="155.5,197.1 155.5,195 155.2,194.9 155.2,196.9 			"/>
		</g>
		<g>
			<polygon style="fill:#E6E6E6;2" points="161.5,203.9 162.8,204.6 162.8,203.2 161.5,202.4 			"/>
			<g>
				<polygon style="fill:#E6E6E6;3" points="161.5,203.1 161.5,202.5 162,204.2 161.7,204.1 				"/>
				<polygon style="fill:#E6E6E6;3" points="162.7,204.6 162.4,204.5 161.9,202.6 162.1,202.8 				"/>
			</g>
			<polygon style="fill:#B3B3B3;" points="161.5,202.4 162.8,203.2 162.8,202.9 161.5,202.1 			"/>
			<polygon style="fill:#CCCCCC;" points="161.1,201.9 163.1,203.1 163.1,202.8 161.1,201.6 			"/>
			<polygon style="fill:#B3B3B3;" points="161.5,204.2 162.8,204.9 162.8,204.6 161.5,203.9 			"/>
			<polygon style="fill:#B3B3B3;" points="163,205.1 163,203 162.8,202.9 162.8,204.9 			"/>
			<polygon style="fill:#B3B3B3;" points="161.5,204.2 161.5,202.1 161.2,202 161.2,204 			"/>
		</g>
		<g>
			<polygon style="fill:#E6E6E6;2" points="158.5,202.2 159.7,202.9 159.7,201.4 158.5,200.7 			"/>
			<g>
				<polygon style="fill:#E6E6E6;3" points="158.5,201.4 158.5,200.7 159,202.5 158.7,202.3 				"/>
				<polygon style="fill:#E6E6E6;3" points="159.7,202.9 159.4,202.7 158.9,200.9 159.1,201.1 				"/>
			</g>
			<polygon style="fill:#B3B3B3;" points="158.5,200.7 159.7,201.4 159.7,201.1 158.5,200.4 			"/>
			<polygon style="fill:#CCCCCC;" points="158.1,200.2 160.1,201.4 160.1,201.1 158.1,199.9 			"/>
			<polygon style="fill:#B3B3B3;" points="158.5,202.5 159.7,203.2 159.7,202.9 158.5,202.2 			"/>
			<polygon style="fill:#B3B3B3;" points="160,203.3 160,201.3 159.7,201.1 159.7,203.2 			"/>
			<polygon style="fill:#B3B3B3;" points="158.5,202.5 158.5,200.4 158.2,200.3 158.2,202.3 			"/>
		</g>
		<g>
			<polygon style="fill:#E6E6E6;2" points="155.5,200.4 156.7,201.2 156.7,199.7 155.5,199 			"/>
			<g>
				<polygon style="fill:#E6E6E6;3" points="155.5,199.7 155.5,199 156,200.7 155.7,200.6 				"/>
				<polygon style="fill:#E6E6E6;3" points="156.7,201.1 156.4,201 155.9,199.2 156.1,199.3 				"/>
			</g>
			<polygon style="fill:#B3B3B3;" points="155.5,199 156.7,199.7 156.7,199.4 155.5,198.7 			"/>
			<polygon style="fill:#CCCCCC;" points="155.1,198.5 157.1,199.6 157.1,199.4 155.1,198.2 			"/>
			<polygon style="fill:#B3B3B3;" points="155.5,200.7 156.7,201.5 156.7,201.2 155.5,200.4 			"/>
			<polygon style="fill:#B3B3B3;" points="157,201.6 157,199.6 156.7,199.4 156.7,201.5 			"/>
			<polygon style="fill:#B3B3B3;" points="155.5,200.7 155.5,198.7 155.2,198.5 155.2,200.6 			"/>
		</g>
		<g>
			<polygon style="fill:#E6E6E6;2" points="161.5,207.6 162.8,208.3 162.8,206.8 161.5,206.1 			"/>
			<g>
				<polygon style="fill:#E6E6E6;3" points="161.5,206.8 161.5,206.1 162,207.9 161.7,207.7 				"/>
				<polygon style="fill:#E6E6E6;3" points="162.7,208.3 162.4,208.1 161.9,206.3 162.1,206.5 				"/>
			</g>
			<polygon style="fill:#B3B3B3;" points="161.5,206.1 162.8,206.8 162.8,206.5 161.5,205.8 			"/>
			<polygon style="fill:#CCCCCC;" points="161.1,205.6 163.1,206.8 163.1,206.5 161.1,205.3 			"/>
			<polygon style="fill:#B3B3B3;" points="161.5,207.8 162.8,208.6 162.8,208.3 161.5,207.6 			"/>
			<polygon style="fill:#B3B3B3;" points="163,208.7 163,206.7 162.8,206.5 162.8,208.6 			"/>
			<polygon style="fill:#B3B3B3;" points="161.5,207.8 161.5,205.8 161.2,205.7 161.2,207.7 			"/>
		</g>
		<g>
			<polygon style="fill:#E6E6E6;2" points="158.5,205.8 159.7,206.6 159.7,205.1 158.5,204.4 			"/>
			<g>
				<polygon style="fill:#E6E6E6;3" points="158.5,205.1 158.5,204.4 159,206.1 158.7,206 				"/>
				<polygon style="fill:#E6E6E6;3" points="159.7,206.5 159.4,206.4 158.9,204.6 159.1,204.7 				"/>
			</g>
			<polygon style="fill:#B3B3B3;" points="158.5,204.4 159.7,205.1 159.7,204.8 158.5,204.1 			"/>
			<polygon style="fill:#CCCCCC;" points="158.1,203.9 160.1,205 160.1,204.7 158.1,203.6 			"/>
			<polygon style="fill:#B3B3B3;" points="158.5,206.1 159.7,206.9 159.7,206.6 158.5,205.8 			"/>
			<polygon style="fill:#B3B3B3;" points="160,207 160,205 159.7,204.8 159.7,206.9 			"/>
			<polygon style="fill:#B3B3B3;" points="158.5,206.1 158.5,204.1 158.2,203.9 158.2,206 			"/>
		</g>
		<g>
			<polygon style="fill:#E6E6E6;2" points="155.5,204.1 156.7,204.8 156.7,203.4 155.5,202.6 			"/>
			<g>
				<polygon style="fill:#E6E6E6;3" points="155.5,203.3 155.5,202.7 156,204.4 155.7,204.3 				"/>
				<polygon style="fill:#E6E6E6;3" points="156.7,204.8 156.4,204.7 155.9,202.8 156.1,203 				"/>
			</g>
			<polygon style="fill:#B3B3B3;" points="155.5,202.6 156.7,203.4 156.7,203.1 155.5,202.3 			"/>
			<polygon style="fill:#CCCCCC;" points="155.1,202.1 157.1,203.3 157.1,203 155.1,201.8 			"/>
			<polygon style="fill:#B3B3B3;" points="155.5,204.4 156.7,205.1 156.7,204.8 155.5,204.1 			"/>
			<polygon style="fill:#B3B3B3;" points="157,205.3 157,203.2 156.7,203.1 156.7,205.1 			"/>
			<polygon style="fill:#B3B3B3;" points="155.5,204.4 155.5,202.3 155.2,202.2 155.2,204.2 			"/>
		</g>
		<g>
			<polygon style="fill:#E6E6E6;2" points="161.5,211.2 162.8,212 162.8,210.5 161.5,209.8 			"/>
			<g>
				<polygon style="fill:#E6E6E6;3" points="161.5,210.5 161.5,209.8 162,211.5 161.7,211.4 				"/>
				<polygon style="fill:#E6E6E6;3" points="162.7,211.9 162.4,211.8 161.9,210 162.1,210.1 				"/>
			</g>
			<polygon style="fill:#B3B3B3;" points="161.5,209.8 162.8,210.5 162.8,210.2 161.5,209.5 			"/>
			<polygon style="fill:#CCCCCC;" points="161.1,209.3 163.1,210.4 163.1,210.1 161.1,209 			"/>
			<polygon style="fill:#B3B3B3;" points="161.5,211.5 162.8,212.3 162.8,212 161.5,211.2 			"/>
			<polygon style="fill:#B3B3B3;" points="163,212.4 163,210.4 162.8,210.2 162.8,212.3 			"/>
			<polygon style="fill:#B3B3B3;" points="161.5,211.5 161.5,209.5 161.2,209.3 161.2,211.4 			"/>
		</g>
		<g>
			<polygon style="fill:#E6E6E6;2" points="158.5,209.5 159.7,210.2 159.7,208.8 158.5,208 			"/>
			<g>
				<polygon style="fill:#E6E6E6;3" points="158.5,208.7 158.5,208.1 159,209.8 158.7,209.7 				"/>
				<polygon style="fill:#E6E6E6;3" points="159.7,210.2 159.4,210 158.9,208.2 159.1,208.4 				"/>
			</g>
			<polygon style="fill:#B3B3B3;" points="158.5,208 159.7,208.8 159.7,208.5 158.5,207.7 			"/>
			<polygon style="fill:#CCCCCC;" points="158.1,207.5 160.1,208.7 160.1,208.4 158.1,207.2 			"/>
			<polygon style="fill:#B3B3B3;" points="158.5,209.8 159.7,210.5 159.7,210.2 158.5,209.5 			"/>
			<polygon style="fill:#B3B3B3;" points="160,210.7 160,208.6 159.7,208.5 159.7,210.5 			"/>
			<polygon style="fill:#B3B3B3;" points="158.5,209.8 158.5,207.7 158.2,207.6 158.2,209.6 			"/>
		</g>
		<g>
			<polygon style="fill:#E6E6E6;2" points="155.5,207.8 156.7,208.5 156.7,207 155.5,206.3 			"/>
			<g>
				<polygon style="fill:#E6E6E6;3" points="155.5,207 155.5,206.3 156,208.1 155.7,207.9 				"/>
				<polygon style="fill:#E6E6E6;3" points="156.7,208.5 156.4,208.3 155.9,206.5 156.1,206.7 				"/>
			</g>
			<polygon style="fill:#B3B3B3;" points="155.5,206.3 156.7,207 156.7,206.7 155.5,206 			"/>
			<polygon style="fill:#CCCCCC;" points="155.1,205.8 157.1,207 157.1,206.7 155.1,205.5 			"/>
			<polygon style="fill:#B3B3B3;" points="155.5,208 156.7,208.8 156.7,208.5 155.5,207.8 			"/>
			<polygon style="fill:#B3B3B3;" points="157,208.9 157,206.9 156.7,206.7 156.7,208.8 			"/>
			<polygon style="fill:#B3B3B3;" points="155.5,208 155.5,206 155.2,205.9 155.2,207.9 			"/>
		</g>
		<g>
			<polygon style="fill:#E6E6E6;2" points="161.5,214.9 162.8,215.6 162.8,214.2 161.5,213.4 			"/>
			<g>
				<polygon style="fill:#E6E6E6;3" points="161.5,214.1 161.5,213.5 162,215.2 161.7,215.1 				"/>
				<polygon style="fill:#E6E6E6;3" points="162.7,215.6 162.4,215.4 161.9,213.6 162.1,213.8 				"/>
			</g>
			<polygon style="fill:#B3B3B3;" points="161.5,213.4 162.8,214.2 162.8,213.9 161.5,213.1 			"/>
			<polygon style="fill:#CCCCCC;" points="161.1,212.9 163.1,214.1 163.1,213.8 161.1,212.6 			"/>
			<polygon style="fill:#B3B3B3;" points="161.5,215.2 162.8,215.9 162.8,215.6 161.5,214.9 			"/>
			<polygon style="fill:#B3B3B3;" points="163,216.1 163,214 162.8,213.9 162.8,215.9 			"/>
			<polygon style="fill:#B3B3B3;" points="161.5,215.2 161.5,213.1 161.2,213 161.2,215 			"/>
		</g>
		<g>
			<polygon style="fill:#E6E6E6;2" points="158.5,213.2 159.7,213.9 159.7,212.4 158.5,211.7 			"/>
			<g>
				<polygon style="fill:#E6E6E6;3" points="158.5,212.4 158.5,211.7 159,213.5 158.7,213.3 				"/>
				<polygon style="fill:#E6E6E6;3" points="159.7,213.9 159.4,213.7 158.9,211.9 159.1,212.1 				"/>
			</g>
			<polygon style="fill:#B3B3B3;" points="158.5,211.7 159.7,212.4 159.7,212.1 158.5,211.4 			"/>
			<polygon style="fill:#CCCCCC;" points="158.1,211.2 160.1,212.4 160.1,212.1 158.1,210.9 			"/>
			<polygon style="fill:#B3B3B3;" points="158.5,213.4 159.7,214.2 159.7,213.9 158.5,213.2 			"/>
			<polygon style="fill:#B3B3B3;" points="160,214.3 160,212.3 159.7,212.1 159.7,214.2 			"/>
			<polygon style="fill:#B3B3B3;" points="158.5,213.4 158.5,211.4 158.2,211.3 158.2,213.3 			"/>
		</g>
		<g>
			<polygon style="fill:#E6E6E6;2" points="155.5,211.4 156.7,212.2 156.7,210.7 155.5,209.9 			"/>
			<g>
				<polygon style="fill:#E6E6E6;3" points="155.5,210.7 155.5,210 156,211.7 155.7,211.6 				"/>
				<polygon style="fill:#E6E6E6;3" points="156.7,212.1 156.4,212 155.9,210.2 156.1,210.3 				"/>
			</g>
			<polygon style="fill:#B3B3B3;" points="155.5,209.9 156.7,210.7 156.7,210.4 155.5,209.7 			"/>
			<polygon style="fill:#CCCCCC;" points="155.1,209.5 157.1,210.6 157.1,210.3 155.1,209.2 			"/>
			<polygon style="fill:#B3B3B3;" points="155.5,211.7 156.7,212.5 156.7,212.2 155.5,211.4 			"/>
			<polygon style="fill:#B3B3B3;" points="157,212.6 157,210.6 156.7,210.4 156.7,212.5 			"/>
			<polygon style="fill:#B3B3B3;" points="155.5,211.7 155.5,209.7 155.2,209.5 155.2,211.6 			"/>
		</g>
	</g>
</g>
<g>
	<polygon style="fill:#FFFFFF;" points="209.4,213.4 220.6,219.9 231.9,213.4 220.6,206.9 	"/>
	<g>
		<polygon style="fill:#E6E6E6;" points="220.6,251.2 231.9,244.7 231.9,213.4 220.6,219.9 		"/>
		<g>
			<polygon style="fill:#E6E6E6;2" points="229.1,220.1 230.6,219.2 230.6,217.4 229.1,218.3 			"/>
			<g>
				<polygon style="fill:#E6E6E6;3" points="229.1,219.2 229.1,218.4 229.7,219.7 229.4,219.9 				"/>
				<polygon style="fill:#E6E6E6;3" points="230.5,219.3 230.2,219.4 229.6,218 229.9,217.9 				"/>
			</g>
			<polygon style="fill:#B3B3B3;" points="229.1,218.3 230.6,217.4 230.6,217.1 229.1,218 			"/>
			<polygon style="fill:#CCCCCC;" points="228.6,218.2 231.1,216.8 231.1,216.5 228.6,217.9 			"/>
			<polygon style="fill:#B3B3B3;" points="229.1,220.4 230.6,219.5 230.6,219.2 229.1,220.1 			"/>
			<polygon style="fill:#B3B3B3;" points="230.9,219.4 230.9,216.9 230.6,217.1 230.6,219.5 			"/>
			<polygon style="fill:#B3B3B3;" points="229.1,220.4 229.1,218 228.8,218.1 228.8,220.6 			"/>
		</g>
		<g>
			<polygon style="fill:#E6E6E6;2" points="225.5,222.2 227,221.3 227,219.5 225.5,220.4 			"/>
			<g>
				<polygon style="fill:#E6E6E6;3" points="225.5,221.3 225.5,220.4 226.1,221.8 225.8,222 				"/>
				<polygon style="fill:#E6E6E6;3" points="226.9,221.3 226.6,221.5 225.9,220.1 226.2,219.9 				"/>
			</g>
			<polygon style="fill:#B3B3B3;" points="225.5,220.4 227,219.5 227,219.2 225.5,220.1 			"/>
			<polygon style="fill:#CCCCCC;" points="225,220.3 227.5,218.9 227.5,218.6 225,220 			"/>
			<polygon style="fill:#B3B3B3;" points="225.5,222.5 227,221.6 227,221.3 225.5,222.2 			"/>
			<polygon style="fill:#B3B3B3;" points="227.3,221.5 227.3,219 227,219.2 227,221.6 			"/>
			<polygon style="fill:#B3B3B3;" points="225.5,222.5 225.5,220.1 225.2,220.2 225.2,222.7 			"/>
		</g>
		<g>
			<polygon style="fill:#E6E6E6;2" points="221.8,224.3 223.4,223.4 223.4,221.6 221.8,222.5 			"/>
			<g>
				<polygon style="fill:#E6E6E6;3" points="221.8,223.4 221.8,222.5 222.5,223.9 222.2,224.1 				"/>
				<polygon style="fill:#E6E6E6;3" points="223.3,223.4 223,223.6 222.3,222.2 222.6,222 				"/>
			</g>
			<polygon style="fill:#B3B3B3;" points="221.8,222.5 223.4,221.6 223.4,221.3 221.8,222.1 			"/>
			<polygon style="fill:#CCCCCC;" points="221.4,222.4 223.8,221 223.8,220.7 221.4,222.1 			"/>
			<polygon style="fill:#B3B3B3;" points="221.8,224.6 223.4,223.7 223.4,223.4 221.8,224.3 			"/>
			<polygon style="fill:#B3B3B3;" points="223.7,223.5 223.7,221.1 223.4,221.3 223.4,223.7 			"/>
			<polygon style="fill:#B3B3B3;" points="221.8,224.6 221.8,222.1 221.5,222.3 221.5,224.8 			"/>
		</g>
		<g>
			<polygon style="fill:#E6E6E6;2" points="229.1,224.5 230.6,223.6 230.6,221.8 229.1,222.7 			"/>
			<g>
				<polygon style="fill:#E6E6E6;3" points="229.1,223.6 229.1,222.8 229.7,224.1 229.4,224.3 				"/>
				<polygon style="fill:#E6E6E6;3" points="230.5,223.7 230.2,223.8 229.6,222.4 229.9,222.3 				"/>
			</g>
			<polygon style="fill:#B3B3B3;" points="229.1,222.7 230.6,221.8 230.6,221.5 229.1,222.4 			"/>
			<polygon style="fill:#CCCCCC;" points="228.6,222.6 231.1,221.2 231.1,220.9 228.6,222.3 			"/>
			<polygon style="fill:#B3B3B3;" points="229.1,224.8 230.6,224 230.6,223.6 229.1,224.5 			"/>
			<polygon style="fill:#B3B3B3;" points="230.9,223.8 230.9,221.3 230.6,221.5 230.6,224 			"/>
			<polygon style="fill:#B3B3B3;" points="229.1,224.8 229.1,222.4 228.8,222.6 228.8,225 			"/>
		</g>
		<g>
			<polygon style="fill:#E6E6E6;2" points="225.5,226.6 227,225.7 227,223.9 225.5,224.8 			"/>
			<g>
				<polygon style="fill:#E6E6E6;3" points="225.5,225.7 225.5,224.9 226.1,226.2 225.8,226.4 				"/>
				<polygon style="fill:#E6E6E6;3" points="226.9,225.8 226.6,225.9 225.9,224.5 226.2,224.4 				"/>
			</g>
			<polygon style="fill:#B3B3B3;" points="225.5,224.8 227,223.9 227,223.6 225.5,224.5 			"/>
			<polygon style="fill:#CCCCCC;" points="225,224.7 227.5,223.3 227.5,223 225,224.4 			"/>
			<polygon style="fill:#B3B3B3;" points="225.5,226.9 227,226 227,225.7 225.5,226.6 			"/>
			<polygon style="fill:#B3B3B3;" points="227.3,225.9 227.3,223.4 227,223.6 227,226 			"/>
			<polygon style="fill:#B3B3B3;" points="225.5,226.9 225.5,224.5 225.2,224.6 225.2,227.1 			"/>
		</g>
		<g>
			<polygon style="fill:#E6E6E6;2" points="221.8,228.7 223.4,227.8 223.4,226 221.8,226.9 			"/>
			<g>
				<polygon style="fill:#E6E6E6;3" points="221.8,227.8 221.8,227 222.5,228.3 222.2,228.5 				"/>
				<polygon style="fill:#E6E6E6;3" points="223.3,227.8 223,228 222.3,226.6 222.6,226.4 				"/>
			</g>
			<polygon style="fill:#B3B3B3;" points="221.8,226.9 223.4,226 223.4,225.7 221.8,226.6 			"/>
			<polygon style="fill:#CCCCCC;" points="221.4,226.8 223.8,225.4 223.8,225.1 221.4,226.5 			"/>
			<polygon style="fill:#B3B3B3;" points="221.8,229 223.4,228.1 223.4,227.8 221.8,228.7 			"/>
			<polygon style="fill:#B3B3B3;" points="223.7,228 223.7,225.5 223.4,225.7 223.4,228.1 			"/>
			<polygon style="fill:#B3B3B3;" points="221.8,229 221.8,226.6 221.5,226.7 221.5,229.2 			"/>
		</g>
		<g>
			<polygon style="fill:#E6E6E6;2" points="229.1,228.9 230.6,228 230.6,226.2 229.1,227.1 			"/>
			<g>
				<polygon style="fill:#E6E6E6;3" points="229.1,228 229.1,227.2 229.7,228.6 229.4,228.7 				"/>
				<polygon style="fill:#E6E6E6;3" points="230.5,228.1 230.2,228.3 229.6,226.9 229.9,226.7 				"/>
			</g>
			<polygon style="fill:#B3B3B3;" points="229.1,227.1 230.6,226.2 230.6,225.9 229.1,226.8 			"/>
			<polygon style="fill:#CCCCCC;" points="228.6,227.1 231.1,225.6 231.1,225.3 228.6,226.7 			"/>
			<polygon style="fill:#B3B3B3;" points="229.1,229.3 230.6,228.4 230.6,228 229.1,228.9 			"/>
			<polygon style="fill:#B3B3B3;" points="230.9,228.2 230.9,225.7 230.6,225.9 230.6,228.4 			"/>
			<polygon style="fill:#B3B3B3;" points="229.1,229.3 229.1,226.8 228.8,227 228.8,229.4 			"/>
		</g>
		<g>
			<polygon style="fill:#E6E6E6;2" points="225.5,231 227,230.1 227,228.3 225.5,229.2 			"/>
			<g>
				<polygon style="fill:#E6E6E6;3" points="225.5,230.1 225.5,229.3 226.1,230.6 225.8,230.8 				"/>
				<polygon style="fill:#E6E6E6;3" points="226.9,230.2 226.6,230.4 225.9,228.9 226.2,228.8 				"/>
			</g>
			<polygon style="fill:#B3B3B3;" points="225.5,229.2 227,228.3 227,228 225.5,228.9 			"/>
			<polygon style="fill:#CCCCCC;" points="225,229.1 227.5,227.7 227.5,227.4 225,228.8 			"/>
			<polygon style="fill:#B3B3B3;" points="225.5,231.3 227,230.5 227,230.1 225.5,231 			"/>
			<polygon style="fill:#B3B3B3;" points="227.3,230.3 227.3,227.8 227,228 227,230.5 			"/>
			<polygon style="fill:#B3B3B3;" points="225.5,231.3 225.5,228.9 225.2,229.1 225.2,231.5 			"/>
		</g>
		<g>
			<polygon style="fill:#E6E6E6;2" points="221.8,233.1 223.4,232.2 223.4,230.4 221.8,231.3 			"/>
			<g>
				<polygon style="fill:#E6E6E6;3" points="221.8,232.2 221.8,231.4 222.5,232.7 222.2,232.9 				"/>
				<polygon style="fill:#E6E6E6;3" points="223.3,232.3 223,232.4 222.3,231 222.6,230.9 				"/>
			</g>
			<polygon style="fill:#B3B3B3;" points="221.8,231.3 223.4,230.4 223.4,230.1 221.8,231 			"/>
			<polygon style="fill:#CCCCCC;" points="221.4,231.2 223.8,229.8 223.8,229.5 221.4,230.9 			"/>
			<polygon style="fill:#B3B3B3;" points="221.8,233.4 223.4,232.5 223.4,232.2 221.8,233.1 			"/>
			<polygon style="fill:#B3B3B3;" points="223.7,232.4 223.7,229.9 223.4,230.1 223.4,232.5 			"/>
			<polygon style="fill:#B3B3B3;" points="221.8,233.4 221.8,231 221.5,231.1 221.5,233.6 			"/>
		</g>
		<g>
			<polygon style="fill:#E6E6E6;2" points="229.1,233.3 230.6,232.4 230.6,230.7 229.1,231.6 			"/>
			<g>
				<polygon style="fill:#E6E6E6;3" points="229.1,232.4 229.1,231.6 229.7,233 229.4,233.1 				"/>
				<polygon style="fill:#E6E6E6;3" points="230.5,232.5 230.2,232.7 229.6,231.3 229.9,231.1 				"/>
			</g>
			<polygon style="fill:#B3B3B3;" points="229.1,231.6 230.6,230.7 230.6,230.3 229.1,231.2 			"/>
			<polygon style="fill:#CCCCCC;" points="228.6,231.5 231.1,230.1 231.1,229.7 228.6,231.1 			"/>
			<polygon style="fill:#B3B3B3;" points="229.1,233.7 230.6,232.8 230.6,232.4 229.1,233.3 			"/>
			<polygon style="fill:#B3B3B3;" points="230.9,232.6 230.9,230.2 230.6,230.3 230.6,232.8 			"/>
			<polygon style="fill:#B3B3B3;" points="229.1,233.7 229.1,231.2 228.8,231.4 228.8,233.8 			"/>
		</g>
		<g>
			<polygon style="fill:#E6E6E6;2" points="225.5,235.4 227,234.5 227,232.7 225.5,233.6 			"/>
			<g>
				<polygon style="fill:#E6E6E6;3" points="225.5,234.5 225.5,233.7 226.1,235.1 225.8,235.2 				"/>
				<polygon style="fill:#E6E6E6;3" points="226.9,234.6 226.6,234.8 225.9,233.4 226.2,233.2 				"/>
			</g>
			<polygon style="fill:#B3B3B3;" points="225.5,233.6 227,232.7 227,232.4 225.5,233.3 			"/>
			<polygon style="fill:#CCCCCC;" points="225,233.6 227.5,232.1 227.5,231.8 225,233.2 			"/>
			<polygon style="fill:#B3B3B3;" points="225.5,235.8 227,234.9 227,234.5 225.5,235.4 			"/>
			<polygon style="fill:#B3B3B3;" points="227.3,234.7 227.3,232.2 227,232.4 227,234.9 			"/>
			<polygon style="fill:#B3B3B3;" points="225.5,235.8 225.5,233.3 225.2,233.5 225.2,235.9 			"/>
		</g>
		<g>
			<polygon style="fill:#E6E6E6;2" points="221.8,237.5 223.4,236.6 223.4,234.8 221.8,235.7 			"/>
			<g>
				<polygon style="fill:#E6E6E6;3" points="221.8,236.6 221.8,235.8 222.5,237.1 222.2,237.3 				"/>
				<polygon style="fill:#E6E6E6;3" points="223.3,236.7 223,236.9 222.3,235.5 222.6,235.3 				"/>
			</g>
			<polygon style="fill:#B3B3B3;" points="221.8,235.7 223.4,234.8 223.4,234.5 221.8,235.4 			"/>
			<polygon style="fill:#CCCCCC;" points="221.4,235.7 223.8,234.2 223.8,233.9 221.4,235.3 			"/>
			<polygon style="fill:#B3B3B3;" points="221.8,237.9 223.4,237 223.4,236.6 221.8,237.5 			"/>
			<polygon style="fill:#B3B3B3;" points="223.7,236.8 223.7,234.3 223.4,234.5 223.4,237 			"/>
			<polygon style="fill:#B3B3B3;" points="221.8,237.9 221.8,235.4 221.5,235.6 221.5,238 			"/>
		</g>
		<g>
			<polygon style="fill:#E6E6E6;2" points="229.1,237.8 230.6,236.9 230.6,235.1 229.1,236 			"/>
			<g>
				<polygon style="fill:#E6E6E6;3" points="229.1,236.8 229.1,236 229.7,237.4 229.4,237.6 				"/>
				<polygon style="fill:#E6E6E6;3" points="230.5,236.9 230.2,237.1 229.6,235.7 229.9,235.5 				"/>
			</g>
			<polygon style="fill:#B3B3B3;" points="229.1,236 230.6,235.1 230.6,234.7 229.1,235.6 			"/>
			<polygon style="fill:#CCCCCC;" points="228.6,235.9 231.1,234.5 231.1,234.1 228.6,235.6 			"/>
			<polygon style="fill:#B3B3B3;" points="229.1,238.1 230.6,237.2 230.6,236.9 229.1,237.8 			"/>
			<polygon style="fill:#B3B3B3;" points="230.9,237 230.9,234.6 230.6,234.7 230.6,237.2 			"/>
			<polygon style="fill:#B3B3B3;" points="229.1,238.1 229.1,235.6 228.8,235.8 228.8,238.3 			"/>
		</g>
		<g>
			<polygon style="fill:#E6E6E6;2" points="225.5,239.8 227,238.9 227,237.2 225.5,238.1 			"/>
			<g>
				<polygon style="fill:#E6E6E6;3" points="225.5,238.9 225.5,238.1 226.1,239.5 225.8,239.6 				"/>
				<polygon style="fill:#E6E6E6;3" points="226.9,239 226.6,239.2 225.9,237.8 226.2,237.6 				"/>
			</g>
			<polygon style="fill:#B3B3B3;" points="225.5,238.1 227,237.2 227,236.8 225.5,237.7 			"/>
			<polygon style="fill:#CCCCCC;" points="225,238 227.5,236.6 227.5,236.2 225,237.6 			"/>
			<polygon style="fill:#B3B3B3;" points="225.5,240.2 227,239.3 227,238.9 225.5,239.8 			"/>
			<polygon style="fill:#B3B3B3;" points="227.3,239.1 227.3,236.7 227,236.8 227,239.3 			"/>
			<polygon style="fill:#B3B3B3;" points="225.5,240.2 225.5,237.7 225.2,237.9 225.2,240.3 			"/>
		</g>
		<g>
			<polygon style="fill:#E6E6E6;2" points="221.8,241.9 223.4,241 223.4,239.2 221.8,240.1 			"/>
			<g>
				<polygon style="fill:#E6E6E6;3" points="221.8,241 221.8,240.2 222.5,241.6 222.2,241.7 				"/>
				<polygon style="fill:#E6E6E6;3" points="223.3,241.1 223,241.3 222.3,239.9 222.6,239.7 				"/>
			</g>
			<polygon style="fill:#B3B3B3;" points="221.8,240.1 223.4,239.2 223.4,238.9 221.8,239.8 			"/>
			<polygon style="fill:#CCCCCC;" points="221.4,240.1 223.8,238.6 223.8,238.3 221.4,239.7 			"/>
			<polygon style="fill:#B3B3B3;" points="221.8,242.3 223.4,241.4 223.4,241 221.8,241.9 			"/>
			<polygon style="fill:#B3B3B3;" points="223.7,241.2 223.7,238.7 223.4,238.9 223.4,241.4 			"/>
			<polygon style="fill:#B3B3B3;" points="221.8,242.3 221.8,239.8 221.5,240 221.5,242.4 			"/>
		</g>
		<g>
			<polygon style="fill:#E6E6E6;2" points="229.1,242.2 230.6,241.3 230.6,239.5 229.1,240.4 			"/>
			<g>
				<polygon style="fill:#E6E6E6;3" points="229.1,241.3 229.1,240.4 229.7,241.8 229.4,242 				"/>
				<polygon style="fill:#E6E6E6;3" points="230.5,241.3 230.2,241.5 229.6,240.1 229.9,239.9 				"/>
			</g>
			<polygon style="fill:#B3B3B3;" points="229.1,240.4 230.6,239.5 230.6,239.1 229.1,240 			"/>
			<polygon style="fill:#CCCCCC;" points="228.6,240.3 231.1,238.9 231.1,238.5 228.6,240 			"/>
			<polygon style="fill:#B3B3B3;" points="229.1,242.5 230.6,241.6 230.6,241.3 229.1,242.2 			"/>
			<polygon style="fill:#B3B3B3;" points="230.9,241.4 230.9,239 230.6,239.1 230.6,241.6 			"/>
			<polygon style="fill:#B3B3B3;" points="229.1,242.5 229.1,240 228.8,240.2 228.8,242.7 			"/>
		</g>
		<g>
			<polygon style="fill:#E6E6E6;2" points="225.5,244.3 227,243.4 227,241.6 225.5,242.5 			"/>
			<g>
				<polygon style="fill:#E6E6E6;3" points="225.5,243.3 225.5,242.5 226.1,243.9 225.8,244.1 				"/>
				<polygon style="fill:#E6E6E6;3" points="226.9,243.4 226.6,243.6 225.9,242.2 226.2,242 				"/>
			</g>
			<polygon style="fill:#B3B3B3;" points="225.5,242.5 227,241.6 227,241.2 225.5,242.1 			"/>
			<polygon style="fill:#CCCCCC;" points="225,242.4 227.5,241 227.5,240.6 225,242.1 			"/>
			<polygon style="fill:#B3B3B3;" points="225.5,244.6 227,243.7 227,243.4 225.5,244.3 			"/>
			<polygon style="fill:#B3B3B3;" points="227.3,243.5 227.3,241.1 227,241.2 227,243.7 			"/>
			<polygon style="fill:#B3B3B3;" points="225.5,244.6 225.5,242.1 225.2,242.3 225.2,244.8 			"/>
		</g>
		<g>
			<polygon style="fill:#E6E6E6;2" points="221.8,246.3 223.4,245.4 223.4,243.7 221.8,244.6 			"/>
			<g>
				<polygon style="fill:#E6E6E6;3" points="221.8,245.4 221.8,244.6 222.5,246 222.2,246.1 				"/>
				<polygon style="fill:#E6E6E6;3" points="223.3,245.5 223,245.7 222.3,244.3 222.6,244.1 				"/>
			</g>
			<polygon style="fill:#B3B3B3;" points="221.8,244.6 223.4,243.7 223.4,243.3 221.8,244.2 			"/>
			<polygon style="fill:#CCCCCC;" points="221.4,244.5 223.8,243.1 223.8,242.7 221.4,244.1 			"/>
			<polygon style="fill:#B3B3B3;" points="221.8,246.7 223.4,245.8 223.4,245.4 221.8,246.3 			"/>
			<polygon style="fill:#B3B3B3;" points="223.7,245.6 223.7,243.2 223.4,243.3 223.4,245.8 			"/>
			<polygon style="fill:#B3B3B3;" points="221.8,246.7 221.8,244.2 221.5,244.4 221.5,246.8 			"/>
		</g>
	</g>
	<g>
		<polygon style="fill:#CCCCCC;" points="209.4,244.7 220.6,251.2 220.6,219.9 209.4,213.4 		"/>
		<g>
			<polygon style="fill:#E6E6E6;2" points="217.8,223.4 219.4,224.3 219.4,222.5 217.8,221.6 			"/>
			<g>
				<polygon style="fill:#E6E6E6;3" points="217.8,222.5 217.8,221.6 218.5,223.8 218.2,223.6 				"/>
				<polygon style="fill:#E6E6E6;3" points="219.3,224.2 219,224 218.3,221.9 218.6,222 				"/>
			</g>
			<polygon style="fill:#B3B3B3;" points="217.8,221.6 219.4,222.5 219.4,222.1 217.8,221.3 			"/>
			<polygon style="fill:#CCCCCC;" points="217.4,221 219.8,222.4 219.8,222.1 217.4,220.7 			"/>
			<polygon style="fill:#B3B3B3;" points="217.8,223.7 219.4,224.6 219.4,224.3 217.8,223.4 			"/>
			<polygon style="fill:#B3B3B3;" points="219.7,224.8 219.7,222.3 219.4,222.1 219.4,224.6 			"/>
			<polygon style="fill:#B3B3B3;" points="217.8,223.7 217.8,221.3 217.5,221.1 217.5,223.5 			"/>
		</g>
		<g>
			<polygon style="fill:#E6E6E6;2" points="214.2,221.3 215.8,222.2 215.8,220.4 214.2,219.5 			"/>
			<g>
				<polygon style="fill:#E6E6E6;3" points="214.2,220.4 214.2,219.6 214.9,221.7 214.6,221.5 				"/>
				<polygon style="fill:#E6E6E6;3" points="215.7,222.1 215.4,222 214.7,219.8 215,220 				"/>
			</g>
			<polygon style="fill:#B3B3B3;" points="214.2,219.5 215.8,220.4 215.8,220.1 214.2,219.2 			"/>
			<polygon style="fill:#CCCCCC;" points="213.8,218.9 216.2,220.3 216.2,220 213.8,218.6 			"/>
			<polygon style="fill:#B3B3B3;" points="214.2,221.6 215.8,222.5 215.8,222.2 214.2,221.3 			"/>
			<polygon style="fill:#B3B3B3;" points="216.1,222.7 216.1,220.2 215.8,220.1 215.8,222.5 			"/>
			<polygon style="fill:#B3B3B3;" points="214.2,221.6 214.2,219.2 213.9,219 213.9,221.5 			"/>
		</g>
		<g>
			<polygon style="fill:#E6E6E6;2" points="210.6,219.2 212.1,220.1 212.1,218.3 210.6,217.4 			"/>
			<g>
				<polygon style="fill:#E6E6E6;3" points="210.6,218.3 210.6,217.5 211.2,219.6 210.9,219.4 				"/>
				<polygon style="fill:#E6E6E6;3" points="212,220 211.7,219.9 211.1,217.7 211.4,217.9 				"/>
			</g>
			<polygon style="fill:#B3B3B3;" points="210.6,217.4 212.1,218.3 212.1,218 210.6,217.1 			"/>
			<polygon style="fill:#CCCCCC;" points="210.1,216.8 212.6,218.2 212.6,217.9 210.1,216.5 			"/>
			<polygon style="fill:#B3B3B3;" points="210.6,219.5 212.1,220.4 212.1,220.1 210.6,219.2 			"/>
			<polygon style="fill:#B3B3B3;" points="212.4,220.6 212.4,218.1 212.1,218 212.1,220.4 			"/>
			<polygon style="fill:#B3B3B3;" points="210.6,219.5 210.6,217.1 210.3,216.9 210.3,219.4 			"/>
		</g>
		<g>
			<polygon style="fill:#E6E6E6;2" points="217.8,227.8 219.4,228.7 219.4,226.9 217.8,226 			"/>
			<g>
				<polygon style="fill:#E6E6E6;3" points="217.8,226.9 217.8,226.1 218.5,228.2 218.2,228 				"/>
				<polygon style="fill:#E6E6E6;3" points="219.3,228.6 219,228.5 218.3,226.3 218.6,226.5 				"/>
			</g>
			<polygon style="fill:#B3B3B3;" points="217.8,226 219.4,226.9 219.4,226.6 217.8,225.7 			"/>
			<polygon style="fill:#CCCCCC;" points="217.4,225.4 219.8,226.8 219.8,226.5 217.4,225.1 			"/>
			<polygon style="fill:#B3B3B3;" points="217.8,228.1 219.4,229 219.4,228.7 217.8,227.8 			"/>
			<polygon style="fill:#B3B3B3;" points="219.7,229.2 219.7,226.7 219.4,226.6 219.4,229 			"/>
			<polygon style="fill:#B3B3B3;" points="217.8,228.1 217.8,225.7 217.5,225.5 217.5,228 			"/>
		</g>
		<g>
			<polygon style="fill:#E6E6E6;2" points="214.2,225.7 215.8,226.6 215.8,224.8 214.2,223.9 			"/>
			<g>
				<polygon style="fill:#E6E6E6;3" points="214.2,224.8 214.2,224 214.9,226.1 214.6,225.9 				"/>
				<polygon style="fill:#E6E6E6;3" points="215.7,226.5 215.4,226.4 214.7,224.2 215,224.4 				"/>
			</g>
			<polygon style="fill:#B3B3B3;" points="214.2,223.9 215.8,224.8 215.8,224.5 214.2,223.6 			"/>
			<polygon style="fill:#CCCCCC;" points="213.8,223.3 216.2,224.7 216.2,224.4 213.8,223 			"/>
			<polygon style="fill:#B3B3B3;" points="214.2,226 215.8,226.9 215.8,226.6 214.2,225.7 			"/>
			<polygon style="fill:#B3B3B3;" points="216.1,227.1 216.1,224.6 215.8,224.5 215.8,226.9 			"/>
			<polygon style="fill:#B3B3B3;" points="214.2,226 214.2,223.6 213.9,223.4 213.9,225.9 			"/>
		</g>
		<g>
			<polygon style="fill:#E6E6E6;2" points="210.6,223.6 212.1,224.5 212.1,222.7 210.6,221.8 			"/>
			<g>
				<polygon style="fill:#E6E6E6;3" points="210.6,222.7 210.6,221.9 211.2,224 210.9,223.8 				"/>
				<polygon style="fill:#E6E6E6;3" points="212,224.5 211.7,224.3 211.1,222.1 211.4,222.3 				"/>
			</g>
			<polygon style="fill:#B3B3B3;" points="210.6,221.8 212.1,222.7 212.1,222.4 210.6,221.5 			"/>
			<polygon style="fill:#CCCCCC;" points="210.1,221.2 212.6,222.6 212.6,222.3 210.1,220.9 			"/>
			<polygon style="fill:#B3B3B3;" points="210.6,224 212.1,224.8 212.1,224.5 210.6,223.6 			"/>
			<polygon style="fill:#B3B3B3;" points="212.4,225 212.4,222.6 212.1,222.4 212.1,224.8 			"/>
			<polygon style="fill:#B3B3B3;" points="210.6,224 210.6,221.5 210.3,221.3 210.3,223.8 			"/>
		</g>
		<g>
			<polygon style="fill:#E6E6E6;2" points="217.8,232.2 219.4,233.1 219.4,231.3 217.8,230.4 			"/>
			<g>
				<polygon style="fill:#E6E6E6;3" points="217.8,231.3 217.8,230.5 218.5,232.6 218.2,232.4 				"/>
				<polygon style="fill:#E6E6E6;3" points="219.3,233 219,232.9 218.3,230.7 218.6,230.9 				"/>
			</g>
			<polygon style="fill:#B3B3B3;" points="217.8,230.4 219.4,231.3 219.4,231 217.8,230.1 			"/>
			<polygon style="fill:#CCCCCC;" points="217.4,229.8 219.8,231.2 219.8,230.9 217.4,229.5 			"/>
			<polygon style="fill:#B3B3B3;" points="217.8,232.5 219.4,233.4 219.4,233.1 217.8,232.2 			"/>
			<polygon style="fill:#B3B3B3;" points="219.7,233.6 219.7,231.1 219.4,231 219.4,233.4 			"/>
			<polygon style="fill:#B3B3B3;" points="217.8,232.5 217.8,230.1 217.5,229.9 217.5,232.4 			"/>
		</g>
		<g>
			<polygon style="fill:#E6E6E6;2" points="214.2,230.1 215.8,231 215.8,229.2 214.2,228.3 			"/>
			<g>
				<polygon style="fill:#E6E6E6;3" points="214.2,229.2 214.2,228.4 214.9,230.5 214.6,230.3 				"/>
				<polygon style="fill:#E6E6E6;3" points="215.7,231 215.4,230.8 214.7,228.6 215,228.8 				"/>
			</g>
			<polygon style="fill:#B3B3B3;" points="214.2,228.3 215.8,229.2 215.8,228.9 214.2,228 			"/>
			<polygon style="fill:#CCCCCC;" points="213.8,227.7 216.2,229.1 216.2,228.8 213.8,227.4 			"/>
			<polygon style="fill:#B3B3B3;" points="214.2,230.5 215.8,231.3 215.8,231 214.2,230.1 			"/>
			<polygon style="fill:#B3B3B3;" points="216.1,231.5 216.1,229.1 215.8,228.9 215.8,231.3 			"/>
			<polygon style="fill:#B3B3B3;" points="214.2,230.5 214.2,228 213.9,227.8 213.9,230.3 			"/>
		</g>
		<g>
			<polygon style="fill:#E6E6E6;2" points="210.6,228 212.1,228.9 212.1,227.1 210.6,226.2 			"/>
			<g>
				<polygon style="fill:#E6E6E6;3" points="210.6,227.1 210.6,226.3 211.2,228.4 210.9,228.2 				"/>
				<polygon style="fill:#E6E6E6;3" points="212,228.9 211.7,228.7 211.1,226.5 211.4,226.7 				"/>
			</g>
			<polygon style="fill:#B3B3B3;" points="210.6,226.2 212.1,227.1 212.1,226.8 210.6,225.9 			"/>
			<polygon style="fill:#CCCCCC;" points="210.1,225.6 212.6,227.1 212.6,226.7 210.1,225.3 			"/>
			<polygon style="fill:#B3B3B3;" points="210.6,228.4 212.1,229.3 212.1,228.9 210.6,228 			"/>
			<polygon style="fill:#B3B3B3;" points="212.4,229.4 212.4,227 212.1,226.8 212.1,229.3 			"/>
			<polygon style="fill:#B3B3B3;" points="210.6,228.4 210.6,225.9 210.3,225.7 210.3,228.2 			"/>
		</g>
		<g>
			<polygon style="fill:#E6E6E6;2" points="217.8,236.6 219.4,237.5 219.4,235.7 217.8,234.8 			"/>
			<g>
				<polygon style="fill:#E6E6E6;3" points="217.8,235.7 217.8,234.9 218.5,237 218.2,236.8 				"/>
				<polygon style="fill:#E6E6E6;3" points="219.3,237.5 219,237.3 218.3,235.1 218.6,235.3 				"/>
			</g>
			<polygon style="fill:#B3B3B3;" points="217.8,234.8 219.4,235.7 219.4,235.4 217.8,234.5 			"/>
			<polygon style="fill:#CCCCCC;" points="217.4,234.2 219.8,235.7 219.8,235.3 217.4,233.9 			"/>
			<polygon style="fill:#B3B3B3;" points="217.8,237 219.4,237.9 219.4,237.5 217.8,236.6 			"/>
			<polygon style="fill:#B3B3B3;" points="219.7,238 219.7,235.6 219.4,235.4 219.4,237.9 			"/>
			<polygon style="fill:#B3B3B3;" points="217.8,237 217.8,234.5 217.5,234.3 217.5,236.8 			"/>
		</g>
		<g>
			<polygon style="fill:#E6E6E6;2" points="214.2,234.5 215.8,235.4 215.8,233.6 214.2,232.7 			"/>
			<g>
				<polygon style="fill:#E6E6E6;3" points="214.2,233.6 214.2,232.8 214.9,234.9 214.6,234.7 				"/>
				<polygon style="fill:#E6E6E6;3" points="215.7,235.4 215.4,235.2 214.7,233 215,233.2 				"/>
			</g>
			<polygon style="fill:#B3B3B3;" points="214.2,232.7 215.8,233.6 215.8,233.3 214.2,232.4 			"/>
			<polygon style="fill:#CCCCCC;" points="213.8,232.1 216.2,233.6 216.2,233.2 213.8,231.8 			"/>
			<polygon style="fill:#B3B3B3;" points="214.2,234.9 215.8,235.8 215.8,235.4 214.2,234.5 			"/>
			<polygon style="fill:#B3B3B3;" points="216.1,235.9 216.1,233.5 215.8,233.3 215.8,235.8 			"/>
			<polygon style="fill:#B3B3B3;" points="214.2,234.9 214.2,232.4 213.9,232.2 213.9,234.7 			"/>
		</g>
		<g>
			<polygon style="fill:#E6E6E6;2" points="210.6,232.4 212.1,233.3 212.1,231.6 210.6,230.7 			"/>
			<g>
				<polygon style="fill:#E6E6E6;3" points="210.6,231.5 210.6,230.7 211.2,232.8 210.9,232.6 				"/>
				<polygon style="fill:#E6E6E6;3" points="212,233.3 211.7,233.1 211.1,230.9 211.4,231.1 				"/>
			</g>
			<polygon style="fill:#B3B3B3;" points="210.6,230.7 212.1,231.6 212.1,231.2 210.6,230.3 			"/>
			<polygon style="fill:#CCCCCC;" points="210.1,230.1 212.6,231.5 212.6,231.1 210.1,229.7 			"/>
			<polygon style="fill:#B3B3B3;" points="210.6,232.8 212.1,233.7 212.1,233.3 210.6,232.4 			"/>
			<polygon style="fill:#B3B3B3;" points="212.4,233.8 212.4,231.4 212.1,231.2 212.1,233.7 			"/>
			<polygon style="fill:#B3B3B3;" points="210.6,232.8 210.6,230.3 210.3,230.2 210.3,232.6 			"/>
		</g>
		<g>
			<polygon style="fill:#E6E6E6;2" points="217.8,241 219.4,241.9 219.4,240.1 217.8,239.2 			"/>
			<g>
				<polygon style="fill:#E6E6E6;3" points="217.8,240.1 217.8,239.3 218.5,241.4 218.2,241.2 				"/>
				<polygon style="fill:#E6E6E6;3" points="219.3,241.9 219,241.7 218.3,239.5 218.6,239.7 				"/>
			</g>
			<polygon style="fill:#B3B3B3;" points="217.8,239.2 219.4,240.1 219.4,239.8 217.8,238.9 			"/>
			<polygon style="fill:#CCCCCC;" points="217.4,238.6 219.8,240.1 219.8,239.7 217.4,238.3 			"/>
			<polygon style="fill:#B3B3B3;" points="217.8,241.4 219.4,242.3 219.4,241.9 217.8,241 			"/>
			<polygon style="fill:#B3B3B3;" points="219.7,242.4 219.7,240 219.4,239.8 219.4,242.3 			"/>
			<polygon style="fill:#B3B3B3;" points="217.8,241.4 217.8,238.9 217.5,238.7 217.5,241.2 			"/>
		</g>
		<g>
			<polygon style="fill:#E6E6E6;2" points="214.2,238.9 215.8,239.8 215.8,238.1 214.2,237.2 			"/>
			<g>
				<polygon style="fill:#E6E6E6;3" points="214.2,238 214.2,237.2 214.9,239.3 214.6,239.1 				"/>
				<polygon style="fill:#E6E6E6;3" points="215.7,239.8 215.4,239.6 214.7,237.4 215,237.6 				"/>
			</g>
			<polygon style="fill:#B3B3B3;" points="214.2,237.2 215.8,238.1 215.8,237.7 214.2,236.8 			"/>
			<polygon style="fill:#CCCCCC;" points="213.8,236.6 216.2,238 216.2,237.6 213.8,236.2 			"/>
			<polygon style="fill:#B3B3B3;" points="214.2,239.3 215.8,240.2 215.8,239.8 214.2,238.9 			"/>
			<polygon style="fill:#B3B3B3;" points="216.1,240.3 216.1,237.9 215.8,237.7 215.8,240.2 			"/>
			<polygon style="fill:#B3B3B3;" points="214.2,239.3 214.2,236.8 213.9,236.7 213.9,239.1 			"/>
		</g>
		<g>
			<polygon style="fill:#E6E6E6;2" points="210.6,236.9 212.1,237.8 212.1,236 210.6,235.1 			"/>
			<g>
				<polygon style="fill:#E6E6E6;3" points="210.6,235.9 210.6,235.1 211.2,237.2 210.9,237.1 				"/>
				<polygon style="fill:#E6E6E6;3" points="212,237.7 211.7,237.5 211.1,235.3 211.4,235.5 				"/>
			</g>
			<polygon style="fill:#B3B3B3;" points="210.6,235.1 212.1,236 212.1,235.6 210.6,234.7 			"/>
			<polygon style="fill:#CCCCCC;" points="210.1,234.5 212.6,235.9 212.6,235.6 210.1,234.1 			"/>
			<polygon style="fill:#B3B3B3;" points="210.6,237.2 212.1,238.1 212.1,237.8 210.6,236.9 			"/>
			<polygon style="fill:#B3B3B3;" points="212.4,238.3 212.4,235.8 212.1,235.6 212.1,238.1 			"/>
			<polygon style="fill:#B3B3B3;" points="210.6,237.2 210.6,234.7 210.3,234.6 210.3,237 			"/>
		</g>
		<g>
			<polygon style="fill:#E6E6E6;2" points="217.8,245.4 219.4,246.3 219.4,244.6 217.8,243.7 			"/>
			<g>
				<polygon style="fill:#E6E6E6;3" points="217.8,244.5 217.8,243.7 218.5,245.8 218.2,245.6 				"/>
				<polygon style="fill:#E6E6E6;3" points="219.3,246.3 219,246.1 218.3,243.9 218.6,244.1 				"/>
			</g>
			<polygon style="fill:#B3B3B3;" points="217.8,243.7 219.4,244.6 219.4,244.2 217.8,243.3 			"/>
			<polygon style="fill:#CCCCCC;" points="217.4,243.1 219.8,244.5 219.8,244.1 217.4,242.7 			"/>
			<polygon style="fill:#B3B3B3;" points="217.8,245.8 219.4,246.7 219.4,246.3 217.8,245.4 			"/>
			<polygon style="fill:#B3B3B3;" points="219.7,246.8 219.7,244.4 219.4,244.2 219.4,246.7 			"/>
			<polygon style="fill:#B3B3B3;" points="217.8,245.8 217.8,243.3 217.5,243.2 217.5,245.6 			"/>
		</g>
		<g>
			<polygon style="fill:#E6E6E6;2" points="214.2,243.4 215.8,244.3 215.8,242.5 214.2,241.6 			"/>
			<g>
				<polygon style="fill:#E6E6E6;3" points="214.2,242.4 214.2,241.6 214.9,243.7 214.6,243.6 				"/>
				<polygon style="fill:#E6E6E6;3" points="215.7,244.2 215.4,244 214.7,241.9 215,242 				"/>
			</g>
			<polygon style="fill:#B3B3B3;" points="214.2,241.6 215.8,242.5 215.8,242.1 214.2,241.2 			"/>
			<polygon style="fill:#CCCCCC;" points="213.8,241 216.2,242.4 216.2,242.1 213.8,240.6 			"/>
			<polygon style="fill:#B3B3B3;" points="214.2,243.7 215.8,244.6 215.8,244.3 214.2,243.4 			"/>
			<polygon style="fill:#B3B3B3;" points="216.1,244.8 216.1,242.3 215.8,242.1 215.8,244.6 			"/>
			<polygon style="fill:#B3B3B3;" points="214.2,243.7 214.2,241.2 213.9,241.1 213.9,243.5 			"/>
		</g>
		<g>
			<polygon style="fill:#E6E6E6;2" points="210.6,241.3 212.1,242.2 212.1,240.4 210.6,239.5 			"/>
			<g>
				<polygon style="fill:#E6E6E6;3" points="210.6,240.4 210.6,239.5 211.2,241.6 210.9,241.5 				"/>
				<polygon style="fill:#E6E6E6;3" points="212,242.1 211.7,241.9 211.1,239.8 211.4,239.9 				"/>
			</g>
			<polygon style="fill:#B3B3B3;" points="210.6,239.5 212.1,240.4 212.1,240 210.6,239.1 			"/>
			<polygon style="fill:#CCCCCC;" points="210.1,238.9 212.6,240.3 212.6,240 210.1,238.5 			"/>
			<polygon style="fill:#B3B3B3;" points="210.6,241.6 212.1,242.5 212.1,242.2 210.6,241.3 			"/>
			<polygon style="fill:#B3B3B3;" points="212.4,242.7 212.4,240.2 212.1,240 212.1,242.5 			"/>
			<polygon style="fill:#B3B3B3;" points="210.6,241.6 210.6,239.1 210.3,239 210.3,241.4 			"/>
		</g>
	</g>
</g>
<g>
	<polygon style="fill:#FFFFFF;" points="367.6,243.6 378.8,250.1 390.1,243.6 378.8,237.1 	"/>
	<g>
		<polygon style="fill:#E6E6E6;" points="378.8,281.4 390.1,274.9 390.1,243.6 378.8,250.1 		"/>
		<g>
			<polygon style="fill:#E6E6E6;2" points="387.3,250.3 388.8,249.4 388.8,247.6 387.3,248.5 			"/>
			<g>
				<polygon style="fill:#E6E6E6;3" points="387.3,249.4 387.3,248.6 387.9,249.9 387.6,250.1 				"/>
				<polygon style="fill:#E6E6E6;3" points="388.7,249.4 388.4,249.6 387.8,248.2 388.1,248 				"/>
			</g>
			<polygon style="fill:#B3B3B3;" points="387.3,248.5 388.8,247.6 388.8,247.3 387.3,248.2 			"/>
			<polygon style="fill:#CCCCCC;" points="386.8,248.4 389.3,247 389.3,246.7 386.8,248.1 			"/>
			<polygon style="fill:#B3B3B3;" points="387.3,250.6 388.8,249.7 388.8,249.4 387.3,250.3 			"/>
			<polygon style="fill:#B3B3B3;" points="389.1,249.6 389.1,247.1 388.8,247.3 388.8,249.7 			"/>
			<polygon style="fill:#B3B3B3;" points="387.3,250.6 387.3,248.2 387,248.3 387,250.8 			"/>
		</g>
		<g>
			<polygon style="fill:#E6E6E6;2" points="383.7,252.4 385.2,251.5 385.2,249.7 383.7,250.6 			"/>
			<g>
				<polygon style="fill:#E6E6E6;3" points="383.7,251.5 383.7,250.6 384.3,252 384,252.2 				"/>
				<polygon style="fill:#E6E6E6;3" points="385.1,251.5 384.8,251.7 384.2,250.3 384.5,250.1 				"/>
			</g>
			<polygon style="fill:#B3B3B3;" points="383.7,250.6 385.2,249.7 385.2,249.4 383.7,250.3 			"/>
			<polygon style="fill:#CCCCCC;" points="383.2,250.5 385.7,249.1 385.7,248.8 383.2,250.2 			"/>
			<polygon style="fill:#B3B3B3;" points="383.7,252.7 385.2,251.8 385.2,251.5 383.7,252.4 			"/>
			<polygon style="fill:#B3B3B3;" points="385.5,251.7 385.5,249.2 385.2,249.4 385.2,251.8 			"/>
			<polygon style="fill:#B3B3B3;" points="383.7,252.7 383.7,250.3 383.4,250.4 383.4,252.9 			"/>
		</g>
		<g>
			<polygon style="fill:#E6E6E6;2" points="380.1,254.5 381.6,253.6 381.6,251.8 380.1,252.7 			"/>
			<g>
				<polygon style="fill:#E6E6E6;3" points="380.1,253.5 380.1,252.7 380.7,254.1 380.4,254.3 				"/>
				<polygon style="fill:#E6E6E6;3" points="381.5,253.6 381.2,253.8 380.5,252.4 380.8,252.2 				"/>
			</g>
			<polygon style="fill:#B3B3B3;" points="380.1,252.7 381.6,251.8 381.6,251.4 380.1,252.3 			"/>
			<polygon style="fill:#CCCCCC;" points="379.6,252.6 382.1,251.2 382.1,250.8 379.6,252.3 			"/>
			<polygon style="fill:#B3B3B3;" points="380.1,254.8 381.6,253.9 381.6,253.6 380.1,254.5 			"/>
			<polygon style="fill:#B3B3B3;" points="381.9,253.7 381.9,251.3 381.6,251.4 381.6,253.9 			"/>
			<polygon style="fill:#B3B3B3;" points="380.1,254.8 380.1,252.3 379.8,252.5 379.8,255 			"/>
		</g>
		<g>
			<polygon style="fill:#E6E6E6;2" points="387.3,254.7 388.8,253.8 388.8,252 387.3,252.9 			"/>
			<g>
				<polygon style="fill:#E6E6E6;3" points="387.3,253.8 387.3,253 387.9,254.3 387.6,254.5 				"/>
				<polygon style="fill:#E6E6E6;3" points="388.7,253.9 388.4,254 387.8,252.6 388.1,252.5 				"/>
			</g>
			<polygon style="fill:#B3B3B3;" points="387.3,252.9 388.8,252 388.8,251.7 387.3,252.6 			"/>
			<polygon style="fill:#CCCCCC;" points="386.8,252.8 389.3,251.4 389.3,251.1 386.8,252.5 			"/>
			<polygon style="fill:#B3B3B3;" points="387.3,255 388.8,254.1 388.8,253.8 387.3,254.7 			"/>
			<polygon style="fill:#B3B3B3;" points="389.1,254 389.1,251.5 388.8,251.7 388.8,254.1 			"/>
			<polygon style="fill:#B3B3B3;" points="387.3,255 387.3,252.6 387,252.7 387,255.2 			"/>
		</g>
		<g>
			<polygon style="fill:#E6E6E6;2" points="383.7,256.8 385.2,255.9 385.2,254.1 383.7,255 			"/>
			<g>
				<polygon style="fill:#E6E6E6;3" points="383.7,255.9 383.7,255.1 384.3,256.4 384,256.6 				"/>
				<polygon style="fill:#E6E6E6;3" points="385.1,256 384.8,256.1 384.2,254.7 384.5,254.5 				"/>
			</g>
			<polygon style="fill:#B3B3B3;" points="383.7,255 385.2,254.1 385.2,253.8 383.7,254.7 			"/>
			<polygon style="fill:#CCCCCC;" points="383.2,254.9 385.7,253.5 385.7,253.2 383.2,254.6 			"/>
			<polygon style="fill:#B3B3B3;" points="383.7,257.1 385.2,256.2 385.2,255.9 383.7,256.8 			"/>
			<polygon style="fill:#B3B3B3;" points="385.5,256.1 385.5,253.6 385.2,253.8 385.2,256.2 			"/>
			<polygon style="fill:#B3B3B3;" points="383.7,257.1 383.7,254.7 383.4,254.8 383.4,257.3 			"/>
		</g>
		<g>
			<polygon style="fill:#E6E6E6;2" points="380.1,258.9 381.6,258 381.6,256.2 380.1,257.1 			"/>
			<g>
				<polygon style="fill:#E6E6E6;3" points="380.1,258 380.1,257.1 380.7,258.5 380.4,258.7 				"/>
				<polygon style="fill:#E6E6E6;3" points="381.5,258 381.2,258.2 380.5,256.8 380.8,256.6 				"/>
			</g>
			<polygon style="fill:#B3B3B3;" points="380.1,257.1 381.6,256.2 381.6,255.9 380.1,256.8 			"/>
			<polygon style="fill:#CCCCCC;" points="379.6,257 382.1,255.6 382.1,255.3 379.6,256.7 			"/>
			<polygon style="fill:#B3B3B3;" points="380.1,259.2 381.6,258.3 381.6,258 380.1,258.9 			"/>
			<polygon style="fill:#B3B3B3;" points="381.9,258.2 381.9,255.7 381.6,255.9 381.6,258.3 			"/>
			<polygon style="fill:#B3B3B3;" points="380.1,259.2 380.1,256.8 379.8,256.9 379.8,259.4 			"/>
		</g>
		<g>
			<polygon style="fill:#E6E6E6;2" points="387.3,259.1 388.8,258.2 388.8,256.4 387.3,257.3 			"/>
			<g>
				<polygon style="fill:#E6E6E6;3" points="387.3,258.2 387.3,257.4 387.9,258.7 387.6,258.9 				"/>
				<polygon style="fill:#E6E6E6;3" points="388.7,258.3 388.4,258.5 387.8,257.1 388.1,256.9 				"/>
			</g>
			<polygon style="fill:#B3B3B3;" points="387.3,257.3 388.8,256.4 388.8,256.1 387.3,257 			"/>
			<polygon style="fill:#CCCCCC;" points="386.8,257.3 389.3,255.8 389.3,255.5 386.8,256.9 			"/>
			<polygon style="fill:#B3B3B3;" points="387.3,259.5 388.8,258.6 388.8,258.2 387.3,259.1 			"/>
			<polygon style="fill:#B3B3B3;" points="389.1,258.4 389.1,255.9 388.8,256.1 388.8,258.6 			"/>
			<polygon style="fill:#B3B3B3;" points="387.3,259.5 387.3,257 387,257.2 387,259.6 			"/>
		</g>
		<g>
			<polygon style="fill:#E6E6E6;2" points="383.7,261.2 385.2,260.3 385.2,258.5 383.7,259.4 			"/>
			<g>
				<polygon style="fill:#E6E6E6;3" points="383.7,260.3 383.7,259.5 384.3,260.8 384,261 				"/>
				<polygon style="fill:#E6E6E6;3" points="385.1,260.4 384.8,260.5 384.2,259.1 384.5,259 				"/>
			</g>
			<polygon style="fill:#B3B3B3;" points="383.7,259.4 385.2,258.5 385.2,258.2 383.7,259.1 			"/>
			<polygon style="fill:#CCCCCC;" points="383.2,259.3 385.7,257.9 385.7,257.6 383.2,259 			"/>
			<polygon style="fill:#B3B3B3;" points="383.7,261.5 385.2,260.6 385.2,260.3 383.7,261.2 			"/>
			<polygon style="fill:#B3B3B3;" points="385.5,260.5 385.5,258 385.2,258.2 385.2,260.6 			"/>
			<polygon style="fill:#B3B3B3;" points="383.7,261.5 383.7,259.1 383.4,259.2 383.4,261.7 			"/>
		</g>
		<g>
			<polygon style="fill:#E6E6E6;2" points="380.1,263.3 381.6,262.4 381.6,260.6 380.1,261.5 			"/>
			<g>
				<polygon style="fill:#E6E6E6;3" points="380.1,262.4 380.1,261.6 380.7,262.9 380.4,263.1 				"/>
				<polygon style="fill:#E6E6E6;3" points="381.5,262.5 381.2,262.6 380.5,261.2 380.8,261.1 				"/>
			</g>
			<polygon style="fill:#B3B3B3;" points="380.1,261.5 381.6,260.6 381.6,260.3 380.1,261.2 			"/>
			<polygon style="fill:#CCCCCC;" points="379.6,261.4 382.1,260 382.1,259.7 379.6,261.1 			"/>
			<polygon style="fill:#B3B3B3;" points="380.1,263.6 381.6,262.7 381.6,262.4 380.1,263.3 			"/>
			<polygon style="fill:#B3B3B3;" points="381.9,262.6 381.9,260.1 381.6,260.3 381.6,262.7 			"/>
			<polygon style="fill:#B3B3B3;" points="380.1,263.6 380.1,261.2 379.8,261.3 379.8,263.8 			"/>
		</g>
		<g>
			<polygon style="fill:#E6E6E6;2" points="387.3,263.5 388.8,262.6 388.8,260.9 387.3,261.7 			"/>
			<g>
				<polygon style="fill:#E6E6E6;3" points="387.3,262.6 387.3,261.8 387.9,263.2 387.6,263.3 				"/>
				<polygon style="fill:#E6E6E6;3" points="388.7,262.7 388.4,262.9 387.8,261.5 388.1,261.3 				"/>
			</g>
			<polygon style="fill:#B3B3B3;" points="387.3,261.7 388.8,260.9 388.8,260.5 387.3,261.4 			"/>
			<polygon style="fill:#CCCCCC;" points="386.8,261.7 389.3,260.3 389.3,259.9 386.8,261.3 			"/>
			<polygon style="fill:#B3B3B3;" points="387.3,263.9 388.8,263 388.8,262.6 387.3,263.5 			"/>
			<polygon style="fill:#B3B3B3;" points="389.1,262.8 389.1,260.3 388.8,260.5 388.8,263 			"/>
			<polygon style="fill:#B3B3B3;" points="387.3,263.9 387.3,261.4 387,261.6 387,264 			"/>
		</g>
		<g>
			<polygon style="fill:#E6E6E6;2" points="383.7,265.6 385.2,264.7 385.2,262.9 383.7,263.8 			"/>
			<g>
				<polygon style="fill:#E6E6E6;3" points="383.7,264.7 383.7,263.9 384.3,265.2 384,265.4 				"/>
				<polygon style="fill:#E6E6E6;3" points="385.1,264.8 384.8,265 384.2,263.6 384.5,263.4 				"/>
			</g>
			<polygon style="fill:#B3B3B3;" points="383.7,263.8 385.2,262.9 385.2,262.6 383.7,263.5 			"/>
			<polygon style="fill:#CCCCCC;" points="383.2,263.8 385.7,262.3 385.7,262 383.2,263.4 			"/>
			<polygon style="fill:#B3B3B3;" points="383.7,266 385.2,265.1 385.2,264.7 383.7,265.6 			"/>
			<polygon style="fill:#B3B3B3;" points="385.5,264.9 385.5,262.4 385.2,262.6 385.2,265.1 			"/>
			<polygon style="fill:#B3B3B3;" points="383.7,266 383.7,263.5 383.4,263.7 383.4,266.1 			"/>
		</g>
		<g>
			<polygon style="fill:#E6E6E6;2" points="380.1,267.7 381.6,266.8 381.6,265 380.1,265.9 			"/>
			<g>
				<polygon style="fill:#E6E6E6;3" points="380.1,266.8 380.1,266 380.7,267.3 380.4,267.5 				"/>
				<polygon style="fill:#E6E6E6;3" points="381.5,266.9 381.2,267 380.5,265.6 380.8,265.5 				"/>
			</g>
			<polygon style="fill:#B3B3B3;" points="380.1,265.9 381.6,265 381.6,264.7 380.1,265.6 			"/>
			<polygon style="fill:#CCCCCC;" points="379.6,265.8 382.1,264.4 382.1,264.1 379.6,265.5 			"/>
			<polygon style="fill:#B3B3B3;" points="380.1,268 381.6,267.2 381.6,266.8 380.1,267.7 			"/>
			<polygon style="fill:#B3B3B3;" points="381.9,267 381.9,264.5 381.6,264.7 381.6,267.2 			"/>
			<polygon style="fill:#B3B3B3;" points="380.1,268 380.1,265.6 379.8,265.7 379.8,268.2 			"/>
		</g>
		<g>
			<polygon style="fill:#E6E6E6;2" points="387.3,267.9 388.8,267.1 388.8,265.3 387.3,266.2 			"/>
			<g>
				<polygon style="fill:#E6E6E6;3" points="387.3,267 387.3,266.2 387.9,267.6 387.6,267.7 				"/>
				<polygon style="fill:#E6E6E6;3" points="388.7,267.1 388.4,267.3 387.8,265.9 388.1,265.7 				"/>
			</g>
			<polygon style="fill:#B3B3B3;" points="387.3,266.2 388.8,265.3 388.8,264.9 387.3,265.8 			"/>
			<polygon style="fill:#CCCCCC;" points="386.8,266.1 389.3,264.7 389.3,264.3 386.8,265.7 			"/>
			<polygon style="fill:#B3B3B3;" points="387.3,268.3 388.8,267.4 388.8,267.1 387.3,267.9 			"/>
			<polygon style="fill:#B3B3B3;" points="389.1,267.2 389.1,264.8 388.8,264.9 388.8,267.4 			"/>
			<polygon style="fill:#B3B3B3;" points="387.3,268.3 387.3,265.8 387,266 387,268.5 			"/>
		</g>
		<g>
			<polygon style="fill:#E6E6E6;2" points="383.7,270 385.2,269.1 385.2,267.4 383.7,268.2 			"/>
			<g>
				<polygon style="fill:#E6E6E6;3" points="383.7,269.1 383.7,268.3 384.3,269.7 384,269.8 				"/>
				<polygon style="fill:#E6E6E6;3" points="385.1,269.2 384.8,269.4 384.2,268 384.5,267.8 				"/>
			</g>
			<polygon style="fill:#B3B3B3;" points="383.7,268.2 385.2,267.4 385.2,267 383.7,267.9 			"/>
			<polygon style="fill:#CCCCCC;" points="383.2,268.2 385.7,266.8 385.7,266.4 383.2,267.8 			"/>
			<polygon style="fill:#B3B3B3;" points="383.7,270.4 385.2,269.5 385.2,269.1 383.7,270 			"/>
			<polygon style="fill:#B3B3B3;" points="385.5,269.3 385.5,266.8 385.2,267 385.2,269.5 			"/>
			<polygon style="fill:#B3B3B3;" points="383.7,270.4 383.7,267.9 383.4,268.1 383.4,270.5 			"/>
		</g>
		<g>
			<polygon style="fill:#E6E6E6;2" points="380.1,272.1 381.6,271.2 381.6,269.4 380.1,270.3 			"/>
			<g>
				<polygon style="fill:#E6E6E6;3" points="380.1,271.2 380.1,270.4 380.7,271.7 380.4,271.9 				"/>
				<polygon style="fill:#E6E6E6;3" points="381.5,271.3 381.2,271.5 380.5,270.1 380.8,269.9 				"/>
			</g>
			<polygon style="fill:#B3B3B3;" points="380.1,270.3 381.6,269.4 381.6,269.1 380.1,270 			"/>
			<polygon style="fill:#CCCCCC;" points="379.6,270.3 382.1,268.8 382.1,268.5 379.6,269.9 			"/>
			<polygon style="fill:#B3B3B3;" points="380.1,272.5 381.6,271.6 381.6,271.2 380.1,272.1 			"/>
			<polygon style="fill:#B3B3B3;" points="381.9,271.4 381.9,268.9 381.6,269.1 381.6,271.6 			"/>
			<polygon style="fill:#B3B3B3;" points="380.1,272.5 380.1,270 379.8,270.2 379.8,272.6 			"/>
		</g>
		<g>
			<polygon style="fill:#E6E6E6;2" points="387.3,272.4 388.8,271.5 388.8,269.7 387.3,270.6 			"/>
			<g>
				<polygon style="fill:#E6E6E6;3" points="387.3,271.4 387.3,270.6 387.9,272 387.6,272.2 				"/>
				<polygon style="fill:#E6E6E6;3" points="388.7,271.5 388.4,271.7 387.8,270.3 388.1,270.1 				"/>
			</g>
			<polygon style="fill:#B3B3B3;" points="387.3,270.6 388.8,269.7 388.8,269.3 387.3,270.2 			"/>
			<polygon style="fill:#CCCCCC;" points="386.8,270.5 389.3,269.1 389.3,268.7 386.8,270.2 			"/>
			<polygon style="fill:#B3B3B3;" points="387.3,272.7 388.8,271.8 388.8,271.5 387.3,272.4 			"/>
			<polygon style="fill:#B3B3B3;" points="389.1,271.6 389.1,269.2 388.8,269.3 388.8,271.8 			"/>
			<polygon style="fill:#B3B3B3;" points="387.3,272.7 387.3,270.2 387,270.4 387,272.9 			"/>
		</g>
		<g>
			<polygon style="fill:#E6E6E6;2" points="383.7,274.4 385.2,273.6 385.2,271.8 383.7,272.7 			"/>
			<g>
				<polygon style="fill:#E6E6E6;3" points="383.7,273.5 383.7,272.7 384.3,274.1 384,274.2 				"/>
				<polygon style="fill:#E6E6E6;3" points="385.1,273.6 384.8,273.8 384.2,272.4 384.5,272.2 				"/>
			</g>
			<polygon style="fill:#B3B3B3;" points="383.7,272.7 385.2,271.8 385.2,271.4 383.7,272.3 			"/>
			<polygon style="fill:#CCCCCC;" points="383.2,272.6 385.7,271.2 385.7,270.8 383.2,272.2 			"/>
			<polygon style="fill:#B3B3B3;" points="383.7,274.8 385.2,273.9 385.2,273.6 383.7,274.4 			"/>
			<polygon style="fill:#B3B3B3;" points="385.5,273.7 385.5,271.3 385.2,271.4 385.2,273.9 			"/>
			<polygon style="fill:#B3B3B3;" points="383.7,274.8 383.7,272.3 383.4,272.5 383.4,275 			"/>
		</g>
		<g>
			<polygon style="fill:#E6E6E6;2" points="380.1,276.5 381.6,275.6 381.6,273.9 380.1,274.7 			"/>
			<g>
				<polygon style="fill:#E6E6E6;3" points="380.1,275.6 380.1,274.8 380.7,276.2 380.4,276.3 				"/>
				<polygon style="fill:#E6E6E6;3" points="381.5,275.7 381.2,275.9 380.5,274.5 380.8,274.3 				"/>
			</g>
			<polygon style="fill:#B3B3B3;" points="380.1,274.7 381.6,273.9 381.6,273.5 380.1,274.4 			"/>
			<polygon style="fill:#CCCCCC;" points="379.6,274.7 382.1,273.3 382.1,272.9 379.6,274.3 			"/>
			<polygon style="fill:#B3B3B3;" points="380.1,276.9 381.6,276 381.6,275.6 380.1,276.5 			"/>
			<polygon style="fill:#B3B3B3;" points="381.9,275.8 381.9,273.3 381.6,273.5 381.6,276 			"/>
			<polygon style="fill:#B3B3B3;" points="380.1,276.9 380.1,274.4 379.8,274.6 379.8,277 			"/>
		</g>
	</g>
	<g>
		<polygon style="fill:#CCCCCC;" points="367.6,274.9 378.8,281.4 378.8,250.1 367.6,243.6 		"/>
		<g>
			<polygon style="fill:#E6E6E6;2" points="376,253.6 377.6,254.5 377.6,252.7 376,251.8 			"/>
			<g>
				<polygon style="fill:#E6E6E6;3" points="376,252.7 376,251.8 376.7,253.9 376.4,253.8 				"/>
				<polygon style="fill:#E6E6E6;3" points="377.5,254.4 377.2,254.2 376.5,252.1 376.8,252.2 				"/>
			</g>
			<polygon style="fill:#B3B3B3;" points="376,251.8 377.6,252.7 377.6,252.3 376,251.4 			"/>
			<polygon style="fill:#CCCCCC;" points="375.6,251.2 378,252.6 378,252.3 375.6,250.8 			"/>
			<polygon style="fill:#B3B3B3;" points="376,253.9 377.6,254.8 377.6,254.5 376,253.6 			"/>
			<polygon style="fill:#B3B3B3;" points="377.9,255 377.9,252.5 377.6,252.3 377.6,254.8 			"/>
			<polygon style="fill:#B3B3B3;" points="376,253.9 376,251.4 375.8,251.3 375.8,253.7 			"/>
		</g>
		<g>
			<polygon style="fill:#E6E6E6;2" points="372.4,251.5 374,252.4 374,250.6 372.4,249.7 			"/>
			<g>
				<polygon style="fill:#E6E6E6;3" points="372.4,250.6 372.4,249.7 373.1,251.9 372.8,251.7 				"/>
				<polygon style="fill:#E6E6E6;3" points="373.9,252.3 373.6,252.1 372.9,250 373.2,250.1 				"/>
			</g>
			<polygon style="fill:#B3B3B3;" points="372.4,249.7 374,250.6 374,250.3 372.4,249.4 			"/>
			<polygon style="fill:#CCCCCC;" points="372,249.1 374.4,250.5 374.4,250.2 372,248.8 			"/>
			<polygon style="fill:#B3B3B3;" points="372.4,251.8 374,252.7 374,252.4 372.4,251.5 			"/>
			<polygon style="fill:#B3B3B3;" points="374.3,252.9 374.3,250.4 374,250.3 374,252.7 			"/>
			<polygon style="fill:#B3B3B3;" points="372.4,251.8 372.4,249.4 372.1,249.2 372.1,251.7 			"/>
		</g>
		<g>
			<polygon style="fill:#E6E6E6;2" points="368.8,249.4 370.4,250.3 370.4,248.5 368.8,247.6 			"/>
			<g>
				<polygon style="fill:#E6E6E6;3" points="368.8,248.5 368.8,247.7 369.5,249.8 369.2,249.6 				"/>
				<polygon style="fill:#E6E6E6;3" points="370.3,250.2 370,250.1 369.3,247.9 369.6,248.1 				"/>
			</g>
			<polygon style="fill:#B3B3B3;" points="368.8,247.6 370.4,248.5 370.4,248.2 368.8,247.3 			"/>
			<polygon style="fill:#CCCCCC;" points="368.4,247 370.8,248.4 370.8,248.1 368.4,246.7 			"/>
			<polygon style="fill:#B3B3B3;" points="368.8,249.7 370.4,250.6 370.4,250.3 368.8,249.4 			"/>
			<polygon style="fill:#B3B3B3;" points="370.7,250.8 370.7,248.3 370.4,248.2 370.4,250.6 			"/>
			<polygon style="fill:#B3B3B3;" points="368.8,249.7 368.8,247.3 368.5,247.1 368.5,249.6 			"/>
		</g>
		<g>
			<polygon style="fill:#E6E6E6;2" points="376,258 377.6,258.9 377.6,257.1 376,256.2 			"/>
			<g>
				<polygon style="fill:#E6E6E6;3" points="376,257.1 376,256.2 376.7,258.4 376.4,258.2 				"/>
				<polygon style="fill:#E6E6E6;3" points="377.5,258.8 377.2,258.6 376.5,256.5 376.8,256.7 				"/>
			</g>
			<polygon style="fill:#B3B3B3;" points="376,256.2 377.6,257.1 377.6,256.8 376,255.9 			"/>
			<polygon style="fill:#CCCCCC;" points="375.6,255.6 378,257 378,256.7 375.6,255.3 			"/>
			<polygon style="fill:#B3B3B3;" points="376,258.3 377.6,259.2 377.6,258.9 376,258 			"/>
			<polygon style="fill:#B3B3B3;" points="377.9,259.4 377.9,256.9 377.6,256.8 377.6,259.2 			"/>
			<polygon style="fill:#B3B3B3;" points="376,258.3 376,255.9 375.8,255.7 375.8,258.2 			"/>
		</g>
		<g>
			<polygon style="fill:#E6E6E6;2" points="372.4,255.9 374,256.8 374,255 372.4,254.1 			"/>
			<g>
				<polygon style="fill:#E6E6E6;3" points="372.4,255 372.4,254.2 373.1,256.3 372.8,256.1 				"/>
				<polygon style="fill:#E6E6E6;3" points="373.9,256.7 373.6,256.6 372.9,254.4 373.2,254.6 				"/>
			</g>
			<polygon style="fill:#B3B3B3;" points="372.4,254.1 374,255 374,254.7 372.4,253.8 			"/>
			<polygon style="fill:#CCCCCC;" points="372,253.5 374.4,254.9 374.4,254.6 372,253.2 			"/>
			<polygon style="fill:#B3B3B3;" points="372.4,256.2 374,257.1 374,256.8 372.4,255.9 			"/>
			<polygon style="fill:#B3B3B3;" points="374.3,257.3 374.3,254.8 374,254.7 374,257.1 			"/>
			<polygon style="fill:#B3B3B3;" points="372.4,256.2 372.4,253.8 372.1,253.6 372.1,256.1 			"/>
		</g>
		<g>
			<polygon style="fill:#E6E6E6;2" points="368.8,253.8 370.4,254.7 370.4,252.9 368.8,252 			"/>
			<g>
				<polygon style="fill:#E6E6E6;3" points="368.8,252.9 368.8,252.1 369.5,254.2 369.2,254 				"/>
				<polygon style="fill:#E6E6E6;3" points="370.3,254.6 370,254.5 369.3,252.3 369.6,252.5 				"/>
			</g>
			<polygon style="fill:#B3B3B3;" points="368.8,252 370.4,252.9 370.4,252.6 368.8,251.7 			"/>
			<polygon style="fill:#CCCCCC;" points="368.4,251.4 370.8,252.8 370.8,252.5 368.4,251.1 			"/>
			<polygon style="fill:#B3B3B3;" points="368.8,254.1 370.4,255 370.4,254.7 368.8,253.8 			"/>
			<polygon style="fill:#B3B3B3;" points="370.7,255.2 370.7,252.7 370.4,252.6 370.4,255 			"/>
			<polygon style="fill:#B3B3B3;" points="368.8,254.1 368.8,251.7 368.5,251.5 368.5,254 			"/>
		</g>
		<g>
			<polygon style="fill:#E6E6E6;2" points="376,262.4 377.6,263.3 377.6,261.5 376,260.6 			"/>
			<g>
				<polygon style="fill:#E6E6E6;3" points="376,261.5 376,260.7 376.7,262.8 376.4,262.6 				"/>
				<polygon style="fill:#E6E6E6;3" points="377.5,263.2 377.2,263.1 376.5,260.9 376.8,261.1 				"/>
			</g>
			<polygon style="fill:#B3B3B3;" points="376,260.6 377.6,261.5 377.6,261.2 376,260.3 			"/>
			<polygon style="fill:#CCCCCC;" points="375.6,260 378,261.4 378,261.1 375.6,259.7 			"/>
			<polygon style="fill:#B3B3B3;" points="376,262.7 377.6,263.6 377.6,263.3 376,262.4 			"/>
			<polygon style="fill:#B3B3B3;" points="377.9,263.8 377.9,261.3 377.6,261.2 377.6,263.6 			"/>
			<polygon style="fill:#B3B3B3;" points="376,262.7 376,260.3 375.8,260.1 375.8,262.6 			"/>
		</g>
		<g>
			<polygon style="fill:#E6E6E6;2" points="372.4,260.3 374,261.2 374,259.4 372.4,258.5 			"/>
			<g>
				<polygon style="fill:#E6E6E6;3" points="372.4,259.4 372.4,258.6 373.1,260.7 372.8,260.5 				"/>
				<polygon style="fill:#E6E6E6;3" points="373.9,261.1 373.6,261 372.9,258.8 373.2,259 				"/>
			</g>
			<polygon style="fill:#B3B3B3;" points="372.4,258.5 374,259.4 374,259.1 372.4,258.2 			"/>
			<polygon style="fill:#CCCCCC;" points="372,257.9 374.4,259.3 374.4,259 372,257.6 			"/>
			<polygon style="fill:#B3B3B3;" points="372.4,260.6 374,261.5 374,261.2 372.4,260.3 			"/>
			<polygon style="fill:#B3B3B3;" points="374.3,261.7 374.3,259.2 374,259.1 374,261.5 			"/>
			<polygon style="fill:#B3B3B3;" points="372.4,260.6 372.4,258.2 372.1,258 372.1,260.5 			"/>
		</g>
		<g>
			<polygon style="fill:#E6E6E6;2" points="368.8,258.2 370.4,259.1 370.4,257.3 368.8,256.4 			"/>
			<g>
				<polygon style="fill:#E6E6E6;3" points="368.8,257.3 368.8,256.5 369.5,258.6 369.2,258.4 				"/>
				<polygon style="fill:#E6E6E6;3" points="370.3,259.1 370,258.9 369.3,256.7 369.6,256.9 				"/>
			</g>
			<polygon style="fill:#B3B3B3;" points="368.8,256.4 370.4,257.3 370.4,257 368.8,256.1 			"/>
			<polygon style="fill:#CCCCCC;" points="368.4,255.8 370.8,257.3 370.8,256.9 368.4,255.5 			"/>
			<polygon style="fill:#B3B3B3;" points="368.8,258.6 370.4,259.5 370.4,259.1 368.8,258.2 			"/>
			<polygon style="fill:#B3B3B3;" points="370.7,259.6 370.7,257.2 370.4,257 370.4,259.5 			"/>
			<polygon style="fill:#B3B3B3;" points="368.8,258.6 368.8,256.1 368.5,255.9 368.5,258.4 			"/>
		</g>
		<g>
			<polygon style="fill:#E6E6E6;2" points="376,266.8 377.6,267.7 377.6,265.9 376,265 			"/>
			<g>
				<polygon style="fill:#E6E6E6;3" points="376,265.9 376,265.1 376.7,267.2 376.4,267 				"/>
				<polygon style="fill:#E6E6E6;3" points="377.5,267.6 377.2,267.5 376.5,265.3 376.8,265.5 				"/>
			</g>
			<polygon style="fill:#B3B3B3;" points="376,265 377.6,265.9 377.6,265.6 376,264.7 			"/>
			<polygon style="fill:#CCCCCC;" points="375.6,264.4 378,265.8 378,265.5 375.6,264.1 			"/>
			<polygon style="fill:#B3B3B3;" points="376,267.2 377.6,268 377.6,267.7 376,266.8 			"/>
			<polygon style="fill:#B3B3B3;" points="377.9,268.2 377.9,265.7 377.6,265.6 377.6,268 			"/>
			<polygon style="fill:#B3B3B3;" points="376,267.2 376,264.7 375.8,264.5 375.8,267 			"/>
		</g>
		<g>
			<polygon style="fill:#E6E6E6;2" points="372.4,264.7 374,265.6 374,263.8 372.4,262.9 			"/>
			<g>
				<polygon style="fill:#E6E6E6;3" points="372.4,263.8 372.4,263 373.1,265.1 372.8,264.9 				"/>
				<polygon style="fill:#E6E6E6;3" points="373.9,265.6 373.6,265.4 372.9,263.2 373.2,263.4 				"/>
			</g>
			<polygon style="fill:#B3B3B3;" points="372.4,262.9 374,263.8 374,263.5 372.4,262.6 			"/>
			<polygon style="fill:#CCCCCC;" points="372,262.3 374.4,263.8 374.4,263.4 372,262 			"/>
			<polygon style="fill:#B3B3B3;" points="372.4,265.1 374,266 374,265.6 372.4,264.7 			"/>
			<polygon style="fill:#B3B3B3;" points="374.3,266.1 374.3,263.7 374,263.5 374,266 			"/>
			<polygon style="fill:#B3B3B3;" points="372.4,265.1 372.4,262.6 372.1,262.4 372.1,264.9 			"/>
		</g>
		<g>
			<polygon style="fill:#E6E6E6;2" points="368.8,262.6 370.4,263.5 370.4,261.7 368.8,260.9 			"/>
			<g>
				<polygon style="fill:#E6E6E6;3" points="368.8,261.7 368.8,260.9 369.5,263 369.2,262.8 				"/>
				<polygon style="fill:#E6E6E6;3" points="370.3,263.5 370,263.3 369.3,261.1 369.6,261.3 				"/>
			</g>
			<polygon style="fill:#B3B3B3;" points="368.8,260.9 370.4,261.7 370.4,261.4 368.8,260.5 			"/>
			<polygon style="fill:#CCCCCC;" points="368.4,260.3 370.8,261.7 370.8,261.3 368.4,259.9 			"/>
			<polygon style="fill:#B3B3B3;" points="368.8,263 370.4,263.9 370.4,263.5 368.8,262.6 			"/>
			<polygon style="fill:#B3B3B3;" points="370.7,264 370.7,261.6 370.4,261.4 370.4,263.9 			"/>
			<polygon style="fill:#B3B3B3;" points="368.8,263 368.8,260.5 368.5,260.3 368.5,262.8 			"/>
		</g>
		<g>
			<polygon style="fill:#E6E6E6;2" points="376,271.2 377.6,272.1 377.6,270.3 376,269.4 			"/>
			<g>
				<polygon style="fill:#E6E6E6;3" points="376,270.3 376,269.5 376.7,271.6 376.4,271.4 				"/>
				<polygon style="fill:#E6E6E6;3" points="377.5,272.1 377.2,271.9 376.5,269.7 376.8,269.9 				"/>
			</g>
			<polygon style="fill:#B3B3B3;" points="376,269.4 377.6,270.3 377.6,270 376,269.1 			"/>
			<polygon style="fill:#CCCCCC;" points="375.6,268.8 378,270.3 378,269.9 375.6,268.5 			"/>
			<polygon style="fill:#B3B3B3;" points="376,271.6 377.6,272.5 377.6,272.1 376,271.2 			"/>
			<polygon style="fill:#B3B3B3;" points="377.9,272.6 377.9,270.2 377.6,270 377.6,272.5 			"/>
			<polygon style="fill:#B3B3B3;" points="376,271.6 376,269.1 375.8,268.9 375.8,271.4 			"/>
		</g>
		<g>
			<polygon style="fill:#E6E6E6;2" points="372.4,269.1 374,270 374,268.2 372.4,267.4 			"/>
			<g>
				<polygon style="fill:#E6E6E6;3" points="372.4,268.2 372.4,267.4 373.1,269.5 372.8,269.3 				"/>
				<polygon style="fill:#E6E6E6;3" points="373.9,270 373.6,269.8 372.9,267.6 373.2,267.8 				"/>
			</g>
			<polygon style="fill:#B3B3B3;" points="372.4,267.4 374,268.2 374,267.9 372.4,267 			"/>
			<polygon style="fill:#CCCCCC;" points="372,266.8 374.4,268.2 374.4,267.8 372,266.4 			"/>
			<polygon style="fill:#B3B3B3;" points="372.4,269.5 374,270.4 374,270 372.4,269.1 			"/>
			<polygon style="fill:#B3B3B3;" points="374.3,270.5 374.3,268.1 374,267.9 374,270.4 			"/>
			<polygon style="fill:#B3B3B3;" points="372.4,269.5 372.4,267 372.1,266.8 372.1,269.3 			"/>
		</g>
		<g>
			<polygon style="fill:#E6E6E6;2" points="368.8,267.1 370.4,267.9 370.4,266.2 368.8,265.3 			"/>
			<g>
				<polygon style="fill:#E6E6E6;3" points="368.8,266.1 368.8,265.3 369.5,267.4 369.2,267.2 				"/>
				<polygon style="fill:#E6E6E6;3" points="370.3,267.9 370,267.7 369.3,265.5 369.6,265.7 				"/>
			</g>
			<polygon style="fill:#B3B3B3;" points="368.8,265.3 370.4,266.2 370.4,265.8 368.8,264.9 			"/>
			<polygon style="fill:#CCCCCC;" points="368.4,264.7 370.8,266.1 370.8,265.7 368.4,264.3 			"/>
			<polygon style="fill:#B3B3B3;" points="368.8,267.4 370.4,268.3 370.4,267.9 368.8,267.1 			"/>
			<polygon style="fill:#B3B3B3;" points="370.7,268.5 370.7,266 370.4,265.8 370.4,268.3 			"/>
			<polygon style="fill:#B3B3B3;" points="368.8,267.4 368.8,264.9 368.5,264.8 368.5,267.2 			"/>
		</g>
		<g>
			<polygon style="fill:#E6E6E6;2" points="376,275.6 377.6,276.5 377.6,274.7 376,273.9 			"/>
			<g>
				<polygon style="fill:#E6E6E6;3" points="376,274.7 376,273.9 376.7,276 376.4,275.8 				"/>
				<polygon style="fill:#E6E6E6;3" points="377.5,276.5 377.2,276.3 376.5,274.1 376.8,274.3 				"/>
			</g>
			<polygon style="fill:#B3B3B3;" points="376,273.9 377.6,274.7 377.6,274.4 376,273.5 			"/>
			<polygon style="fill:#CCCCCC;" points="375.6,273.3 378,274.7 378,274.3 375.6,272.9 			"/>
			<polygon style="fill:#B3B3B3;" points="376,276 377.6,276.9 377.6,276.5 376,275.6 			"/>
			<polygon style="fill:#B3B3B3;" points="377.9,277 377.9,274.6 377.6,274.4 377.6,276.9 			"/>
			<polygon style="fill:#B3B3B3;" points="376,276 376,273.5 375.8,273.3 375.8,275.8 			"/>
		</g>
		<g>
			<polygon style="fill:#E6E6E6;2" points="372.4,273.6 374,274.4 374,272.7 372.4,271.8 			"/>
			<g>
				<polygon style="fill:#E6E6E6;3" points="372.4,272.6 372.4,271.8 373.1,273.9 372.8,273.7 				"/>
				<polygon style="fill:#E6E6E6;3" points="373.9,274.4 373.6,274.2 372.9,272 373.2,272.2 				"/>
			</g>
			<polygon style="fill:#B3B3B3;" points="372.4,271.8 374,272.7 374,272.3 372.4,271.4 			"/>
			<polygon style="fill:#CCCCCC;" points="372,271.2 374.4,272.6 374.4,272.2 372,270.8 			"/>
			<polygon style="fill:#B3B3B3;" points="372.4,273.9 374,274.8 374,274.4 372.4,273.6 			"/>
			<polygon style="fill:#B3B3B3;" points="374.3,275 374.3,272.5 374,272.3 374,274.8 			"/>
			<polygon style="fill:#B3B3B3;" points="372.4,273.9 372.4,271.4 372.1,271.3 372.1,273.7 			"/>
		</g>
		<g>
			<polygon style="fill:#E6E6E6;2" points="368.8,271.5 370.4,272.4 370.4,270.6 368.8,269.7 			"/>
			<g>
				<polygon style="fill:#E6E6E6;3" points="368.8,270.6 368.8,269.7 369.5,271.8 369.2,271.7 				"/>
				<polygon style="fill:#E6E6E6;3" points="370.3,272.3 370,272.1 369.3,270 369.6,270.1 				"/>
			</g>
			<polygon style="fill:#B3B3B3;" points="368.8,269.7 370.4,270.6 370.4,270.2 368.8,269.3 			"/>
			<polygon style="fill:#CCCCCC;" points="368.4,269.1 370.8,270.5 370.8,270.2 368.4,268.7 			"/>
			<polygon style="fill:#B3B3B3;" points="368.8,271.8 370.4,272.7 370.4,272.4 368.8,271.5 			"/>
			<polygon style="fill:#B3B3B3;" points="370.7,272.9 370.7,270.4 370.4,270.2 370.4,272.7 			"/>
			<polygon style="fill:#B3B3B3;" points="368.8,271.8 368.8,269.3 368.5,269.2 368.5,271.6 			"/>
		</g>
	</g>
</g>
<g>
	<polygon style="fill:#E6E6E6;4" points="262.8,241.6 263.6,241.2 263.6,239.6 262.8,240 	"/>
	<polygon style="fill:#E6E6E6;5" points="262.1,241.2 262.8,241.6 262.8,240 262.1,239.6 	"/>
	<circle style="fill:#E6E6E6;6" cx="262.9" cy="238.3" r="2.2"/>
	<circle style="fill:#E6E6E6;7" cx="262.3" cy="237.7" r="1.3"/>
	<circle style="fill:#E6E6E6;8" cx="262" cy="237.5" r="0.9"/>
</g>
<g>
	<polygon style="fill:#E6E6E6;4" points="258.4,239 259.2,238.6 259.2,236.9 258.4,237.3 	"/>
	<polygon style="fill:#E6E6E6;5" points="257.7,238.6 258.4,239 258.4,237.3 257.7,236.9 	"/>
	<circle style="fill:#E6E6E6;6" cx="258.5" cy="235.7" r="2.2"/>
	<circle style="fill:#E6E6E6;7" cx="257.9" cy="235.1" r="1.3"/>
	<circle style="fill:#E6E6E6;8" cx="257.6" cy="234.8" r="0.9"/>
</g>
<g>
	<polygon style="fill:#E6E6E6;4" points="254,236.3 254.8,235.9 254.8,234.3 254,234.7 	"/>
	<polygon style="fill:#E6E6E6;5" points="253.3,235.9 254,236.3 254,234.7 253.3,234.3 	"/>
	<circle style="fill:#E6E6E6;6" cx="254.1" cy="233.1" r="2.2"/>
	<circle style="fill:#E6E6E6;7" cx="253.5" cy="232.5" r="1.3"/>
	<circle style="fill:#E6E6E6;8" cx="253.2" cy="232.2" r="0.9"/>
</g>
<g>
	<polygon style="fill:#E6E6E6;4" points="249.6,233.7 250.4,233.3 250.4,231.7 249.6,232.1 	"/>
	<polygon style="fill:#E6E6E6;5" points="248.9,233.3 249.6,233.7 249.6,232.1 248.9,231.7 	"/>
	<circle style="fill:#E6E6E6;6" cx="249.7" cy="230.4" r="2.2"/>
	<circle style="fill:#E6E6E6;7" cx="249.1" cy="229.8" r="1.3"/>
	<circle style="fill:#E6E6E6;8" cx="248.8" cy="229.6" r="0.9"/>
</g>
<g>
	<polygon style="fill:#E6E6E6;4" points="245.2,231.1 246,230.7 246,229 245.2,229.5 	"/>
	<polygon style="fill:#E6E6E6;5" points="244.5,230.7 245.2,231.1 245.2,229.5 244.5,229 	"/>
	<circle style="fill:#E6E6E6;6" cx="245.3" cy="227.8" r="2.2"/>
	<circle style="fill:#E6E6E6;7" cx="244.7" cy="227.2" r="1.3"/>
	<circle style="fill:#E6E6E6;8" cx="244.4" cy="226.9" r="0.9"/>
</g>
<g>
	<polygon style="fill:#E6E6E6;4" points="240.9,228.5 241.6,228 241.6,226.4 240.9,226.8 	"/>
	<polygon style="fill:#E6E6E6;5" points="240.1,228 240.9,228.5 240.9,226.8 240.1,226.4 	"/>
	<circle style="fill:#E6E6E6;6" cx="240.9" cy="225.2" r="2.2"/>
	<circle style="fill:#E6E6E6;7" cx="240.4" cy="224.6" r="1.3"/>
	<circle style="fill:#E6E6E6;8" cx="240" cy="224.3" r="0.9"/>
</g>
<g>
	<polygon style="fill:#E6E6E6;4" points="236.5,225.8 237.2,225.4 237.2,223.8 236.5,224.2 	"/>
	<polygon style="fill:#E6E6E6;5" points="235.7,225.4 236.5,225.8 236.5,224.2 235.7,223.8 	"/>
	<circle style="fill:#E6E6E6;6" cx="236.5" cy="222.5" r="2.2"/>
	<circle style="fill:#E6E6E6;7" cx="236" cy="221.9" r="1.3"/>
	<circle style="fill:#E6E6E6;8" cx="235.6" cy="221.7" r="0.9"/>
</g>
<circle style="fill:#E6E6E6;9" cx="278.4" cy="142.2" r="58.7"/>
<path style="fill:#E6E6E6;9" d="M278.4,200.9c-10.5,0-20.3-2.8-28.8-7.6l29.4,48.7l30-49.8C300.1,197.8,289.6,200.9,278.4,200.9z"/>
<path style="fill:#FFFFFF;0" d="M249.5,193.4l3.5,5.8c7.7,3.7,16.3,5.7,25.4,5.7c9.7,0,18.9-2.4,27-6.6l3.6-6c-8.9,5.5-19.4,8.6-30.6,8.6
	C267.9,200.9,258,198.2,249.5,193.4z"/>
<circle style="fill:#FFFFFF;" cx="278.4" cy="142.2" r="38.5"/>
<path style="fill:#FFFFFF;1" d="M290.2,118.8L290.2,118.8C290.1,118.8,290.2,118.8,290.2,118.8z"/>
</svg>
