<?xml version="1.0" encoding="utf-8"?>
<!-- Generator: Adobe Illustrator 23.0.1, SVG Export Plug-In . SVG Version: 6.00 Build 0)  -->
<svg version="1.1" id="Layer_1" xmlns="http://www.w3.org/2000/svg" xmlns:xlink="http://www.w3.org/1999/xlink" x="0px" y="0px"
	 viewBox="0 0 512 512" style="enable-background:new 0 0 512 512;" xml:space="preserve">
<g>
	<path style="fill:#010101;" d="M491.8,18.7H20.3C12.8,18.7,9,22.5,9,30v452c0,7.5,3.8,11.3,11.3,11.3h471.5c7.3,0,11.1-3.9,11.1-11.2V29.9
		C503,22.5,499.1,18.7,491.8,18.7z M483.3,470.6c0,2.4-0.5,3.1-3,3.1c-149.6-0.1-299.1-0.1-448.7,0c-2.4,0-2.9-0.7-2.9-3
		c0-143.2,0-286.3,0-429.5c0-2.3,0.5-3,2.9-3c74.9,0.1,149.7,0.1,224.6,0.1c74.7,0,149.4,0,224.1-0.1c2.5,0,3,0.6,3,3.1
		C483.3,184.5,483.3,327.5,483.3,470.6z"/>
	<path style="fill:#010101;" d="M126,171.4c0-11.5,0-23,0-34.5c0-1.7-0.4-2.7-2-3.6c-8.9-5.3-13.1-16-10.4-25.7c2.9-10,11.8-16.9,22.2-17.1
		c10-0.1,19.4,6.9,22.3,16.6c2.9,10-1.1,20.6-10.1,26c-1.9,1.1-2.3,2.3-2.3,4.3c0.1,19.6,0,39.3,0.1,58.9
		c0.2,48.9,31.7,91.4,78.1,105.7c61.6,18.9,127.1-19.7,140-82.6c1.6-8,2.5-16,2.5-24.2c0-19,0-37.9,0-56.9c0-1.6-0.5-2.4-1.9-3.2
		c-9.4-5-14.4-15.4-12.6-25.9c1.7-9.9,10-18.1,20-19.9c11.6-2,23.2,4.8,27.2,15.9c4.1,11.3-0.4,23.7-11,29.6
		c-1.7,0.9-2.2,1.9-2.2,3.8c0.1,18.7,0,37.4,0,56.1c0,31.9-9.8,60.4-30.3,84.9c-19.8,23.7-44.9,39-75.3,44.4
		c-46.5,8.2-86.4-5-119.1-38.9c-18.6-19.3-29.5-42.7-33.7-69.1c-1.7-10.9-1.6-21.9-1.5-32.9C126,179.2,126,175.3,126,171.4z"/>
</g>
</svg>
