<?xml version="1.0" encoding="utf-8"?>
<!-- Generator: Adobe Illustrator 23.0.1, SVG Export Plug-In . SVG Version: 6.00 Build 0)  -->
<svg version="1.1" id="Layer_1" xmlns="http://www.w3.org/2000/svg" xmlns:xlink="http://www.w3.org/1999/xlink" x="0px" y="0px"
	 viewBox="0 0 512 512" style="enable-background:new 0 0 512 512;" xml:space="preserve">
<g>
	<path style="fill:#74AD42;" d="M152.2,422.9c6.4-10,11.9-18.7,17.5-27.3c8-12.4,7.3-21.3-4.9-28.9c-37.8-23.9-53.1-60.5-59.5-102.4
		c-1.6-10.6-2.9-21.2-4.2-31.8c-0.3-2.8-1.2-5.6-3.8-5.8c-4.2-0.4-2.4,4-2.6,5.6c-2.5,22-4.5,44.1-6.9,68.4
		c-10.3-23.7-15.4-46.4-16.6-69.9c-0.5-10.7,0-21.5,0-32.2c0-1.9,1.3-5.1-2.1-5.2c-2.7-0.1-2.8,2.7-3.2,5
		c-3.2,18.2-6.6,36.4-10.2,56.4c-17.9-22.4-16.4-48.6-21.6-74.4c-2.9,6.5-5.6,12.1-8,17.8c-2.4,5.6-4.6,11.3-7.8,19.5
		c-2.1-30.5-2.6-57.6,14.8-81.9C47.9,115,73.6,107,97.2,116.9c36.2,15.2,61.2,41,74.5,78.1c6.7,18.6,12.2,21.1,31.3,17.8
		c18-3.1,35.1-9.5,52.5-14.5c8.6-2.5,15.8-1,22.7,4.8c9.2,7.7,19.7,13.3,30.5,18.4c1.5,0.7,3.4,4,5.4,0.5c1.1-2.1,0.7-3.9-0.9-5.9
		c-4-4.8-7.9-9.8-11.3-15c-5.1-7.8-5.3-15.5,0.7-23.3c10.7-13.9,20.8-28.4,31.8-42.1c6.3-7.9,14.6-13.8,24.6-16.7
		c4.7-1.4,5.3-3.1,1.8-7c-4-4.6-8.4-9.2-10.9-15c7.9-4.1,22,8.9,23.2-10.5c5.1,4.3,9.2,8.1,13.7,11.5c4.4,3.3,8.8,12,13.8,0
		c1.7-3.9,4.7,0.3,5.3,1.9c5.1,15.8,13.9,31.1,7.3,48.6c-1.8,4.8,0.4,8.6,2.3,12.5c1.9,3.9,4,7.8,6.8,13.1c-6.1-1.1-11.1-1.7-15.9-3
		c-4.9-1.3-7.1,0.2-7.2,5.3c-0.1,3.7-0.2,7.5-0.8,11.1c-1.3,7.4-4.3,13.1-13.3,12.2c-4.1-0.4-5.8,2.1-6.6,5.8
		c-1.7,8-3.3,16-5.6,23.8c-1.8,6.3-5.4,11-13.1,11.4c-7.2,0.4-9.6,6.2-11.6,12c-4.3,12.8-8.7,25.5-12.8,38.3
		c-7.5,23.6-23.3,39.7-45,50.7c-9.2,4.6-18.8,8.6-25.7,17c-10,12.4-10.5,35.4-0.3,47.5c4.7,5.5,11.7,5.4,18.1,6.8
		c9.1,1.9,18.8,1.5,27.7,7.3c-24.4,7.1-48.6,4.6-72.7,4.3c-1-3.3,1.7-4.1,3-5.5c6.4-6.8,8.7-14.4,5.3-23.4
		c-2.2-5.9-4.1-11.9-6.6-17.6c-3.4-7.4-10.5-9.6-17.4-8.1c-18.8,4.1-31.9,15.3-38,34.1c-1.6,4.9-0.8,6.5,4.6,7.2
		c10.3,1.3,20.4,3.5,30.6,5.2c2.3,0.4,4.5,0.5,4.2,3.7c-0.3,3.6-3.1,2.5-5,2.5C196.9,422.9,175.4,422.9,152.2,422.9z"/>
	<path style="fill:#74AD42;" d="M447,287.8c1.4,5.6-1.9,6.6-7.4,6.4c-17.5-0.4-31.3-15.6-32.3-34.2c-0.2-3.7,1.7-3.9,4.6-4.2
		C428.7,254.4,446.8,270.3,447,287.8z"/>
	<path style="fill:#74AD42;" d="M438.2,257.7c-16.6-1-31.1-16.5-31.4-33.1c-0.1-4.5,1.8-5.2,5.5-5.3c16.8-0.5,34,15.5,34.7,32
		C447.2,258.3,442.8,257.9,438.2,257.7z"/>
	<path style="fill:#74AD42;" d="M493,261.1c-0.6,16.4-13.8,30.6-29.8,32.6c-5,0.6-8.4,0-8.7-6.4c-0.7-16.2,18-34.3,34.1-33.2
		C494.6,254.4,492.6,258.3,493,261.1z"/>
	<path style="fill:#74AD42;" d="M462.4,208.9c0.6,6.9-3.6,14-9,20.8c-2.9,3.6-4.4,2.8-7.3,0.2c-13.1-11.8-13.7-35.1-1.3-47.4
		c2.9-2.8,4.7-3.2,7.5-0.1C458.7,189.4,462.6,197.2,462.4,208.9z"/>
	<path style="fill:#74AD42;" d="M456.5,359.3c0.2-16.8,17.1-32.7,34-32.4c3.8,0.1,3.7,2,4,4.6c2,17.3-15.9,36.3-33.3,35.2
		C456.6,366.4,456.4,366.3,456.5,359.3z"/>
	<path style="fill:#74AD42;" d="M415.4,328.8c17.6,0.3,33.1,16.2,33.5,32.9c0.1,4.3-0.8,6.2-5.6,6c-16.4-0.5-32.1-14.5-34.1-30.8
		C408.6,331.4,409.6,327.5,415.4,328.8z"/>
	<path style="fill:#74AD42;" d="M454.2,250.3c0.2-16.5,15-32,30.8-32.4c5-0.1,7.7,1,7.5,6.7c-0.7,19.8-18.1,31.8-33.9,32.9
		C454.5,257.8,454.1,256.7,454.2,250.3z"/>
	<path style="fill:#74AD42;" d="M441.2,330.4c-17.5-0.5-32.6-15.5-32.7-31.9c0-4.9,1.4-6.5,6.5-6.5c16.7,0.2,34.4,18.1,33.7,34.6
		C448.4,332.8,443.6,329.3,441.2,330.4z"/>
	<path style="fill:#74AD42;" d="M461.5,330.2c-4.4,1.1-6.1-1.5-6.2-5.5c-0.6-16.3,15.2-33.4,31.3-34.1c4.6-0.2,7.7,1.2,7.7,6.6
		C494.1,313.8,478.5,329.7,461.5,330.2z"/>
	<path style="fill:#74AD42;" d="M460.1,393.9c0,4.1,0.6,8.3-0.2,12.3c-0.6,3.3-3.1,6.8-6.8,6.6c-3.2-0.2-5.4-3.3-5.7-6.6
		c-0.7-7.8-1.3-15.7-0.4-23.6c0.5-4.1,2.7-6.8,6.4-7.1c3.7-0.3,5.5,3.3,6.2,6.2c0.9,3.9,0.5,8.1,0.7,12.2
		C460.2,393.9,460.2,393.9,460.1,393.9z"/>
</g>
</svg>
