<?xml version="1.0" encoding="utf-8"?>
<!-- Generator: Adobe Illustrator 23.0.1, SVG Export Plug-In . SVG Version: 6.00 Build 0)  -->
<svg version="1.1" id="Layer_1" xmlns="http://www.w3.org/2000/svg" xmlns:xlink="http://www.w3.org/1999/xlink" x="0px" y="0px"
	 viewBox="0 0 512 512" style="enable-background:new 0 0 512 512;" xml:space="preserve">
<g>
	<path style="fill:#74AD42;" d="M397.6,256.9c3,7.8,3.8,15.8-4.2,21.4c-6.8,4.8-14.2,5.1-20.8-0.4c-7.2-6.1-6.7-13.5-2.9-21.4
		c4.1-8.4,8-17,12.7-27.3C389.4,239,394.1,247.7,397.6,256.9z"/>
	<path style="fill:#74AD42;" d="M255.6,9.5C119.6,8.9,8.8,122,9.6,252.3c-2.6,141.4,112,248,239.8,250.2c140,2.4,252.5-109.8,253-242.4
		C502.9,119.5,394.7,10.1,255.6,9.5z M297.2,456.5c-114.9,22.3-222.5-51-242.8-166.4c-9.8-55.5,2.9-106.8,35.5-153
		c5-7,8-8.3,14.9-1.2c26.2,26.9,53.2,53.1,80.1,79.3c5,4.9,4.6,6.4-2.1,9.2c-23.8,10-47.2,21-70.8,31.3
		c-21.7,9.5-24.9,24.8-8.2,41.8c22.7,23.1,45.6,46,68.7,68.7c14.8,14.5,27.7,31,44,44.1c17.2,13.9,30.7,10.7,39.5-9.4
		c11.3-25.8,22.4-51.8,33.5-77.7c31.2,31.2,61.7,61.7,92.8,92.7C358.1,436.8,329.3,450.3,297.2,456.5z M114.9,286.4
		c9.8,10,19.8,19.8,29.7,29.7c26.6,26.6,53.1,53.2,79.8,79.7c9.8,9.8,11.6,9.4,17.1-3c11.1-25.1,21.9-50.2,33-75.3
		c1.2-2.8,1.4-8.4,6.3-6.4c4.9,2,3,6.4,1.2,10.3c-11.2,25.5-22.1,51.1-33.5,76.5c-7.1,15.8-15.7,17.6-28.2,5.3
		c-37.3-36.8-74.4-73.9-111.2-111.2c-12.9-13-10.6-22.3,6.2-29.5c23-10,46.4-18.9,68.9-29.9c11.3-5.5,18.4-3.9,25.7,8.2
		c-20.2-2.1-36.5,5.2-52.9,12.7c-13,6-26,12-39.4,17.1C107.4,274.8,108.6,279.9,114.9,286.4z M299.4,154c-2.3-4.3-0.2-7.3,2.7-10.5
		c11.8-13,11.7-13.1,24.2-0.6c15.3,15.3,30.6,30.5,45.8,45.9c3.1,3.2,9.4,6.8,4.8,11.6c-4.9,5.2-7.8,15.5-17.9,12.4
		c-7.1-2.2-11.2,0.4-15.6,5.1c-14,15-31.7,27.2-37.5,48.6c-0.6,2-1.5,5.2-4.7,4c-3.1-1.1-3.9-4-2.8-7c2.6-7,5.5-14,8.8-22.3
		c-2.9-0.2-4.5-0.7-6-0.4c-25.7,6-41.7-9-57.1-25.9c-4.2-4.7-4.5-6.5,2-8.6c20.9-7,35.1-23.1,49.7-38.4
		C299.6,164,302.4,159.7,299.4,154z M423.4,372.4c-8.5,13-8.6,12.6-19.1,2c-28.7-29-57.5-58-86.7-86.5c-6.7-6.6-8.2-11.8-4.2-20.8
		c8.2-18.6,22.4-31.8,36.7-45.2c1.1-1,2-2.3,4-1.5c17.3,6.9,22.2-9.3,31-17.5c4.3-4,2.2-9.6-2.1-13.8
		c-20.1-20.1-40.2-40.1-60.2-60.3c-3.1-3.1-6.4-4.5-10.8-3.5c-10,2.3-22.2,19.9-20.8,30.5c0.4,3,0.4,5.5-1.7,7.8
		c-14.6,16-30.2,30.7-51.4,37.8c-6.8,2.3-9.5-2.6-12.9-6.1c-32.2-32.3-64.3-64.6-97.1-97.6c36.3-30.4,78.8-45.7,125.4-45.8
		c75.8-0.1,136.5,32.2,175.7,96.8C474.6,223.1,471.5,299,423.4,372.4z"/>
	<path style="fill:#74AD42;" d="M393.4,278.3c-6.8,4.8-14.2,5.1-20.8-0.4c-7.2-6.1-6.7-13.5-2.9-21.4c4.1-8.4,8-17,12.7-27.3
		c6.9,9.8,11.6,18.5,15.1,27.7C400.6,264.7,401.4,272.7,393.4,278.3z"/>
	<path style="fill:#74AD42;" d="M393.4,278.3c-6.8,4.8-14.2,5.1-20.8-0.4c-7.2-6.1-6.7-13.5-2.9-21.4c4.1-8.4,8-17,12.7-27.3
		c6.9,9.8,11.6,18.5,15.1,27.7C400.6,264.7,401.4,272.7,393.4,278.3z"/>
</g>
</svg>
