<?xml version="1.0" encoding="utf-8"?>
<!-- Generator: Adobe Illustrator 21.0.0, SVG Export Plug-In . SVG Version: 6.00 Build 0)  -->
<svg version="1.1" id="Layer_1" xmlns="http://www.w3.org/2000/svg" xmlns:xlink="http://www.w3.org/1999/xlink" x="0px" y="0px"
	 viewBox="0 0 512 512" style="enable-background:new 0 0 512 512;" xml:space="preserve">
<path style="fill:#F6F6F8;" d="M179.8,455.3c87.8-14.5,130.2-14.1,210.3,0.1c51.9,9.2,119.5-10.3,83.1-103.9c-14.9-38.4-29.6-67.9-21.4-142.3
	c7-63.3-14.8-85-77.3-75c-54.4,8.6-87.8,4.3-145.7-14c-63.1-19.9-120.8-5.7-112.3,77.1c7,68.5-3.1,102.8-22.3,145.7
	C60.8,417.5,99.7,468.6,179.8,455.3z"/>
<path style="fill:#FFC886;" d="M262.5,377.6c0,17.9-6,43.4-13.4,43.4c-7.4,0-13.4-25.5-13.4-43.4c0-17.9,7.9-21.5,13.4-21.5
	C254.6,356.1,262.5,359.7,262.5,377.6z"/>
<path style="fill:#1A1A1A;" d="M232.5,387.5c0.6,6.7,1.9,13.6,3.5,19.5c1.3,4.5,2.8,8.5,4.6,11.6c1.9,3.1,4.4,6.1,8.4,6.1c4,0,6.5-2.9,8.4-6.1
	c1.9-3.1,3.4-7.1,4.6-11.6c1.7-6,2.9-12.9,3.5-19.5h-7.5c-0.6,6.1-1.8,12.3-3.2,17.5c-1.2,4.1-2.5,7.6-3.9,9.8c-1,1.6-1.8,2.2-2,2.4
	c-0.2-0.2-1-0.7-2-2.4c-1.3-2.2-2.7-5.7-3.9-9.8c-1.5-5.2-2.6-11.5-3.2-17.5H232.5z"/>
<path style="fill:#1A1A1A;" d="M249.1,352.4c-3.5,0-8.1,1.3-11.6,5.3c-3.4,4-5.5,10.4-5.5,19.9c0,3.8,0.3,7.9,0.7,12h7.5
	c-0.5-4.2-0.8-8.3-0.8-12c0-8.4,1.9-12.8,3.7-15.1c1.9-2.2,4-2.7,5.9-2.7s4,0.5,5.9,2.7c1.9,2.2,3.7,6.7,3.7,15.1
	c0,3.7-0.3,7.9-0.8,12h7.5c0.5-4.1,0.7-8.2,0.7-12c0-9.5-2.1-15.8-5.5-19.9C257.2,353.7,252.6,352.4,249.1,352.4z"/>
<path style="fill:#FFC886;" d="M330,377.6c0,17.9-6,43.4-13.4,43.4c-7.4,0-13.4-25.5-13.4-43.4c0-17.9,7.9-21.5,13.4-21.5S330,359.7,330,377.6
	z"/>
<path style="fill:#1A1A1A;" d="M300,387.5c0.6,6.7,1.9,13.6,3.5,19.5c1.3,4.5,2.8,8.5,4.6,11.6c1.9,3.1,4.4,6.1,8.4,6.1c4,0,6.5-2.9,8.4-6.1
	c1.9-3.1,3.4-7.1,4.6-11.6c1.7-6,2.9-12.9,3.5-19.5h-7.5c-0.6,6.1-1.8,12.3-3.2,17.5c-1.2,4.1-2.5,7.6-3.9,9.8c-1,1.6-1.8,2.2-2,2.4
	c-0.2-0.2-1-0.7-2-2.4c-1.3-2.2-2.7-5.7-3.9-9.8c-1.5-5.2-2.6-11.5-3.2-17.5H300z"/>
<path style="fill:#1A1A1A;" d="M316.6,352.4c-3.5,0-8.1,1.3-11.6,5.3c-3.4,4-5.5,10.4-5.5,19.9c0,3.8,0.3,7.9,0.7,12h7.5
	c-0.5-4.2-0.8-8.3-0.8-12c0-8.4,1.9-12.8,3.7-15.1c1.9-2.2,4-2.7,5.9-2.7s4,0.5,5.9,2.7c1.9,2.2,3.7,6.7,3.7,15.1
	c0,3.7-0.3,7.9-0.8,12h7.5c0.5-4.1,0.7-8.2,0.7-12c0-9.5-2.1-15.8-5.5-19.9C324.7,353.7,320.2,352.4,316.6,352.4z"/>
<path style="fill:#FFC886;" d="M198.1,290.3c-6.9,16.6-22.1,37.8-29,35c-6.8-2.8-2.6-28.7,4.3-45.2c6.9-16.6,15.5-16.9,20.6-14.8
	C199,267.5,205,273.8,198.1,290.3z"/>
<path style="fill:#1A1A1A;" d="M166.7,288c-2,6.4-3.5,13.2-4.2,19.4c-0.6,4.6-0.7,8.9-0.2,12.5c0.5,3.6,1.7,7.3,5.4,8.8
	c3.7,1.5,7.1-0.2,10.1-2.4c2.9-2.2,5.8-5.3,8.7-9c3.8-4.9,7.6-10.8,10.8-16.7l-6.9-2.9c-2.9,5.4-6.3,10.7-9.7,15
	c-2.6,3.4-5.3,6.1-7.3,7.6c-1.5,1.1-2.5,1.3-2.8,1.4c-0.1-0.2-0.7-1.1-0.9-3c-0.4-2.5-0.3-6.3,0.2-10.5c0.6-5.4,2-11.6,3.7-17.4
	L166.7,288z"/>
<path style="fill:#1A1A1A;" d="M195.4,261.9c-3.3-1.4-8-1.9-12.7,0.5s-9.1,7.5-12.7,16.3c-1.5,3.5-2.8,7.4-3.9,11.4l6.9,2.9
	c1.1-4,2.4-8,3.9-11.4c3.2-7.8,6.6-11.2,9.2-12.5s4.7-1,6.5-0.3c1.8,0.7,3.5,2,4.4,4.8c0.9,2.8,0.9,7.6-2.3,15.4
	c-1.4,3.4-3.3,7.2-5.3,10.8l6.9,2.9c2-3.6,3.8-7.3,5.3-10.8c3.6-8.8,4.1-15.4,2.5-20.5C202.4,266.2,198.7,263.3,195.4,261.9z"/>
<path style="fill:#FFC886;" d="M370.2,280.7c14.2-10.9,38.1-21.7,42.6-15.8c4.5,5.9-12.1,26.1-26.3,37c-14.2,10.9-21.9,6.8-25.2,2.5
	C357.9,300.1,356,291.7,370.2,280.7z"/>
<path style="fill:#1A1A1A;" d="M396.3,298.5c4.9-4.6,9.6-9.7,13.3-14.7c2.8-3.7,5.1-7.4,6.4-10.8c1.3-3.4,2.1-7.2-0.3-10.4
	c-2.4-3.2-6.3-3.4-9.9-3c-3.6,0.4-7.7,1.7-12,3.4c-5.8,2.3-12,5.5-17.7,9.1l4.6,6c5.2-3.2,10.8-6.1,15.9-8.1c4-1.6,7.6-2.6,10.1-2.9
	c1.9-0.2,2.8,0.1,3.1,0.1c0,0.3,0,1.2-0.7,3c-0.9,2.4-2.9,5.6-5.4,9c-3.3,4.4-7.5,9.1-11.9,13.2L396.3,298.5z"/>
<path style="fill:#1A1A1A;" d="M358.3,306.7c2.2,2.8,6,5.7,11.3,5.9c5.3,0.3,11.6-1.9,19.1-7.7c3-2.3,6.1-5,9.1-7.9l-4.6-6
	c-3,2.9-6.1,5.7-9.1,7.9c-6.7,5.1-11.3,6.3-14.2,6.2c-2.9-0.1-4.6-1.5-5.7-3c-1.2-1.5-2-3.5-1.4-6.3c0.6-2.9,3-7,9.7-12.1
	c3-2.3,6.4-4.6,10-6.7l-4.6-6c-3.5,2.1-6.9,4.4-10,6.7c-7.5,5.8-11.3,11.3-12.4,16.5C354.4,299.4,356.1,303.9,358.3,306.7z"/>
<path style="fill:#1A1A1A;" d="M178.9,274.7c-0.4,4.7-0.6,9.4-0.6,14.2c0,57.7,46.9,104.6,104.6,104.6c57.7,0,104.6-46.9,104.6-104.6
	c0-4.8-0.2-9.6-0.6-14.2h-12c0.5,4.6,0.7,9.4,0.7,14.2c0,51.2-41.4,92.6-92.6,92.6c-51.2,0-92.6-41.4-92.6-92.6
	c0-4.8,0.2-9.6,0.7-14.2H178.9z"/>
<path style="fill:#1A1A1A;" d="M264.2,139.8c-18.2,0-33.2,14.9-33.2,33.2v0v0c0,1.5,0.4,2.9,0.6,4.4c-28.7,20.5-50.1,57-53,101.1h12
	c3-41.8,24-75.9,50.7-93.5l3.6-2.4l-1.1-4.2c-0.5-1.8-0.7-3.6-0.7-5.5c0-11.8,9.4-21.2,21.2-21.2l0,0h0c5.4,0,10.6,2.1,14.6,5.8
	l4.1,3.9l4.1-3.9c3.9-3.7,9.2-5.8,14.6-5.8c11.8,0,21.2,9.4,21.2,21.2c0,1.9-0.2,3.7-0.7,5.5l-1.1,4.2l3.6,2.4
	c26.6,17.6,47.6,51.7,50.6,93.5h12c-2.9-44.1-24.3-80.6-53-101.1c0.2-1.5,0.6-2.9,0.6-4.4c0-18.2-14.9-33.2-33.2-33.2
	c-6.7,0-13.2,2.1-18.7,5.9C277.4,141.9,270.9,139.8,264.2,139.8z"/>
<path style="fill:#1A1A1A;" d="M267.8,45.8c-15.4,0-27.9,12.6-27.9,27.9c0,11,6.5,20.8,16.2,25.3v116H268V90.4l-4.4-1.2
	c-7-1.9-11.8-8.2-11.8-15.4c0-8.9,7.1-16,16-16c4.1,0,8,1.6,11,4.4l4.1,3.9l4.1-3.9c3-2.8,6.9-4.4,11-4.4c8.9,0,16,7.1,16,16
	c0,7.2-4.8,13.5-11.8,15.4l-4.4,1.2v124.7h11.9v-116c9.7-4.5,16.2-14.3,16.2-25.3l0,0l0,0c0-15.4-12.6-27.9-27.9-27.9
	c-5.4,0-10.6,1.6-15.1,4.4C278.4,47.4,273.2,45.8,267.8,45.8C267.8,45.8,267.8,45.8,267.8,45.8z"/>
<rect x="262" y="74.5" style="fill:#FFFFFF;" width="41.7" height="140.6"/>
<circle style="fill:#FFFFFF;" cx="297.9" cy="73.8" r="22"/>
<path style="fill:#DCD2CD;" d="M297.9,51.8c-0.6,0-1.2,0-1.8,0.1c6.3,4,10.1,11,10.1,18.5c0,9.9-6.6,18.6-16.2,21.2v120.1h-28v3.4h41.7V94.9
	c9.6-2.6,16.2-11.3,16.2-21.2C319.9,61.6,310.1,51.8,297.9,51.8z"/>
<path style="fill:#FFFFFF;" d="M267.8,51.8c-12.1,0-22,9.8-22,22c0,12.1,9.8,22,22,22c5.8,0,11.4-2.3,15.5-6.4c4.1-4.1,6.4-9.7,6.4-15.5
	c0-5.8-2.3-11.4-6.4-15.5S273.6,51.8,267.8,51.8z"/>
<path style="fill:#DCD2CD;" d="M262,132.4v82.7h41.7v-95.2H290C290,143.9,266.4,142.9,262,132.4z"/>
<path style="fill:#1A1A1A;" d="M267.8,50.3c-12.9,0-23.5,10.5-23.5,23.5c0,10.2,6.6,19,16.2,22.1v119.2h3V93.8l-1.1-0.3
	c-8.9-2.4-15.1-10.5-15.1-19.7c0-11.3,9.1-20.5,20.5-20.5c5.2,0,10.3,2,14,5.6l1,1l1-1c3.8-3.6,8.8-5.6,14.1-5.6
	c11.3,0,20.5,9.1,20.5,20.5c0,9.2-6.2,17.3-15.1,19.7l-1.1,0.3v121.3h3V95.9c9.6-3.1,16.2-12,16.2-22.1c0-12.9-10.5-23.5-23.5-23.5
	c-5.6,0-10.9,2.1-15.1,5.6C278.6,52.4,273.3,50.3,267.8,50.3z"/>
<path style="fill:#FFA867;" d="M301.5,145.8c-7.2,0-14.1,2.9-19.2,8s-8,12-8,19.2c0,7.2,2.9,14.1,8,19.2c5.1,5.1,12,8,19.2,8
	c15,0,27.2-12.2,27.2-27.2c0-7.2-2.9-14.1-8-19.2S308.7,145.8,301.5,145.8z"/>
<path style="fill:#FFA867;" d="M282.8,165.6c-50,0-98.6,52.8-98.6,123.3c0,54.5,44.1,98.6,98.6,98.6c54.5,0,98.6-44.1,98.6-98.6
	C381.5,218.5,332.8,165.6,282.8,165.6z"/>
<path style="fill:#FFA867;" d="M264.2,145.8c-7.2,0-14.1,2.9-19.2,8c-5.1,5.1-8,12-8,19.2c0,15,12.2,27.2,27.2,27.2c7.2,0,14.1-2.9,19.2-8
	c5.1-5.1,8-12,8-19.2c0-7.2-2.9-14.1-8-19.2C278.3,148.6,271.4,145.8,264.2,145.8z"/>
<path style="fill:#FFC886;" d="M264.2,145.8c-7.2,0-14.1,2.9-19.2,8c-5.1,5.1-8,12-8,19.2c0,2.4,0.3,4.7,1,7c-7,4.6-13.5,10.2-19.5,16.8
	c0.1,0.3,0.3,0.6,0.4,0.9c-1.1,0.7-2.1,1.4-3.1,2.1c-18.9,22.1-31.5,53.3-31.5,89.1c0,2.9,0.1,5.9,0.4,8.7
	c12.3,32.6,43.7,54.1,78.8,54.2c22.3,0,43.8-8.8,59.6-24.4c15.8-15.7,24.7-36.9,24.7-59c0-31-17.4-59.5-45.2-73.9
	c2.5-5.7,3.7-11.9,3.7-18.2c0-10.9-3.9-21.5-10.9-29.8c-4.7,1.1-9,3.4-12.4,6.7C277.8,148.4,271.1,145.8,264.2,145.8z"/>
<path style="fill:#FFE2AF;" d="M264.2,145.8c-7.2,0-14.1,2.9-19.2,8c-5.1,5.1-8,12-8,19.2c0,2.4,0.3,4.7,1,7c-22.2,14.7-40.4,39.8-48.8,70.9
	c6.9,21.6,27,36.3,49.6,36.3c28.8,0,52.2-23.4,52.2-52.4c0-16.1-7.4-31.2-20-41.1c3.3-6.4,5-13.5,5-20.7c0-9.7-3.1-19.2-8.8-27
	C266.2,145.8,265.2,145.8,264.2,145.8z"/>
<path style="fill:#1A1A1A;" d="M183.4,274.7c-0.4,4.6-0.7,9.4-0.7,14.2c0,55.3,44.8,100.1,100.1,100.1c55.3,0,100.1-44.8,100.1-100.1
	c0-4.8-0.2-9.6-0.7-14.2h-3c0.4,4.6,0.7,9.4,0.7,14.2c0,53.7-43.5,97.1-97.1,97.1c-53.7,0-97.1-43.5-97.1-97.1
	c0-4.8,0.2-9.6,0.7-14.2H183.4z"/>
<path style="fill:#FFA867;" d="M290.5,314.8c-5.5,0-10,4.5-10,10c0,5.5,4.5,10,10,10c2.6,0,5.2-1,7-2.9c1.9-1.9,2.9-4.4,2.9-7
	C300.4,319.3,296,314.8,290.5,314.8z"/>
<path style="fill:#FFA867;" d="M259.1,306.3c-1.5,0-2.9,0.6-4,1.6s-1.6,2.5-1.6,4c0,3.1,2.5,5.6,5.6,5.6c3.1,0,5.6-2.5,5.6-5.6
	c0-1.5-0.6-2.9-1.6-4C262,306.9,260.6,306.3,259.1,306.3z"/>
<path style="fill:#FFA867;" d="M325.2,232.3c-3.1,0-5.6,2.5-5.6,5.6s2.5,5.6,5.6,5.6c1.5,0,2.9-0.6,4-1.6c1.1-1.1,1.6-2.5,1.6-4
	c0-1.5-0.6-2.9-1.6-4C328.1,232.9,326.7,232.3,325.2,232.3z"/>
<path style="fill:#FFC886;" d="M236.3,265.8c-3.1,0-5.6,2.5-5.6,5.6c0,3.1,2.5,5.6,5.6,5.6c1.5,0,2.9-0.6,4-1.6c1.1-1.1,1.6-2.5,1.6-4
	c0-1.5-0.6-2.9-1.6-4C239.3,266.4,237.8,265.8,236.3,265.8z"/>
<path style="fill:#FFC886;" d="M259.3,208.6c-3.1,0-5.6,2.5-5.6,5.6c0,3.1,2.5,5.6,5.6,5.6c1.5,0,2.9-0.6,4-1.6c1.1-1.1,1.6-2.5,1.6-4
	c0-1.5-0.6-2.9-1.6-4C262.2,209.2,260.8,208.6,259.3,208.6z"/>
<path style="fill:#FFFFFF;" d="M233.1,195.7c-21.5,19.8-36.6,51.8-36.6,89.5c0,40.6,26.7,74.8,63.1,85.3c-31.2-17.1-52.4-51-52.4-90
	C207.1,247.3,217.3,217.9,233.1,195.7z"/>
<path style="fill:#1A1A1A;" d="M264.2,144.3L264.2,144.3c-15.8,0-28.7,12.9-28.7,28.7c0,2.2,0.4,4.3,0.9,6.4c-28.5,19.3-50.3,55.3-53.3,99.2h3
	c3-43.3,24.7-78.7,52.7-97.3l0.9-0.6l-0.3-1c-0.6-2.2-0.9-4.4-0.9-6.6c0-14.2,11.5-25.7,25.7-25.7v0c6.6,0,12.9,2.5,17.6,7l1,1l1-1
	c4.8-4.5,11.1-7,17.7-7c14.2,0,25.7,11.5,25.7,25.7c0,2.2-0.3,4.5-0.9,6.7l-0.3,1l0.9,0.6c28,18.5,49.6,54,52.7,97.2h3
	c-3-43.9-24.7-79.9-53.2-99.2c0.5-2.1,0.8-4.2,0.9-6.4c0-15.8-12.9-28.7-28.7-28.7c-6.9,0-13.5,2.6-18.7,7.1
	C277.7,146.8,271.1,144.3,264.2,144.3z"/>
<path style="fill:#1A1A1A;" d="M251.2,231.7c8.5,0,15.4,6.8,15.4,15.4v7.7c0,8.5-6.9,15.4-15.4,15.4s-15.4-6.9-15.4-15.4v-7.7
	C235.8,238.5,242.7,231.7,251.2,231.7z"/>
<circle style="fill:#FFFFFF;" cx="255.1" cy="242.7" r="5"/>
<path style="fill:#1A1A1A;" d="M314.5,231.7c8.5,0,15.4,6.8,15.4,15.4v7.7c0,8.5-6.8,15.4-15.4,15.4c-8.5,0-15.4-6.9-15.4-15.4v-7.7
	C299.2,238.5,306,231.7,314.5,231.7z"/>
<path style="fill:#FFFFFF;" d="M318.5,237.8c-2.7,0-5,2.2-5,5c0,2.7,2.2,5,5,5c1.3,0,2.6-0.5,3.5-1.5c0.9-0.9,1.5-2.2,1.5-3.5
	c0-1.3-0.5-2.6-1.5-3.5S319.8,237.8,318.5,237.8z"/>
<path style="fill:#AF0035;" d="M248.3,278.8c-4,0-7.2,3.2-7.2,7.2v8.1c0,23,18.7,41.7,41.7,41.7c23,0,41.7-18.7,41.7-41.7V286
	c0-4-3.2-7.2-7.2-7.2H248.3z"/>
<path style="fill:#FF5574;" d="M282.8,301.5c-13.9,0-26.1,6.8-33.7,17.2c7.6,10.4,19.9,17.2,33.7,17.2c13.9,0,26.1-6.8,33.7-17.2
	C309,308.2,296.7,301.5,282.8,301.5z"/>
<path style="fill:#1A1A1A;" d="M281.8,277.3v3h35.6c3.2,0,5.7,2.5,5.7,5.7v8.1c0,22.2-18,40.2-40.2,40.2c-0.4,0-0.7,0-1.1,0v3
	c0.4,0,0.7,0,1.1,0c23.8,0,43.2-19.4,43.2-43.2V286c0-4.8-3.9-8.7-8.7-8.7L281.8,277.3z"/>
<path style="fill:#1A1A1A;" d="M248.3,277.3c-4.8,0-8.7,3.9-8.7,8.7v8.1c0,23.8,19.4,43.2,43.2,43.2c0.4,0,0.7,0,1.1,0v-3c-0.4,0-0.7,0-1.1,0
	c-22.2,0-40.2-18-40.2-40.2V286c0-3.2,2.5-5.7,5.7-5.7h35.6v-3L248.3,277.3z"/>
<polygon style="fill:#1A1A1A;" points="419.7,178.1 419.7,190 480.1,190 480.1,262.1 419.7,262.1 419.7,274 492,274 492,178.1 "/>
<polygon style="fill:#1A1A1A;" points="349.5,178.1 349.5,184.1 349.5,274 421.8,274 421.8,262.1 361.4,262.1 361.4,190 421.8,190 
	421.8,178.1 "/>
<rect x="355.4" y="184.1" style="fill:#F3FFEA;" width="130.6" height="84"/>
<rect x="458" y="184.1" style="fill:#FFC886;0" width="28" height="84"/>
<polygon style="fill:#FFC886;0" points="393.5,184.1 420.1,184.1 420.1,222.2 406.8,214.5 393.5,222.2 "/>
<polygon style="fill:#1A1A1A;" points="419.7,182.6 419.7,185.6 484.5,185.6 484.5,266.5 419.7,266.5 419.7,269.5 487.5,269.5 487.5,182.6 "/>
<rect x="456.6" y="184.1" style="fill:#1A1A1A;" width="3" height="84"/>
<polygon style="fill:#1A1A1A;" points="392.1,184.1 392.1,224.8 406.8,216.3 421.6,224.8 421.6,184.1 418.6,184.1 418.6,219.6 406.8,212.8 
	395,219.6 395,184.1 "/>
<polygon style="fill:#1A1A1A;" points="353.9,182.6 353.9,184.1 353.9,269.5 421.8,269.5 421.8,266.5 356.9,266.5 356.9,185.6 421.8,185.6 
	421.8,182.6 "/>
<polygon style="fill:#1A1A1A;" points="88.6,327.3 88.6,339.2 149,339.2 149,411.2 88.6,411.2 88.6,423.2 160.9,423.2 160.9,327.3 "/>
<polygon style="fill:#1A1A1A;" points="18.4,327.3 18.4,333.2 18.4,423.2 90.7,423.2 90.7,411.2 30.3,411.2 30.3,339.2 90.7,339.2 90.7,327.3 
	"/>
<rect x="24.3" y="333.2" style="fill:#F3FFEA;" width="130.6" height="84"/>
<polygon style="fill:#1A1A1A;" points="88.6,331.8 88.6,334.7 153.4,334.7 153.4,415.7 88.6,415.7 88.6,418.7 156.4,418.7 156.4,331.8 "/>
<rect x="37.6" y="383.6" style="fill:#FFC886;0" width="32.4" height="20.2"/>
<polygon style="fill:#1A1A1A;" points="52.8,382.1 52.8,385.1 68.5,385.1 68.5,402.4 52.8,402.4 52.8,405.4 71.5,405.4 71.5,382.1 "/>
<rect x="43.9" y="389.2" style="fill:#1A1A1A;" width="19.8" height="3"/>
<rect x="43.9" y="395.3" style="fill:#1A1A1A;" width="19.8" height="3"/>
<polygon style="fill:#1A1A1A;" points="22.8,331.8 22.8,333.2 22.8,418.7 90.7,418.7 90.7,415.7 25.8,415.7 25.8,334.7 90.7,334.7 90.7,331.8 
	"/>
<polygon style="fill:#1A1A1A;" points="36.2,382.1 36.2,383.6 36.2,405.4 54.9,405.4 54.9,402.4 39.1,402.4 39.1,385.1 54.9,385.1 54.9,382.1 
	"/>
</svg>
