<?xml version="1.0" encoding="utf-8"?>
<!-- Generator: Adobe Illustrator 21.0.0, SVG Export Plug-In . SVG Version: 6.00 Build 0)  -->
<svg version="1.1" id="Layer_1" xmlns="http://www.w3.org/2000/svg" xmlns:xlink="http://www.w3.org/1999/xlink" x="0px" y="0px"
	 viewBox="0 0 512 512" style="enable-background:new 0 0 512 512;" xml:space="preserve">
<g>
	<path style="fill:#73AD43;" d="M423.8,214.8c12.4-8,20-21.7,20-36.5v-68.9c0-18.3-12-34.3-29.5-39.5c-17.5-5.2-36.3,1.8-46.2,17.2
		c-19.7-20.6-47-32.2-75.5-32.2h-71c-27.7-0.1-54.4,11-73.9,30.6c-0.5,0.5-1,1-1.5,1.6c-9.9-15.3-28.7-22.3-46.2-17.2
		c-17.5,5.2-29.5,21.2-29.5,39.5h13.3c0-12.4,8.1-23.2,20-26.7c11.9-3.5,24.6,1.3,31.3,11.7l43.2,67.2h-25l-44.7-44.7l-9.4,9.4
		l44.7,44.7v7.2c0,16.6-13.4,30-30,30s-30-13.4-30-30v-56.7H70.3v56.7c0,14.8,7.5,28.5,20,36.5c-20.4,10.2-33.2,31-33.3,53.7
		c0,31.2,22.6,63.8,45.4,83.4c8.1,7,15.2,14.9,21.3,23.6c6.1,8.8,11,18.2,14.7,28.2l6,16.4l-1.1,9.5c-0.9,7.9,2.4,15.6,8.6,20.5
		c6.2,4.9,14.5,6.2,22,3.5c6.6-2.4,13.1-4.8,19.7-7.2c7.4-2.7,12.9-9.1,14.5-16.9c1.6-7.8-1-15.8-6.7-21.2l-6.9-6.5l-6-16.4
		c-2.4-6.6-4.3-13.5-5.6-20.4l-13.1,2.4c1.4,7.7,3.5,15.2,6.2,22.6l6.6,17.9c0.4,1,0.9,1.8,1.7,2.6l8.1,7.6c2.4,2.3,3.5,5.6,2.8,8.8
		c-0.7,3.2-2.9,5.9-6,7l-19.7,7.2c-2.4,0.9-5,0.8-7.3-0.3c-2.3-1.1-4.1-3-4.9-5.4c-0.5-1.4-0.7-2.9-0.5-4.3l1.2-11
		c0.1-1,0-2.1-0.4-3l-6.6-17.9c-4.1-11.1-9.5-21.6-16.2-31.2c-6.7-9.7-14.6-18.5-23.5-26.2c-19.6-16.9-40.8-46.2-40.8-73.3
		c0.1-19.6,12.3-37,30.6-43.8c8.3-3.1,17.3-3.7,25.9-1.8l13.2,72.3c1.3,7.4,3.5,14.6,6.6,21.5c5.4,12.2,13.2,23.2,23,32.4
		c18,16.7,41.6,26,66.2,26h42.8c19.2,0,37.9-5.6,53.9-16.3c-1.2,9.1-3.4,18.1-6.6,26.7l-6,16.4l-6.9,6.5c-5.8,5.4-8.3,13.5-6.7,21.2
		c1.6,7.8,7.1,14.1,14.5,16.9l19.7,7.2c5.7,2.1,12,1.8,17.5-0.7c5.5-2.5,9.8-7.2,11.8-12.9c1.2-3.3,1.6-6.9,1.3-10.4l-1.1-9.5
		l6-16.4c7.4-20.1,19.7-37.9,35.9-51.9c9-7.8,17-16.7,23.8-26.5l-11-7.6c-6.1,8.9-13.3,16.9-21.5,24c-17.9,15.4-31.6,35.2-39.7,57.4
		l-6.6,17.9c-0.4,1-0.5,2-0.4,3l1.2,11c0.3,2.7-0.6,5.4-2.4,7.4c-1.8,2-4.4,3.2-7.1,3.2c-1.1,0-2.2-0.2-3.3-0.6l-19.7-7.2
		c-3.1-1.1-5.4-3.8-6-7c-0.7-3.2,0.4-6.6,2.8-8.8l8.1-7.6c0.8-0.7,1.3-1.6,1.7-2.6l6.6-17.9c5.1-13.8,7.9-28.3,8.4-43
		c14.3-14,23.9-32.2,27.5-51.9l13.2-72.3c8.6-1.9,17.6-1.2,25.9,1.8c18.4,6.8,30.6,24.3,30.6,43.8c0,13.1-6.3,27-12.5,38.4l11.7,6.4
		c7.3-13.4,14.2-29.2,14.2-44.8C457,245.8,444.1,225,423.8,214.8L423.8,214.8z M402.6,81.6c15.4,0,27.8,12.5,27.8,27.8v68.9
		c0,16.6-13.4,30-30,30c-16.6,0-30-13.4-30-30v-7.2l44.7-44.7l-9.4-9.4L361,161.6h-25l43.2-67.2C384.3,86.4,393.1,81.6,402.6,81.6
		L402.6,81.6z M361,292.8c-7.1,39.2-42.4,68.9-82.6,68.9h-42.8c-39.9,0-75.4-29.7-82.6-68.9l-14.4-79.1
		c11.5-8.1,18.3-21.3,18.3-35.4V175h33.3c2.4,0,4.7-1.3,5.9-3.5c1.2-2.1,1.1-4.7-0.2-6.8l-42.4-66c1.1-1.3,2.3-2.5,3.5-3.7
		c17.1-17.2,40.3-26.8,64.5-26.7h71c26-0.1,50.7,11,68,30.4l-42.4,66c-1.3,2.1-1.4,4.7-0.2,6.8c1.2,2.1,3.4,3.5,5.9,3.5H357v3.3
		c0,14.1,6.8,27.3,18.3,35.4L361,292.8z M361,292.8"/>
	<path style="fill:#73AD43;" d="M334.7,288c-1.6,8.7-5.2,17-10.5,24.1c-3.1,4.1-6.7,7.8-10.8,10.9l8.1,10.6c5-3.9,9.5-8.4,13.4-13.5
		c6.6-8.8,11-19,13-29.7l2.6-14.2l-13.1-2.4L334.7,288z M334.7,288"/>
	<path style="fill:#73AD43;" d="M257,111.3c-13.9-14.6-33.2-23-53.4-23v13.3c18.9,0,36.7,8.9,48,24c1.3,1.7,3.2,2.7,5.3,2.7
		c2.1,0,4.1-1,5.3-2.7c11.4-15.1,29.1-24,48-24V88.3C290.2,88.3,270.9,96.6,257,111.3L257,111.3z M257,111.3"/>
	<rect x="250.3" y="148.3" style="fill:#73AD43;" width="13.3" height="106.7"/>
</g>
</svg>
