<?xml version="1.0" encoding="utf-8"?>
<!-- Generator: Adobe Illustrator 23.0.1, SVG Export Plug-In . SVG Version: 6.00 Build 0)  -->
<svg version="1.1" id="Layer_1" xmlns="http://www.w3.org/2000/svg" xmlns:xlink="http://www.w3.org/1999/xlink" x="0px" y="0px"
	 viewBox="0 0 512 512" style="enable-background:new 0 0 512 512;" xml:space="preserve">
<g>
	<path style="fill:#74AD42;" d="M293.8,432.5c2.3,2.3,4.8,4.4,6.9,7c5.4,6.6,6.2,13.4,0,20.1c-6.5,6.8-12.6,3.9-18.5-0.8
		c-2.1-1.7-3.9-4-5.8-5.9c-4-1.6-6.9-4.5-9-6.8c3.4,2.3,2.9,8.4,6.9,11.7c4.7,8.3,6,16.8-4.7,20.7c-10.6,3.9-18.7-2.9-19.2-12.5
		c-1.1-23.8-21.7-33.5-33.5-49.2c-9.8-13-23.3-23.4-33.1-36.8c-11.6-15.8-37.3-15.8-49.3,1.5c-6,8.6-11.3,8.8-19.6,5.6
		c-12.5-4.9-25.3-9.1-38.1-13.5c-4.9-1.7-7.7-3.4-5.8-10c8.1-27.7,15.9-55.5,23-83.5c2.1-8.3,5.4-8.2,11.7-5.6
		c10.7,4.4,21.7,8.3,32.5,12.6c13,5.1,25,4.7,37.2-3.2c10.5-6.8,21.2-13.5,33.1-17.9c6.8-2.5,13.5-3.3,20.5-3.2
		c8,0,17.4,2.8,19.3,8.8c1.9,6.1-8.6,7.8-13.7,11.2c-7.3,5-15.2,9.2-22.5,14.2c-14,9.7-17.8,27.4-9.4,42.1c8,14,22,17.9,38.5,10.8
		c0.9-0.4,1.7-0.7,2.6-1.1c44-20.5,34.5-21.8,68.6,12.8c11.1,11.3,21.9,22.9,32.9,34.4c6.2,6.5,11.5,13.7,3.5,21.8
		c-8.5,8.7-15.9,3.3-22.7-3.5c-4.6-4.6-9.4-8.9-16.7-15.7c3.9,9.5,9.4,13.6,13.5,18.7c6.1,7.6,11.9,15.9,2.1,24.3
		c-8.6,7.4-15.4,1-21.8-4.9c-2.4-2.2-4.9-4.3-7.3-6.4c-3.4-1.4-6.3-3.4-7.4-4.8C289.9,426.5,292.2,429.2,293.8,432.5z"/>
	<path style="fill:#74AD42;" d="M330.1,103.3c0.1-6.9-1.8-11.2-9-13.5c-21.7-6.9-43.3-14.3-64.9-21.6c-4.5-1.5-8.5-1.9-13.4-0.1
		c-20.5,7.3-41.2,14.1-62,20.5c-8.4,2.6-12.3,7.1-12,16c0.4,15.2,0.1,30.4,0.1,45.6h-0.1c0,10.2,0.5,20.4-0.1,30.5
		c-1.4,25.8,8.3,47.2,25.4,65.8c5.2,5.6,10.2,8.2,18.4,5.5c13.4-4.5,27.8-4.4,38.3,5.5c10.2,9.6,18.2,6.9,27.7,0.8
		c2.7-1.8,5.6-3.6,8.6-4.6c30.8-10.1,41.6-34.2,42.9-63.5C330.9,161.3,329.9,132.3,330.1,103.3z M314.8,131.6
		c-18.3,22.9-36.6,45.9-54.8,68.8c-4.9,6.2-9.9,12.4-14.9,18.5c-2.4,2.9-4.6,6.1-9,5.7c-3.1-0.1-5-2.2-7-4.1
		c-11.5-10.2-22.9-20.6-34.6-30.5c-5.7-4.9-6.8-9.6-1.8-15.5c4.9-5.7,9.7-4,14.5,0.1c6.7,5.8,13.7,11.3,20.1,17.4
		c5.8,5.6,9.7,4.8,14.6-1.5c16.5-21.4,33.6-42.4,50.5-63.5c2.3-2.9,4.7-5.8,7.3-8.4c3.9-4,7.7-9.1,14.1-4
		C320.2,119.7,319.6,125.6,314.8,131.6z"/>
	<path style="fill:#74AD42;" d="M437.1,361c-15.3,7.8-30.3,16.4-45.8,24c-11.4,5.6-22.2,5.1-31.8-4.9c-18-18.8-36.4-37.3-54.7-55.8
		c-13.2-13.4-17.1-13.9-34.1-4.9c-10.7,5.6-21.2,11.6-32,17.1c-9.9,5-19.5,4.7-25.4-5.9c-5.5-9.8-1.8-18,7.6-23.6
		c24.3-14.6,48.4-29.5,73.1-43.6c7.8-4.5,16.2-2.9,23.4,3.4c8.8,7.6,18.2,14.6,26.5,22.7c9.4,9.2,18.7,12,31.3,6.2
		c12.1-5.6,25.2-9.2,37.9-13.7c4.9,11.3,9.7,22.6,14.6,33.9c4.5,11.5,8.6,23.1,13.5,34.4C443.5,355.7,442.2,358.4,437.1,361z"/>
	<path style="fill:#74AD42;" d="M360.6,145.3c-2.2,22.4,3.6,50.1-3,77.3c-3.1,13-10.1,24-17.3,34.9c-2.6,4-5.6,6.7-10.2,3.3
		c-3.7-2.7-8.5-5.9-4.3-11.3c25-32.8,18-71.1,18.8-108.1c0.3-15.4-0.4-30.9,0.2-46.3c0.4-10.2-2.3-15.9-13.3-19.1
		c-23.2-6.8-45.9-15.4-68.6-23.7c-8.2-3-16-3.8-24.4-0.9c-24.6,8.7-49.1,17.4-73.9,25.5c-6.9,2.3-9.6,5.8-9.5,13.1
		c0.3,36.5,0.1,72.9,0.2,109.4c0,21.2,9.8,38.4,22.3,54.6c2.5,3.3,9.1,6.9,1.9,12.4c-6.5,4.9-10.6,4.3-15.9-2.6
		c-15.8-20.7-25.4-43-25.2-69.5c0.3-39.6,0.2-79.3-0.3-118.9c-0.1-9.6,3.3-13.6,12.3-16.7c28.2-9.7,56-20.3,83.7-31.2
		c10.1-4,18.9-4.5,29.5-0.3c28.5,11.4,57.6,21.5,86.5,31.7c7.6,2.7,10.8,6.8,10.6,15.3C360.1,96.3,360.6,118.2,360.6,145.3z"/>
	<path style="fill:#74AD42;" d="M503,335.1c-11-23.7-20.7-47.9-31.2-71.8c-15.8-35.8-14.3-30.3-43.8-17.1c-13,5.9-17,13.2-10.8,26
		c6.3,13,14.3,25.3,16.7,39.9c4.7,10.8,8.8,21.9,14.1,32.4c16.1,31.6,16,30.9,47.2,15C507.5,353.3,508.4,346.6,503,335.1z
		 M472.8,359.6c-4.5-0.1-7.9-2.7-7.4-7.9c0.5-4.7,3.8-8,8.2-7.8c4.3,0.2,7.5,3.3,7.3,8.4C480.8,357.4,477.3,359.7,472.8,359.6z"/>
	<path style="fill:#74AD42;" d="M50.2,243c10.6,3.3,21.4,6.2,31.8,10c7.2,2.6,7.3,9.4,5.7,15.4c-9.1,33.7-18.4,67.3-28.1,100.8
		c-2.4,8.3-8.2,12.2-17.3,8.5c-2.1-0.9-4.7-0.7-6.8-1.7c-8.7-4.1-19.2-3.6-26.3-11.8c-9.3-10.7,3.2-17.2,5-25.4
		c6.1-27.7,14.5-54.9,21.9-82.3C38.1,249.4,40.6,243,50.2,243z"/>
	<path style="fill:#74AD42;" d="M200.2,461.3c-13.9,2-24,1.4-22-14.3c0.7-5.8-2.2-6.2-6.4-5.9c-9.7,0.6-14.3-4.9-13.1-13.7
		c1-7.8-2.9-6.5-7.7-6.8c-8.2-0.6-12.5-5.4-12.3-14c0.3-11.7,6.1-19.4,17.1-22.8c8.1-2.5,15.8-0.7,18.4,7.9
		c2.1,7.2,9.8,10.7,11.3,14.2c6.5,15.4,28.4,17.4,29.5,35.8c0.3,5.5,3.9,5,7.4,6c11.9,3.5,16.7,14.7,10.3,25.1
		c-5.2,8.4-14.1,16.5-22.9,14.4C199.7,484.9,193.7,474.9,200.2,461.3z"/>
	<path style="fill:#74AD42;" d="M274.3,457.7c-7.3-4.9-11.2-12.6-19.5-22.1c12.2,4,17.6,9.7,21.6,17.1C273.6,453.5,274.9,456,274.3,457.7z"/>
	<path style="fill:#74AD42;" d="M293.8,432.5c-7.2-2.9-10.8-9.2-18.2-16.7c11.8,2,16.7,7.5,20.6,14.3C295.4,430.9,294.6,431.7,293.8,432.5z"/>
</g>
</svg>
