<?xml version="1.0" encoding="utf-8"?>
<!-- Generator: Adobe Illustrator 23.0.1, SVG Export Plug-In . SVG Version: 6.00 Build 0)  -->
<svg version="1.1" id="Layer_1" xmlns="http://www.w3.org/2000/svg" xmlns:xlink="http://www.w3.org/1999/xlink" x="0px" y="0px"
	 viewBox="0 0 512 512" style="enable-background:new 0 0 512 512;" xml:space="preserve">
<g>
	<path style="fill:#74AD42;" d="M239.5,361.9c8.6,14.1,19.6,19.1,34.1,17c4.2-0.6,8.6-0.8,12.7,0c33.2,7,56.9-11,80.9-29.6
		c24.2-18.9,49.2-36.8,74.2-54.7c13.9-10,29.3-15.3,46.6-9.3c16.1,5.6,19.3,19.4,6.5,30.9c-35.2,31.6-70.7,62.9-106.3,94.2
		c-10.4,9.1-20.1,19-31.8,26.7c-12.9,8.6-27,12.9-42.4,12.9c-51,0-102,0.2-153-0.2c-8.7-0.1-14,2.4-18.5,10.2
		c-7.5,12.9-16.8,24.8-24.9,37.4c-2.8,4.3-4.5,3.8-7.7,0.6c-32.4-32.6-64.9-65.1-97.5-97.6c-2.5-2.5-4.7-4.1-0.6-8
		c30-28.9,60.3-57.5,89.3-87.4c29.6-30.6,77.5-41.2,116.7-22.5c16.1,7.7,33.2,8.4,50.6,8.3c13.8-0.1,27.7-1.2,41.5,1.1
		c20.4,3.4,34.7,18.1,33.7,35.7c-1,18.5-18,33.9-38.3,34.2C283.9,362.1,262.4,361.9,239.5,361.9z"/>
	<path style="fill:#74AD42;" d="M362.6,183.5c-9.4-0.7-18.3,1.6-27.3,3.5c-3.8,0.8-9.2,3.5-11.5-1.1c-1.9-3.9-0.8-8.8,1.9-13.2
		c11.6-18.9,36.2-27.3,56.5-18.7c16.1,6.8,29.8,17.4,43.4,28.1c4.1,3.2,4.6,6,1.2,10.4c-7.6,10.1-14.3,21-21.9,31.1
		c-18.7,24.7-43.3,28.6-68.2,10.6c-5.3-3.8-7.6-3.4-11.9,0.9c-7.3,7.3-11.6,16.2-16.5,24.9c-4.7,8.4-11.4,12.9-20.8,10.1
		c-9.3-2.7-13.3-10.2-12.8-19.7c3.2-52.1,3.8-104.5,18.9-155.2c4.6-15.5,11.9-29.6,21.4-43.7c-26.1,8.2-40.5,35.7-42.6,58.6
		c-0.5,6-0.4,12.3-7.7,13.6c-6.7,1.2-8.8-4.8-11.3-9.5c-20.2-37.6-1-78.6,42.4-90.6c22.6-6.3,46.7-3.8,68.9-12.1
		c2.9-1.1,4,1.1,4.4,3.8c5.9,35.5,7.9,70.4-14.5,102.1c-8.8,12.5-19.6,22-34.1,25.8c-8.9,2.3-11.4,6.6-12,15.1
		c-1.3,20.5-3.7,40.9-5.9,64.2c18.1-18.2,37.3-29.6,59.8-35c2.7-2.9,6.7-1.3,9.8-3.1C369,185.7,365.6,186.2,362.6,183.5z"/>
	<path style="fill:#74AD42;" d="M205.2,185.5c13.6,3.9,27.1,7.6,39,15.3c12.9,8.4,14.3,19.1,3.8,30.4c-16.8,18.2-44.5,19.1-63,2
		c-13.4-12.4-22.6-28-32.5-43c-1.9-2.8-2-4.6,0.7-6.5c16.9-11.8,31.5-27.1,52.7-31.8c20.3-4.5,41.6,5.2,50.5,23.3
		c2.1,4.4,3.9,9.3,1.1,13.1c-2.9,4-7.5,1.3-11.7,0.3C232.6,185.3,219.3,181.7,205.2,185.5z"/>
	<path style="fill:#74AD42;" d="M362.6,183.5c3.8-0.7,7.5-0.8,11.4,0.6c-3.1,3.6-7,4.3-11.4,3.6C362.6,186.3,362.6,184.9,362.6,183.5z"/>
</g>
</svg>
