<?xml version="1.0" encoding="utf-8"?>
<!-- Generator: Adobe Illustrator 23.0.1, SVG Export Plug-In . SVG Version: 6.00 Build 0)  -->
<svg version="1.1" id="Layer_1" xmlns="http://www.w3.org/2000/svg" xmlns:xlink="http://www.w3.org/1999/xlink" x="0px" y="0px"
	 viewBox="0 0 512 512" style="enable-background:new 0 0 512 512;" xml:space="preserve">
<g>
	<path style="fill:#74AD42;" d="M147.8,195.4c29.6,21.1,55.6,45.7,76.6,75.3c8.3,11.7,16,23.7,22.2,36.6c14.9,31.4,4.9,59.2-26.4,73.5
		c-67.3,30.8-152.9-4.2-179-73.5c-14.7-39-20.1-80-22.8-121.4c-1.1-18-1.9-36-3.2-54c-0.6-7.9,0.5-12.5,10.4-13.5
		c45.3-4.9,90-15.4,135.8-14.4c58.1,1.3,104.9,24.6,135.3,75.1c16.7,27.7,20.6,58.7,13.6,90.5c-4.8,21.8-18.9,25.8-35.3,9.2
		c-26.6-26.9-53.8-52.9-88-70.1c-12.1-6.1-24.4-11.5-36.6-17.2C149.4,192.7,148.6,194.1,147.8,195.4z"/>
	<path style="fill:#74AD42;" d="M417.9,299.7c-23.7,6.9-42,21.6-59.1,38.3c-5.4,5.3-10.1,14.5-19.2,10.9c-9.7-3.8-6.9-14.1-8-22.4
		c-5-40.1,35.7-78.7,81.3-79.8c25.6-0.6,50.5,5.3,75.8,7.7c7,0.7,8.4,4.9,8.3,11c-0.1,33-2.2,65.7-14.1,96.8
		c-14.8,38.9-64.9,57.6-101.5,38.6c-16.6-8.6-21.3-22.5-13.1-39.8C379.9,336.6,398.1,317.6,417.9,299.7z"/>
</g>
</svg>
