<?xml version="1.0" encoding="utf-8"?>
<!-- Generator: Adobe Illustrator 23.0.1, SVG Export Plug-In . SVG Version: 6.00 Build 0)  -->
<svg version="1.1" id="Layer_1" xmlns="http://www.w3.org/2000/svg" xmlns:xlink="http://www.w3.org/1999/xlink" x="0px" y="0px"
	 viewBox="0 0 512 80" style="enable-background:new 0 0 512 80;" xml:space="preserve">
<g>
	<linearGradient id="SVGID_1_" gradientUnits="userSpaceOnUse" x1="43.7919" y1="32.3696" x2="61.8419" y2="14.3196">
		<stop  offset="0" style="stop-color:#E74042"/>
		<stop  offset="1" style="stop-color:#CF203B"/>
	</linearGradient>
	<path style="fill:url(#SVGID_1_);" d="M41,43.6V26.8c0-9.2,7.4-16.1,16.6-16.1h6.7v16.2L41,43.6z"/>
	<g>
		<path style="fill:#57B647;" d="M451.7,71.5c-4.5,0-9.1,0-13.9,0c-0.1-0.4-0.3-0.8-0.3-1.2c0-8.1,0.1-16.3,0-24.4c0-2-0.1-4.1-0.6-6
			c-0.6-2.3-1.9-4-4.7-4.2c-3.4-0.3-6.6,1-7.6,4c-1.1,3.1-1.9,6.4-2,9.7c-0.3,7.3-0.1,14.6-0.1,22c-4.9,0-9.6,0-14.6,0c0-1,0-2,0-3
			c-0.2-9-0.3-17.9-0.5-26.9c-0.1-2.4-0.7-4.9-3.4-5.6c-2.9-0.8-5.6-0.4-7.8,2c-3,3.3-3.2,7.4-3.3,11.5c-0.1,6.5,0,12.9,0,19.4
			c0,0.8,0,1.6,0,2.6c-4.9,0-9.5,0-14.4,0c0-15.1,0-30.2,0-45.5c4.7,0,9.4,0,14.3,0c0,2,0,3.9,0,6.4c4.1-4.8,8.5-7.9,14.6-7.7
			c6.1,0.2,10.5,2.9,13.6,8.6c0.8-0.9,1.4-1.7,2-2.4c6.1-7.5,17.4-8.4,24.3-2c2.6,2.5,4.2,5.7,4.3,9.1
			C451.9,49,451.7,60.2,451.7,71.5z"/>
		<path style="fill:#57B647;" d="M308.2,42.2c0.5-4.3-1.1-6.6-5.3-7.4c-6.9-1.3-13.6-0.7-20.1,2.3c-0.5,0.2-1,0.4-1.8,0.8c0-3.7,0-7.3,0-11.2
			c3.5-0.5,7.1-1.3,10.7-1.6c6.2-0.6,12.4-1,18.4,0.7c7.7,2.1,12.3,7.2,12.7,15.2c0.4,10,0.2,19.9,0.2,29.9c0,0.1-0.1,0.3-0.2,0.6
			c-4.7,0-9.4,0-14.4,0c0-2,0-4,0-6.6c-3.2,4.1-6.6,6.8-11.2,7.5c-7.7,1.2-15.2-0.4-18.5-6.9c-4.4-8.7-2.4-20.6,12.2-22.5
			c4.7-0.6,9.5-0.5,14.3-0.7C306.2,42.2,307.2,42.2,308.2,42.2z M308.2,50.7c-4.1,0.3-8.1,0.3-12,0.8c-2.8,0.4-4.5,2.8-4.6,5.5
			c0,2.8,1.5,4.6,4.4,5.6C302.6,64.8,309.6,58.4,308.2,50.7z"/>
		<path style="fill:#57B647;" d="M165,25.9c5,0,9.7,0,14.5,0c0,15.2,0,30.3,0,45.6c-4.8,0-9.4,0-14.3,0c0-2,0-3.9,0-6.5
			c-1.5,1.4-2.6,2.5-3.8,3.4c-6.8,5.7-16.7,5.9-22.8,0.5c-2.9-2.6-4.5-6.1-4.6-9.7c-0.3-11-0.1-22-0.1-33.2c4.5,0,9.2,0,14.2,0
			c0,3.2,0,6.2,0,9.3c0.1,6.6,0.2,13.2,0.3,19.8c0.1,2.9,1.3,5.3,4.2,6.2c3,0.9,5.9,0.4,8.4-1.8c3.4-3.1,3.9-7.3,4-11.5
			c0.1-6.4,0-12.7,0-19.1C165,27.9,165,27,165,25.9z"/>
		<path style="fill:#57B647;" d="M40.2,48.4c0-7.6,1.8-14.4,8.3-19.2c3.6-2.6,7.6-3.9,11.9-3.9c3.7,0,7.4-0.1,10.9,0.7
			c10.2,2.5,14.5,9.4,15.4,18.6c0.4,4.2,0,8.8-1.1,12.9c-2.5,9.4-9.6,13.6-18.4,14.3c-4.3,0.4-8.9-0.1-13.1-1.2
			c-8.3-2.2-13.7-10-14-19C40.2,50.6,40.2,49.5,40.2,48.4z M73.2,48.5c-0.1,0-0.2,0-0.3,0c0-1.2,0.1-2.3,0-3.5
			c-0.4-5.1-3.6-8.8-8-9.1c-5.7-0.4-9.5,2.1-10.3,7.8c-0.5,3.9-0.3,8,0.4,11.9c0.7,4.1,4.2,6.1,8.9,6.1c4.3-0.1,7.3-2.1,8.3-6.2
			C72.7,53.2,72.9,50.8,73.2,48.5z"/>
		<path style="fill:#57B647;" d="M501.8,37.7c-4.3-1.1-8.2-2.5-12.3-3c-3.3-0.5-6.8-0.1-10.2,0.2c-1.9,0.2-3.1,1.7-3,3.7
			c0.1,1.9,1.4,3,3.2,3.3c4.7,0.9,9.4,1.5,14,2.6c4.9,1.1,9.2,3,10.7,8.6c2.6,9.6-2,17-12.2,18.9c-9.4,1.7-18.8,0.5-28-2
			c0-3.6,0-7.1,0-10.7c3.5,1,7,2.4,10.5,2.9c4.1,0.6,8.3,0.5,12.4,0.3c2.2-0.1,4.1-1.5,4-4c0-2.4-1.7-3.6-4-4
			c-4.1-0.6-8.3-1.1-12.3-2.1c-5.1-1.3-9.4-3.5-10.8-9.4c-2.1-8.8,2.7-16.3,11.6-17.6c8.4-1.2,16.7-0.6,24.8,1.5
			c0.6,0.2,1.5,0.9,1.5,1.4C501.9,31.4,501.8,34.6,501.8,37.7z"/>
		<path style="fill:#57B647;" d="M229.3,26.8c0,3.9,0,7.4,0,10.9c-4.1-1.1-8-2.4-12.1-3c-3.3-0.5-6.8-0.1-10.2,0.2c-1.9,0.2-3.3,1.6-3.2,3.6
			c0.1,2,1.5,3.1,3.5,3.4c4.6,0.8,9.2,1.6,13.8,2.5c6.9,1.4,10.6,4.9,11.3,10.4c1.2,9.4-3.8,15.9-13.2,17.2
			c-9.2,1.3-18.3,0.4-27.4-2.2c0-3.6,0-7.1,0-10.4c4.5,1.1,9,2.5,13.5,3.2c3.2,0.5,6.5,0.1,9.7-0.3c2.1-0.3,3.8-1.7,3.7-4.1
			c-0.1-2.3-1.7-3.5-4-3.9c-4.1-0.7-8.3-1.2-12.3-2.1c-3.9-0.9-7.6-2.5-9.8-6.3c-5-8.8,0.6-19.6,10.8-20.7c4.3-0.5,8.7-0.7,13-0.5
			C220.7,25.1,224.9,26.1,229.3,26.8z"/>
		<path style="fill:#57B647;" d="M245.6,36.1c-2.6,0-4.8,0-7.1,0c0-3.4,0-6.6,0-10.2c2.2,0,4.5,0,6.8,0c0.2-2.5,0.3-4.6,0.6-6.8
			c0.7-5.6,3.9-9.4,9.4-10.3c6-1,12.1-1.1,18.4-1.6c0,3.7,0,6.7,0,10c-2,0-3.9,0-5.8,0c-6.9,0-8,1.2-7.6,8.4c4,0,8.1,0,12.3,0
			c0,3.5,0,6.7,0,10.3c-4,0-8.1,0-12.4,0c0,12,0,23.7,0,35.5c-4.9,0-9.6,0-14.5,0C245.6,59.8,245.6,48.1,245.6,36.1z"/>
		<path style="fill:#57B647;" d="M123.6,61.1c0,3.1,0,5.8,0,8.6c0,0.6-0.1,1.1-0.2,2.2c-6.3-0.3-12.5-0.3-18.6-1c-5.6-0.7-8.7-4.3-9.2-10
			C95.1,54.9,95.2,49,95,43c-0.1-2.2,0-4.5,0-7c-2.5,0-4.7,0-7.1,0c0-3.5,0-6.7,0-10.2c2.3,0,4.5,0,7,0c0-4.5,0-8.7,0-13
			c4.9,0,9.6,0,14.5,0c0,4.2,0,8.4,0,12.9c5.2,0,10.1,0,15.1,0c0,3.5,0,6.7,0,10.2c-4.9,0-9.7,0-14.7,0c-0.1,0.9-0.2,1.5-0.2,2.1
			c0,5.8-0.1,11.6,0,17.3c0.1,4.4,1.2,5.5,5.5,5.7C117.8,61.1,120.5,61.1,123.6,61.1z"/>
		<path style="fill:#57B647;" d="M41,72.1c-11.3,0-22.5,0-33.9,0c0-19.5,0-38.9,0-58.4c4.1,0,8.1,0,12.4,0c0,16,0,31.9,0,48.2
			c4.4,0,8.5,0.1,12.6,0C38.3,61.6,42.2,65.8,41,72.1z"/>
		<path style="fill:#57B647;" d="M337.2,71.4c0-15.2,0-30.3,0-45.5c4.8,0,9.4,0,14.4,0c0,2.1,0,4.3,0,6.2c2.9-2.1,5.4-4.9,8.5-6.1
			c3.2-1.3,6.9-1.2,10.7-1.7c0,4.9,0,9.1,0,13.5c-1.5-0.3-3-0.7-4.4-1c-8.6-1.6-14.5,3-14.7,11.8c-0.2,7,0,14.1-0.1,21.1
			c0,0.5,0,1,0,1.7C346.8,71.4,342.1,71.4,337.2,71.4z"/>
	</g>
</g>
</svg>
