<?xml version="1.0" encoding="utf-8"?>
<!-- Generator: Adobe Illustrator 21.0.0, SVG Export Plug-In . SVG Version: 6.00 Build 0)  -->
<svg version="1.1" id="Layer_1" xmlns="http://www.w3.org/2000/svg" xmlns:xlink="http://www.w3.org/1999/xlink" x="0px" y="0px"
	 viewBox="0 0 512 512" style="enable-background:new 0 0 512 512;" xml:space="preserve">
<g>
	<path style="fill:#73AD43;" d="M188.4,385.9c18.4,18.2,43.7,29.4,71.6,29.4c27.9,0,53.2-11.2,71.6-29.4c0.2-0.1,0.3-0.3,0.5-0.4
		c0.1-0.1,0.3-0.3,0.4-0.5c18.2-18.4,29.5-43.7,29.5-71.6c0-27.8-11.2-53-29.3-71.4c-0.2-0.2-0.4-0.5-0.6-0.7
		c-0.2-0.2-0.4-0.4-0.7-0.6c-18.4-18.1-43.6-29.2-71.4-29.2c-27.8,0-53,11.2-71.4,29.2c-0.2,0.2-0.5,0.4-0.7,0.6
		c-0.2,0.2-0.4,0.4-0.6,0.7c-18.1,18.4-29.3,43.6-29.3,71.4c0,27.9,11.3,53.2,29.5,71.6c0.1,0.2,0.3,0.3,0.4,0.5
		C188.1,385.6,188.3,385.7,188.4,385.9L188.4,385.9z M176,322.1h10c4.8,0,8.7-3.9,8.7-8.7c0-4.8-3.9-8.7-8.7-8.7h-10
		c1.7-16.8,8.4-32.1,18.5-44.5l7,7c1.7,1.7,3.9,2.6,6.2,2.6c2.2,0,4.5-0.9,6.2-2.6c3.4-3.4,3.4-8.9,0-12.3l-7-7
		c12.4-10.1,27.7-16.7,44.5-18.5v9.9c0,4.8,3.9,8.7,8.7,8.7c4.8,0,8.7-3.9,8.7-8.7v-9.9c16.8,1.7,32.1,8.4,44.5,18.5l-7,7
		c-3.4,3.4-3.4,8.9,0,12.3c1.7,1.7,3.9,2.6,6.2,2.6c2.2,0,4.5-0.8,6.2-2.6l7-7c10.1,12.4,16.8,27.7,18.5,44.5h-10
		c-4.8,0-8.7,3.9-8.7,8.7c0,4.8,3.9,8.7,8.7,8.7h10c-1.7,16.8-8.4,32.1-18.5,44.5l-7-7c-3.4-3.4-8.9-3.4-12.3,0
		c-3.4,3.4-3.4,8.9,0,12.3l7,7c-12.4,10.1-27.8,16.7-44.5,18.5v-10c0-4.8-3.9-8.7-8.7-8.7c-4.8,0-8.7,3.9-8.7,8.7v10
		c-16.8-1.7-32.1-8.4-44.5-18.5l7-7c3.4-3.4,3.4-8.9,0-12.3c-3.4-3.4-8.9-3.4-12.3,0l-7,7C184.3,354.2,177.7,338.9,176,322.1
		L176,322.1z M176,322.1"/>
	<path style="fill:#73AD43;" d="M260,338.4c13.5,0,24.4-11.2,24.4-25c0-10.6-6.5-19.7-15.7-23.3v-13.9c0-4.8-3.9-8.7-8.7-8.7
		c-4.8,0-8.7,3.9-8.7,8.7v13.9c-9.2,3.6-15.7,12.7-15.7,23.3C235.6,327.2,246.6,338.4,260,338.4L260,338.4z M260,320.9
		c-3.8,0-7-3.4-7-7.5c0-4.1,3.1-7.5,7-7.5c3.8,0,7,3.4,7,7.5C267,317.6,263.9,320.9,260,320.9L260,320.9z M260,320.9"/>
	<path style="fill:#73AD43;" d="M412.4,206.5c-5-18.1-20.3-29.7-39-29.7h-25.7v-40.1h66.9c35.8,0,65-29.1,65-64.9c0-4.8-3.9-8.7-8.7-8.7H41.1
		c-4.8,0-8.7,3.9-8.7,8.7c0,35.8,29.2,64.9,65,64.9h70.7v40.1h-21.5c-18.7,0-34,11.7-39,29.7l-20.6,74c-1.3,4.6,1.4,9.4,6.1,10.7
		c4.6,1.3,9.4-1.4,10.7-6.1l20.6-74c2.3-8.2,9.3-16.9,22.2-16.9h226.7c12.9,0,19.9,8.8,22.2,16.9l56.2,202.2
		c1.2,4.3,2,10.2-1.1,14.2c-2.8,3.6-7.9,4.9-11.7,4.9H81.1c-3.8,0-8.9-1.3-11.7-4.9c-3.1-4-2.3-10-1.1-14.2L84.5,355
		c1.3-4.6-1.4-9.4-6.1-10.7c-4.6-1.3-9.4,1.4-10.7,6.1l-16.2,58.4c-4.1,14.6-0.1,24.1,4,29.5c5.6,7.4,15.2,11.8,25.6,11.8H439
		c10.4,0,20-4.4,25.6-11.8c4.1-5.4,8.1-14.9,4-29.5L412.4,206.5z M50.7,80.6h410.7c-4.1,22-23.5,38.8-46.7,38.8H97.4
		C74.2,119.3,54.8,102.6,50.7,80.6L50.7,80.6z M293.7,136.8v40.1h-71.6v-40.1H293.7z M185.6,176.8v-40.1h19v40.1H185.6z
		 M311.2,176.8v-40.1h19.1v40.1H311.2z M311.2,176.8"/>
	<path style="fill:#73AD43;" d="M82.5,328c0.9,0.3,1.8,0.4,2.8,0.4c3.6,0,7.1-2.3,8.3-6l0.1-0.1c1.5-4.6-0.9-9.5-5.5-11
		c-4.6-1.5-9.5,0.9-11,5.5L77,317C75.4,321.6,77.9,326.5,82.5,328L82.5,328z M82.5,328"/>
</g>
</svg>
