<?xml version="1.0" encoding="utf-8"?>
<!-- Generator: Adobe Illustrator 21.0.0, SVG Export Plug-In . SVG Version: 6.00 Build 0)  -->
<svg version="1.1" id="Layer_1" xmlns="http://www.w3.org/2000/svg" xmlns:xlink="http://www.w3.org/1999/xlink" x="0px" y="0px"
	 viewBox="0 0 512 512" style="enable-background:new 0 0 512 512;" xml:space="preserve">
<g>
	<path style="fill:#73AD43;" d="M416,117.5L416,117.5c-4.6,0-8.3,3.7-8.3,8.3c0,4.6,3.7,8.3,8.3,8.3c4.6,0,8.3-3.7,8.3-8.3
		C424.3,121.2,420.6,117.5,416,117.5L416,117.5z M416,117.5"/>
	<path style="fill:#73AD43;" d="M416.1,160.1c0,4.6,3.7,8.3,8.3,8.3s8.3-3.7,8.3-8.3c0-4.6-3.7-8.3-8.3-8.3h0
		C419.8,151.8,416.1,155.5,416.1,160.1L416.1,160.1z M416.1,160.1"/>
	<path style="fill:#73AD43;" d="M394.4,160.4c4.6,0,8.3-3.7,8.3-8.3c0-4.6-3.7-8.3-8.3-8.3h0c-4.6,0-8.3,3.7-8.3,8.3
		C386.1,156.7,389.8,160.4,394.4,160.4L394.4,160.4z M394.4,160.4"/>
	<path style="fill:#73AD43;" d="M379.6,115.2L379.6,115.2c-4.6,0-8.3,3.7-8.3,8.3c0,4.6,3.7,8.3,8.3,8.3c4.6,0,8.3-3.7,8.3-8.3
		C387.9,118.9,384.1,115.2,379.6,115.2L379.6,115.2z M379.6,115.2"/>
	<path style="fill:#73AD43;" d="M274.9,115.4c2.1,0,4.2-0.8,5.9-2.4l0,0c3.2-3.2,3.2-8.5,0-11.7c-3.2-3.2-8.5-3.2-11.7,0
		c-3.2,3.2-3.2,8.5,0,11.7C270.6,114.6,272.7,115.4,274.9,115.4L274.9,115.4z M274.9,115.4"/>
	<path style="fill:#73AD43;" d="M410,314.7c4.6-6.1,6.5-13.6,8.4-20.9c0.7-2.9,1.4-5.6,2.3-8.2c7.6-23.2,16.2-36.2,24.5-48.9
		c12.8-19.4,23.9-36.2,23.9-79.8c0-59.5-48.4-107.9-107.9-107.9c-24.6,0-48.7,8.5-67.8,23.9c-3.6,2.9-4.1,8.1-1.2,11.7
		c2.9,3.6,8.1,4.1,11.7,1.2c16.4-13.2,36.2-20.2,57.4-20.2c50.4,0,91.4,41,91.4,91.3c0,38.6-8.9,52-21.2,70.6
		c-8.5,12.9-18.2,27.5-26.4,52.8c-1,3.1-1.8,6.2-2.6,9.2c-3.6,13.8-5.7,18.9-14.7,19.2c-0.3,0-0.6,0-0.9,0c-0.1,0-0.1,0-0.2,0
		c-0.4,0-0.8,0-1.3,0c-0.1,0-0.2,0-0.3,0h-47.7c-0.1,0-0.2,0-0.3,0c-0.4,0-0.9,0-1.3,0c-0.1,0-0.1,0-0.2,0c-0.3,0-0.6,0-0.9,0
		c-9-0.3-11.2-5.5-14.7-19.3c-0.8-3-1.6-6.1-2.6-9.1c-8.3-25.3-17.9-40-26.4-52.8c-12.3-18.6-21.2-32-21.2-70.6c0-5,0.4-10.1,1.2-15
		c0.7-4.5-2.3-8.8-6.8-9.5c-4.5-0.7-8.8,2.3-9.5,6.8c-0.9,5.8-1.4,11.7-1.4,17.7c0,43.6,11.1,60.4,23.9,79.8
		c8.3,12.6,16.9,25.6,24.5,48.8c0.8,2.6,1.5,5.3,2.3,8.1c1.9,7.3,3.8,14.8,8.4,20.9c3.6,4.8,8.3,8,14.1,9.6l-3.6,63
		c-14.9,5.3-24.8,19.2-24.8,35.7c0,21,20.8,38,38,38c12.1,0,19.8-4,25.2-9.1c5.4,5.1,13.1,9.1,25.2,9.1c17.2,0,38-16.9,38-38
		c0-16.4-9.9-30.3-24.8-35.6l-3.6-63C401.7,322.6,406.4,319.4,410,314.7L410,314.7z M407.7,422.9c0,10.8-12.2,21.4-21.4,21.4
		c-10,0-14.1-3.6-18.2-10.1c-1.5-2.4-4.2-3.9-7-3.9c0,0,0,0,0,0c-2.9,0-5.5,1.5-7,3.9c-4.1,6.5-8.2,10.1-18.2,10.1
		c-9.1,0-21.4-10.6-21.4-21.4c0-10.7,7.1-19.2,17.7-21.1c3.8-0.7,6.6-3.9,6.8-7.7l3.9-68.7h36.5l3.9,68.7c0.2,3.8,3,7,6.8,7.7
		C400.6,403.7,407.7,412.2,407.7,422.9L407.7,422.9z M407.7,422.9"/>
	<path style="fill:#73AD43;" d="M207.2,376L207.2,376c-4.6,0-8.3,3.7-8.3,8.3c0,4.6,3.7,8.3,8.3,8.3c4.6,0,8.3-3.7,8.3-8.3
		C215.5,379.7,211.8,376,207.2,376L207.2,376z M207.2,376"/>
	<path style="fill:#73AD43;" d="M215.6,341.6L215.6,341.6c-4.6,0-8.3,3.7-8.3,8.3c0,4.6,3.7,8.3,8.3,8.3c4.6,0,8.3-3.7,8.3-8.3
		C223.8,345.3,220.1,341.6,215.6,341.6L215.6,341.6z M215.6,341.6"/>
	<path style="fill:#73AD43;" d="M185.6,349.6L185.6,349.6c-4.6,0-8.3,3.7-8.3,8.3c0,4.6,3.7,8.3,8.3,8.3c4.6,0,8.3-3.7,8.3-8.3
		C193.8,353.3,190.1,349.6,185.6,349.6L185.6,349.6z M185.6,349.6"/>
	<path style="fill:#73AD43;" d="M171.3,378.2L171.3,378.2c-4.6,0-8.3,3.7-8.3,8.3c0,4.6,3.7,8.3,8.3,8.3c4.6,0,8.3-3.7,8.3-8.3
		C179.6,381.9,175.9,378.2,171.3,378.2L171.3,378.2z M171.3,378.2"/>
	<path style="fill:#73AD43;" d="M236.9,273.2c-8.3-12.6-16.9-25.6-24.5-48.9c-0.8-2.6-1.5-5.3-2.3-8.2c-2.9-11.3-6.8-26.3-22.5-30.5l3.6-63
		c14.9-5.3,24.8-19.2,24.8-35.7c0-21-20.8-37.9-38-37.9c-12,0-19.8,4-25.2,9c-5.4-5.1-13.1-9-25.2-9c-17.2,0-38,16.9-38,37.9
		c0,16.5,9.9,30.3,24.8,35.7l3.6,63c-15.7,4.2-19.5,19.2-22.5,30.5c-0.7,2.9-1.4,5.6-2.3,8.2c-7.6,23.2-16.2,36.3-24.5,48.9
		C56,292.6,44.9,309.4,44.9,353c0,59.5,48.4,107.9,107.9,107.9c51.6,0,96.1-36.7,106-87.2c1.3-6.8,2-13.8,2-20.7
		c0-10.5-0.6-19.7-1.9-28.1C255.1,300.8,246.3,287.4,236.9,273.2L236.9,273.2z M106.2,87.1c0-10.8,12.3-21.4,21.4-21.4
		c10,0,14.1,3.5,18.1,10.1c1.5,2.4,4.2,3.9,7,3.9h0c2.9,0,5.5-1.5,7-3.9c4.1-6.5,8.2-10.1,18.2-10.1c9.2,0,21.4,10.6,21.4,21.4
		c0,10.7-7.1,19.2-17.6,21.1c-3.8,0.7-6.6,3.8-6.8,7.7l-3.9,68.8h-36.5l-3.9-68.8c-0.2-3.8-3.1-7-6.8-7.7
		C113.3,106.3,106.2,97.8,106.2,87.1L106.2,87.1z M242.5,370.5c-8.3,42.7-46,73.8-89.7,73.8c-50.4,0-91.4-41-91.4-91.3
		c0-38.6,8.9-52,21.1-70.6c8.5-12.9,18.2-27.5,26.4-52.9c1-3.1,1.8-6.2,2.6-9.1c3.7-14.2,5.7-18.9,14.9-19.2c0.2,0,0.5,0,0.7,0
		c0.1,0,0.1,0,0.2,0c0.1,0,0.2,0,0.2,0c0.3,0,0.6,0,0.8,0c0.2,0,0.3,0,0.5,0h47.7c0.2,0,0.3,0,0.5,0c0.3,0,0.7,0,1,0
		c0.1,0,0.1,0,0.2,0c0.2,0,0.3,0,0.5,0c0.1,0,0.2,0,0.2,0c9.2,0.3,11.2,5.1,14.9,19.2c0.8,3,1.6,6.1,2.6,9.1
		c8.3,25.4,17.9,40,26.4,52.9c9.1,13.7,16.2,24.5,19.4,45c1.2,7.6,1.7,15.9,1.7,25.6C244.2,358.9,243.7,364.8,242.5,370.5
		L242.5,370.5z M242.5,370.5"/>
</g>
</svg>
