<?xml version="1.0" encoding="utf-8"?>
<!-- Generator: Adobe Illustrator 23.0.1, SVG Export Plug-In . SVG Version: 6.00 Build 0)  -->
<svg version="1.1" id="Layer_1" xmlns="http://www.w3.org/2000/svg" xmlns:xlink="http://www.w3.org/1999/xlink" x="0px" y="0px"
	 viewBox="0 0 512 512" style="enable-background:new 0 0 512 512;" xml:space="preserve">
<g>
	<path style="fill:#74AD42;" d="M490.8,256.3c-8-1.6-15.7-5.3-23.5-7.8c-4.6-1.5-6.7-4.5-7.5-9.3c-1.8-11.6-1.7-21.6,12.2-26.3
		c5.8-2,10.7-6.5,16.3-9.5c5.6-2.9,6.3-6.6,4.5-12.6c-9.3-31.4-9.1-31.6-42.8-27.8c-8.5,1-14-0.6-19.3-8.9c-6-9.5-3.1-15,2.4-22.7
		c18.4-25.9,17.9-25.9-3.9-48.9c-5.1-5.4-8.9-5.8-14.9-2c-8.3,5.2-17.2,9.6-25.9,14.3c-3,1.7-5.7,3.7-9.7,1.2
		c-9.7-6.2-18.3-12-12.4-26c2.5-6,1.4-13.5,3.7-19.7c3.2-8.3-0.6-11-7.3-14c-28.9-12.9-28.9-13.1-47.5,12.6
		c-4.4,6.1-7.7,12.1-17.6,10c-9.9-2.1-16.3-5.2-17-16.6c-0.4-7.4-3.5-14.5-4.9-21.9c-1.2-6.2-3.3-9.9-10.8-9.1
		c-10.6,1.1-23.2-3.8-31.3,1.9c-7.1,5-5.5,18.1-8.2,27.5c-0.3,1.1-0.9,2.3-0.9,3.4c-0.4,8.8-5.3,12.9-13.6,14.3
		c-8.2,1.3-15.6,1.9-19.9-7.5c-1.8-3.8-5-7-7.6-10.5c-11.2-14.9-11.2-14.9-28.8-7.1c-3.6,1.6-7.2,3.2-10.9,4.5
		c-7.4,2.5-10.7,6.1-7.6,14.7c2.8,7.7,3.5,16.2,4.7,24.3c0.6,3.7,1.7,7.3-2.1,10.8c-12.3,11.5-16.3,12.3-31.3,4.3
		c-2.4-1.3-5-2.4-7.4-3.7C84.4,80,84.4,80,72.2,93.5c-15.5,17.1-16.2,17.7-1.8,35.7c8.3,10.5,9.8,18.5,1.7,29.7
		c-4.8,6.7-8.5,10.3-17,7.9c-5.2-1.4-11-0.9-18.8-1.5c-9.8-4.4-11.4,3.9-14,12.5c-7.8,26-8.4,26.5,15.3,39.7
		c9.6,5.3,9.3,12.1,8.3,20.4c-1,8.6-1.5,15.9-12.6,19.3c-25.7,8-24.8,8.7-22.4,35.8c1,11.6,5.6,15.5,16.7,15.4
		c7.2-0.1,15.8-0.3,21.4,4.4c9.5,8.2,8.9,28.7,0.1,37.3c-15.7,15.5-15.7,15.5-4.6,34.8c9.2,15.9,9.7,17.3,26.3,10.4
		c13.6-5.7,22.2-3,29.5,8.7c0.8,1.3,2.1,2.4,3.3,3.4c4.8,4.2,5.3,8.7,2.5,14.7c-3.7,7.7-10.3,17.1-8.3,23.5
		c2,6.7,13.6,9.9,19.4,16.1c8.7,9.2,16.1,7.6,23.1-0.9c10-12.1,20.2-14.4,34.4-5.9c7.6,4.5,12,7.6,11.9,17.2
		c-0.3,21.5,0.3,21.5,20.6,26.6c18.9,4.7,19.3,4.9,27.1-12.7c4.5-10.1,9.7-15.8,22.2-16.7c14.9-1.1,21.4,5,25.1,17.8
		c3.4,11.7,9,16.1,23,12c24-7.1,24.4-5.7,24.7-31.2c0-4.1-1.6-8.6,2.4-12.2c13.4-11.9,26.6-12.1,39.7-0.4c1.2,1,2.4,2.1,3.4,3.3
		c7.1,8.4,13.3,8,22.1,0.8c21.3-17.3,21.8-16.8,10.9-42.3c-1.8-4.3-4.5-8.4-1.9-13.5c7.5-14.2,16-17.9,31.7-13.6
		c2.7,0.7,5.7,0.8,8,2.2c10.2,5.9,15.8,2.3,21.2-7.5c13.6-24.6,14.7-25.3-7.4-43.1c-10.4-8.4-7.1-15.7-5.1-25.4
		c2.1-10.2,8.4-10.2,16.3-11.1c26.9-3.2,26.6-3.5,30.9-30.2C503.1,265.5,502.6,258.6,490.8,256.3z M259.5,400.7
		c-18.5,16.9-48.9,16.5-66.8-0.8c-19.1-18.5-21.2-47.8-3.4-67c6.3-6.8,8.2-13.4,8.2-22.1c-0.3-58.6-0.2-117.1-0.1-175.7
		c0-16.6,6.7-27.1,19.5-31.7c18-6.5,37.5,5.7,38.4,24.8c0.8,16.2-0.1,32.5,0.3,48.7c0.2,8.4-6.3,8.6-12.2,11.8
		c0-19.5,0.2-38-0.1-56.5c-0.1-9.2-4.6-16.3-14-18c-7.5-1.3-13.8,2.1-17.7,9.2c-2.3,4.1-1.4,8.5-1.4,12.8
		c-0.1,60.5-0.2,121.1,0.1,181.6c0,8.5-1.9,14.6-8.6,20.5c-14.8,13.1-16,34.5-3.9,48.8c12.9,15.3,33.9,18.3,50.1,7.3
		c14.9-10.1,19.6-32.5,10.4-48.7c-0.4-0.7-0.5-1.7-1.1-2.1c-21-12.7-11.9-33.3-13.9-51.2c9.6,1.2,13.7,5.7,12.3,15
		c-1.5,10.2,1.6,18.3,9.1,26.5C282,352.7,279,382.9,259.5,400.7z M219.7,285c0-4.1-1.4-8.6,6.2-8.3c6.8,0.3,7.9,3.2,7.8,8.7
		c-0.2,7.9,0,15.8,0,23.8c0,4.3,0.3,8.7,0,13c-0.7,9.3,0,16.7,9.9,22.5c10.3,5.9,12.3,18.5,7.8,29.5c-4.3,10.3-15.7,17.7-26.2,16.8
		c-12-1-21.7-9.2-24.4-20.8c-2.6-11.2,1.7-22.7,12.2-28.2c5.5-2.9,7-6.2,6.9-11.9C219.4,315.1,219.6,300.1,219.7,285z M383.2,222
		c-1.3,3.4-6.4,6.1-8.5,5.1c-14.4-7.3-23.4,4.8-34.5,9c-7.5,2.9-8,6.9-1,11.3c5.7,3.5,11.3,7.3,17.1,10.5c2.8,1.5,5.7,3.8,9.7,1
		c6.1-4.4,12.7-0.5,14.7,4.2c2.8,6.4,4.3,15.2-1.2,21.2c-12,13.2-22.7,10.5-27.8-6.4c-1.2-3.8-22.4-18.2-26.6-18.2
		c-3.5,0-3.5,2.4-3.6,4.7c0,4.8,0,9.5,0,14.3c0.5,7.9-2.7,16.9,6.3,22.5c0.6,0.4,1,1.3,1.1,2c1.1,6.9-0.3,13.2-7.3,15.7
		c-9.4,3.4-19.3,3.3-26.3-4.6c-4.2-4.8-4.3-11.3,2.2-16.4c4.4-3.5,7.4-29.9,4.8-35c-1.8-3.5-5.3-2.8-7.1-1.6
		c-9.8,6.8-24.4,7.2-27.9,22.8c-1.9,8.2-13.1,7.9-23.6,0.2c-8.1-5.9-7.2-25.2,1.3-29.6c2.6-1.4,5.3-2.4,7.8-0.9
		c15.3,9,23.4-6.1,34.6-10.3c3.4-1.3,3.5-5.1-0.6-7.1c-11.6-5.7-20.1-18.7-36.6-13.1c-8.1,2.8-13.9-7.3-11.5-19.6
		c2-10.2,11.8-12.6,19.5-14.4c5.4-1.3,12.3,3,11.5,11.6c-0.3,3.6,2,5.7,4.9,7.4c6.2,3.5,12.4,6.9,18.3,10.9c6.7,4.6,10.1,2,9.5-4.9
		c-1-12.2,5.6-25.7-7.6-36.1c-4-3.2-3.3-10.3,3.4-14.6c13.9-8.9,18.3-9.4,29.2-0.5c5.8,4.7,6.1,12.9,1.9,15.4
		c-9.9,6-8,14.4-7.8,22.7c0.1,7-3.3,17.2,1.7,20.2c6.3,3.8,12.9-5,19.4-8.2c6.1-3,12.8-5.2,13.3-14.7c0.3-5.8,7.6-9.1,12.6-8.6
		c6.8,0.8,14.2,4.7,16.5,11.5C387.5,207.7,385.7,215.3,383.2,222z M249.2,246.9c-7.5-0.1-5.5-4.4-5.8-8.8c1.9-2.2-4-8.4,4.8-8.5
		c7-0.1,7.8,2.9,7.3,8.3C255.1,242,257.6,247.1,249.2,246.9z"/>
</g>
</svg>
